<svg id="Componente_37_1" data-name="Componente 37 – 1" xmlns="http://www.w3.org/2000/svg" width="167.494" height="36.805" viewBox="0 0 167.494 36.805">
  <path id="Trazado_104" data-name="Trazado 104" d="M124.147,224.735c0-2.25,1.239-3.994,3.58-3.994,2.25,0,3.122,2.158,4.453,2.158,1.01,0,1.837-.505,1.837-1.607a3.418,3.418,0,0,0-1.561-2.25l-4.132-3.213a9.76,9.76,0,0,1-3.856-7.8c0-5.325,4.361-9,9.549-9,3.856,0,7.941,1.377,7.941,5.83a2.9,2.9,0,0,1-2.846,3.03c-1.423,0-2.387-.964-3.581-.964a1.468,1.468,0,0,0-1.514,1.606,2.277,2.277,0,0,0,.872,1.607l5.233,3.856a8.606,8.606,0,0,1,3.443,7.161c0,6.2-4.453,10.375-10.512,10.375C128.967,231.529,124.147,229.187,124.147,224.735Z" transform="translate(-103.753 -199.028)" fill="#005b8e"/>
  <path id="Trazado_105" data-name="Trazado 105" d="M157.452,199.212c5.693,0,9.732,5.1,9.732,10.65,0,8.125-5.371,11.292-12.394,11.109-.23,0-.689,0-.689.688l.5,10.318c0,2.571-2.295,3.856-4.544,3.856s-4.5-1.285-4.5-3.856l-.5-27.211c0-3.213,1.239-5.554,4.682-5.554Zm1.619,10.282c0-1.515-.323-4.659-3.771-4.659-2.8,0-4.094,2.915-4.094,4.659s.433,4.7,3.879,4.823C158.216,214.424,159.071,211.009,159.071,209.494Z" transform="translate(-103.753 -199.028)" fill="#005b8e"/>
  <path id="Trazado_106" data-name="Trazado 106" d="M172.843,231.437c-3.443,0-4.682-2.341-4.682-5.554V204.858c0-3.214,1.239-5.555,4.682-5.555h8.906c2.341,0,3.718,1.561,3.718,4.132a3.761,3.761,0,0,1-3.718,4.039h-2.708a1.979,1.979,0,0,0,0,3.948h2.524c2.2,0,3.306,1.79,3.306,3.948,0,1.974-1.1,3.948-3.306,3.948h-2.524a1.979,1.979,0,0,0,0,3.948h2.708c2.341,0,3.718,1.56,3.718,4.131a3.762,3.762,0,0,1-3.718,4.04Z" transform="translate(-103.753 -199.028)" fill="#005b8e"/>
  <path id="Trazado_107" data-name="Trazado 107" d="M195.625,215.278c0,3.076,1.056,7.483,4.912,7.483,2.662,0,5.141.642,5.141,4.361,0,3.351-2.617,4.407-5.922,4.407-8.814,0-13.312-7.988-13.312-16.251s4.5-16.25,13.312-16.25c3.305,0,5.922,1.056,5.922,4.407,0,3.718-2.479,4.361-5.141,4.361C196.681,207.8,195.625,212.2,195.625,215.278Z" transform="translate(-103.753 -199.028)" fill="#005b8e"/>
  <path id="Trazado_108" data-name="Trazado 108" d="M221.792,207.52c-.551,0-.6.322-.6.689l.193,23.768c0,2.571-2.295,3.856-4.545,3.856s-4.5-1.285-4.5-3.856l-.192-23.768c0-.367-.046-.689-.6-.689h-1.194c-2.524,0-3.764-2.065-3.764-4.131s1.24-4.177,3.764-4.177h12.624c2.525,0,3.764,2.111,3.764,4.177s-1.239,4.131-3.764,4.131Z" transform="translate(-103.753 -199.028)" fill="#005b8e"/>
  <path id="Trazado_109" data-name="Trazado 109" d="M240.108,219.134c.23,0,.689,0,.689.689l.345,7.649c0,2.571,2.295,3.856,4.544,3.856s4.5-1.285,4.5-3.856l-.345-22.706c0-3.213-1.239-5.554-4.682-5.554H237.9a9.429,9.429,0,0,0-9.731,9.731c0,3.948,1.147,6.519,3.12,8.08a11.059,11.059,0,0,0-1.514,2.295,20.483,20.483,0,0,0-1.538,8.659c0,2.2,1.607,3.351,3.718,3.351s4.361-.735,4.821-3.489a37.457,37.457,0,0,1,1.4-6.226C238.732,220.374,239.466,219.134,240.108,219.134Zm-3.764-9.557c0-1.515.107-4.1,3.34-4.1,2.693,0,3.017,2.351,3.017,4.1s-.862,3.662-3.233,3.662C236.882,213.239,236.344,211.092,236.344,209.577Z" transform="translate(-103.753 -199.028)" fill="#005b8e"/>
  <path id="Trazado_110" data-name="Trazado 110" d="M258.623,231.345c-3.442,0-4.682-2.341-4.682-5.554V204.766c0-3.213,1.24-5.554,4.682-5.554h8.906c2.341,0,3.718,1.56,3.718,4.131a3.763,3.763,0,0,1-3.718,4.04h-2.708a1.979,1.979,0,0,0,0,3.948h2.524c2.2,0,3.3,1.79,3.3,3.947,0,1.974-1.1,3.948-3.3,3.948h-2.524a1.979,1.979,0,0,0,0,3.948h2.708c2.341,0,3.718,1.561,3.718,4.132a3.762,3.762,0,0,1-3.718,4.039Z" transform="translate(-103.753 -199.028)" fill="#005b8e"/>
  <path id="Trazado_111" data-name="Trazado 111" d="M116.377,199.212c3.442,0,4.682,2.341,4.682,5.554v21.025c0,3.213-1.24,5.554-4.682,5.554h-8.906c-2.341,0-3.718-1.561-3.718-4.131a3.763,3.763,0,0,1,3.718-4.04h2.708a1.979,1.979,0,0,0,0-3.948h-2.524c-2.2,0-3.305-1.79-3.305-3.948,0-1.974,1.1-3.947,3.305-3.947h2.524a1.979,1.979,0,0,0,0-3.948h-2.708c-2.341,0-3.718-1.561-3.718-4.132a3.762,3.762,0,0,1,3.718-4.039Z" transform="translate(-103.753 -199.028)" fill="#005b8e"/>
</svg>
