<?xml version="1.0" encoding="UTF-8"?>
<svg id="Capa_2" data-name="Capa 2" xmlns="http://www.w3.org/2000/svg" viewBox="0 0 117.27 94.75">
  <defs>
    <style>
      .cls-1 {
        fill: #25305c;
      }

      .cls-2 {
        fill: #86afdd;
      }

      .cls-3 {
        fill: #4671b8;
      }

      .cls-4 {
        fill: #cdd9eb;
      }

      .cls-5 {
        fill: #379d81;
      }

      .cls-6 {
        fill: #3a65b0;
      }

      .cls-7 {
        fill: #92b7e0;
      }

      .cls-8 {
        fill: #6f9fd5;
      }

      .cls-9 {
        fill: #97c6ea;
      }

      .cls-10 {
        fill: #ebeef3;
      }

      .cls-11 {
        fill: #6493cd;
      }

      .cls-12 {
        fill: #273763;
      }

      .cls-13 {
        fill: #224487;
      }

      .cls-14 {
        fill: #fcfcfc;
      }

      .cls-15 {
        fill: #0c1017;
      }
    </style>
  </defs>
  <g id="Layer_2" data-name="Layer 2">
    <g>
      <path class="cls-9" d="M64.27,69.33c.17,1.77,1.42.18,3.76,1.42,3.02,1.6,6.2,2.34,9.61,2.42,1.18.03,2.39.54,3.55.08,2.14-.85,3.75-2.42,5.21-3.99.69,6.05,1.18,15.81,2.5,21.09.34,1.34.6,2.92-.99,3.59-2.54,1.07-5.58,1.01-8.18.22-1.57-.47-1.28-1.91-1.72-3.12l-3.26-8.87-3.1-.07c-.62,3.08-1.15,6.05-1.58,9.2-.16,1.2-.78,2.3-2.05,2.62-2.27.57-9.24,1.24-9.96-1.27-.39-1.37.97-2.08,1.55-3.22-1-7.56-1.21-15.08-.79-22.59.19,0,.78-.38.98-.16.75,2.03,2.46,2.85,4.47,2.65Z"/>
      <path class="cls-9" d="M57.55,50.31c.15.57,1.12.02,1.52.34.99.8,1.71,1.94,2.91,2.13-.26.67-.4,1.38-.79,2.18-1.5,3.07-5.3-.36-8.11.55,2.72.68,5.38,1.02,7.9,2-1.4-2.85,5.91-1.4,6.84,2.17,2.95.15,6.02,1.66,8.85.95,2.21-.55,3.82-3.24,5.08-4.69-.53-.53-.51.22-.73.26-.35.08-.47-.18-.54-.38s.18-.56.09-.76c2.86-.56,5.71-.79,8.62-.63.73,1.61,1.5,3.22,1.14,5.51-.42,2.66-1.59,6.83-3.98,8.75-5.25,4.2-13.93,4.03-19.99.19-.78,0-1.43.38-2.08.44-2,.19-3.72-.62-4.47-2.65-.2-.22-.79.16-.98.16-.58-.11-1.17-.71-1.35-1.28-.11-.36.19-.89-.53-1.05l-.03.98c-1.38-.17-2.77-.62-3.76-1.63l-.86-3.64c-1.38-.25-2.75-.61-3.4-1.92-.35-.71-.17-1.42.23-1.99s1.14-.81,2.07-.99c-.32-2.21-1.08-4.17-1.16-6.25,3.03.52,3.97,2.02,7.51,1.23ZM56.81,64.25c.12-1.28.35-2.19,1.09-3.14-1.81-.2-3.32-.72-5.14-.61,1.35.76,2.83.49,4.19,1.01-.35,1.03-.62,1.94-.14,2.74ZM58.5,60.89c0-.09-.07-.16-.16-.16s-.16.07-.16.16.07.16.16.16.16-.07.16-.16Z"/>
      <path class="cls-11" d="M86.34,68.7l.06.56c-1.46,1.57-3.07,3.14-5.21,3.99-1.16.46-2.37-.06-3.55-.08-3.41-.08-6.59-.82-9.61-2.42-2.34-1.24-3.59.36-3.76-1.42.65-.06,1.3-.44,2.08-.44,6.06,3.84,14.74,4.01,19.99-.19Z"/>
      <path class="cls-8" d="M86.66,50.62c1.3,2.31,1.1.7,2.52,3.82-2.91-.16-5.76.07-8.62.63-.46-1-.87-2.1-.92-3.21,2.4-.62,4.81-.46,7.02-1.24Z"/>
      <path class="cls-8" d="M57.48,65.56l-.56-.07.03-.98c.72.16.42.69.53,1.05Z"/>
      <path class="cls-2" d="M63.57,49.41c-.26,1.24-1.13,2.21-1.59,3.37-1.2-.19-1.91-1.34-2.91-2.13-.4-.32-1.37.22-1.52-.34,1.67-.37,3.33-.78,4.97-1.29.44.22.81.31,1.05.4Z"/>
      <path class="cls-8" d="M56.81,64.25c-.48-.8-.21-1.71.14-2.74-1.36-.52-2.84-.25-4.19-1.01,1.82-.11,3.33.41,5.14.61-.74.95-.97,1.86-1.09,3.14Z"/>
      <path class="cls-11" d="M79.64,51.86c.05,1.11.45,2.21.92,3.21.09.2-.16.55-.09.76s.18.46.54.38c.22-.05.2-.8.73-.26-1.26,1.45-2.87,4.14-5.08,4.69-2.83.71-5.9-.8-8.85-.95-.93-3.58-8.24-5.02-6.84-2.17-2.51-.99-5.17-1.33-7.9-2,2.81-.91,6.61,2.52,8.11-.55.39-.8.53-1.51.79-2.18.46-1.16,1.33-2.13,1.59-3.37,5.19,1.86,10.58,2.39,16.07,2.45Z"/>
      <circle class="cls-8" cx="58.34" cy="60.89" r=".16"/>
      <path class="cls-9" d="M101.74,16.82c2.84,8.6,2.41,17.69-2.76,25.66-2.69,4.15-7.68,6.5-12.32,8.14-2.2.78-4.62.62-7.02,1.24-5.48-.06-10.88-.59-16.07-2.45-.24-.08-.61-.17-1.05-.4-2.26-1.15-4.51-2.27-6.53-4.09-2.75-2.48-5.28-5.46-6.58-9.12-2.91-8.17-.02-18.94,5.28-25.82C62.76.89,74.97-2.63,86.52,2.11c6.87,2.82,11.99,7.95,15.22,14.71ZM64.28,35.67c3.59-2.4,4.38-7.31,1.75-10.58-1.77-2.2-5.17-2.23-7.27-.35-2.87,2.57-3.29,7.27-.64,10.1,1.56,1.67,4.2,2.14,6.17.82ZM87.89,36.62c1.56-2.72,1.45-5.95-.44-8.28-1.89-2.33-5.05-2.54-7.35-.57-2.57,2.2-3.22,6.13-1.48,9.07,1.01,1.71,2.85,2.61,4.67,2.63s3.55-1.03,4.59-2.85ZM75.87,38.85c.23-.67-.24-1.11-.48-1.17-1.16-.26-1.16,1.98-4.37,1.27-1.13-.25-1.79-1.08-2.53-2.18-.53-.17-1.08.82-.84,1.58.49,1.54,1.83,3.04,3.57,3.35,1.92.35,4.02-.98,4.66-2.86Z"/>
      <path class="cls-9" d="M98.97,42.48c5.17-7.97,5.6-17.06,2.76-25.66,5.44-1.13,10.82.92,13.67,6,3.19,5.66,2.18,12.88-2.27,17.67-3.73,4.01-9.68,4.77-14.16,1.99Z"/>
      <path class="cls-9" d="M54.69,9.99c-5.3,6.88-8.19,17.65-5.28,25.82-.73.09-1.48.21-2.2.04-.41-.47-.6-1.19-.75-1.94l-1.25-6c-.28-1.33-1.71-2.39-2.96-2.42-1.64-.03-2.97.52-4.35.79-.94-5.59.55-11.45,5.08-15.12,3.48-2.82,7.94-3.19,11.72-1.19Z"/>
      <path class="cls-15" d="M87.89,36.62c-1.05,1.82-2.77,2.87-4.59,2.85s-3.66-.92-4.67-2.63c-1.74-2.94-1.09-6.87,1.48-9.07,2.3-1.97,5.46-1.76,7.35.57,1.89,2.34,2,5.56.44,8.28ZM87.04,30.54c0-1.04-.85-1.89-1.89-1.89s-1.89.85-1.89,1.89.85,1.89,1.89,1.89,1.89-.85,1.89-1.89Z"/>
      <path class="cls-15" d="M64.28,35.67c-1.96,1.31-4.61.84-6.17-.82-2.65-2.83-2.23-7.53.64-10.1,2.1-1.88,5.5-1.85,7.27.35,2.63,3.26,1.84,8.18-1.75,10.58ZM65.81,27.52c0-1.04-.85-1.89-1.89-1.89s-1.89.84-1.89,1.89.85,1.89,1.89,1.89,1.89-.84,1.89-1.89Z"/>
      <path class="cls-15" d="M75.87,38.85c-.64,1.88-2.74,3.21-4.66,2.86-1.74-.32-3.08-1.81-3.57-3.35-.24-.76.31-1.75.84-1.58.74,1.09,1.4,1.93,2.53,2.18,3.21.7,3.21-1.54,4.37-1.27.25.06.71.49.48,1.17Z"/>
      <circle class="cls-10" cx="85.15" cy="30.54" r="1.89"/>
      <circle class="cls-10" cx="63.92" cy="27.52" r="1.89"/>
      <g>
        <path class="cls-13" d="M47.21,35.85c-.17.96.1,1.94.34,3.02l1.72,7.97.79,2.24c.08,2.08.83,4.04,1.16,6.25-.92.18-1.67.42-2.07.99s-.58,1.28-.23,1.99c.65,1.31,2.02,1.67,3.4,1.92l.86,3.64,1.73,8.06,2.32,11.25c.26,1.25-.6,2.99-2.12,3.3l-37.66,7.69c.08-.68-3.31.6-3.78-1.9-.56-2.94-1.45-5.69-2.09-8.61l-3.27-14.84L.7,34.99l1.26-1.75c.27-.13.49-.45.97-.53l9.13-1.62c.89-.16,1.56,1.63,1.06,2.25-.42.51-1.13.02-1.7.32.27.35.64.2.96.28l-7.01,1.49c-.89.19-1.45.92-1.22,1.99l11.48,51.24c.15.68.2,1.15.63,1.54.38.34.92.48,1.64.34l34.52-7.06c1.21-.25,1.75-1.25,1.49-2.36l-5.14-22.38c-.2-.86-.3-1.46-.5-2.35l-5.94-26.8c-.24-1.06-1.9-.72-2.61-.59l-7.44,1.42c-.27-.32-.76-.28-1.15-.64.11-.85-.15-1.47-.29-2.07l7.05-1.41c1.38-.27,2.72-.82,4.35-.79,1.25.02,2.69,1.09,2.96,2.42l1.25,6c.15.74.35,1.47.75,1.94Z"/>
        <path class="cls-12" d="M17.43,94.16c-1.16.24-2.25.67-3.47-.1-.83-.52-1.32-1.48-1.59-2.67l-1.15-5.19L2.24,46.64.12,37.28c-.42-1.84.21-3.28,1.83-4.04l-1.26,1.75,7.6,33.82,3.27,14.84c.64,2.92,1.53,5.67,2.09,8.61.47,2.5,3.86,1.22,3.78,1.9Z"/>
        <path class="cls-14" d="M12.38,33.94c.49-.1.78-.2.98-.04.28.22.3,1.01.68,1.56.48.7,1.13.5,1.83.36l14.77-2.94c1.96-.39-.15-2.52,1.64-2.46l7.44-1.42c.71-.14,2.37-.48,2.61.59l5.94,26.8c.2.89.3,1.49.5,2.35l5.14,22.38c.25,1.11-.28,2.11-1.49,2.36l-34.52,7.06c-.72.15-1.27,0-1.64-.34-.44-.4-.48-.86-.63-1.54L4.15,37.42c-.24-1.06.33-1.8,1.22-1.99l7.01-1.49ZM31.23,42.53l7.69-1.68c.34-.07.4-.54.33-.73-.06-.17-.26-.44-.64-.37-2.66.47-5.21.91-7.84,1.51-.39.09-.54.44-.48.69.07.27.33.37.93.59ZM28.63,47.16c-1.21-4.3-5.06-6.53-8.98-5.76l1.7,7.57c2.49-.54,4.93-.8,7.28-1.81ZM14.55,54.37c1.56,1.98,3.61,3.29,6.23,3.28,2.52-.02,4.92-.92,6.55-3.43-2.21-1.43-4.36-3.04-6.73-3.98-.33-2.82-1.06-5.63-1.8-8.5-2.86.6-4.75,2.7-5.52,4.92-1.01,2.89-.41,5.57,1.28,7.71ZM32.44,46.47l7.25-1.47c.45-.09.66-.49.58-.72-.08-.25-.35-.58-.73-.52-2.67.45-5.21.9-7.85,1.57-.4.1-.27.67-.15.85.09.13.4.38.88.29ZM33.43,50.68l7.17-1.51c.43-.09.62-.5.51-.83-.09-.29-.38-.46-.83-.38-2.48.48-4.87.88-7.34,1.5-.46.12-.63.4-.6.72s.49.64,1.08.51ZM27.81,53.44c.9-1.74,1.23-3.3.86-5.08-2.34.38-4.48.86-6.8,1.55l5.94,3.53ZM25.79,63.49l16.8-3.23c.38-.07.55-.37.52-.64-.03-.25-.3-.49-.72-.41l-17.08,3.35c-.46.09-.59.53-.47.72.14.22.47.3.95.21ZM20.53,62.11c-1.39.18-2.82.42-4.3.95-.27,1.69.38,3.26.85,4.87,1.87-.14,3.37-.5,5.09-.96.2-1.12-.15-2.2-.64-3.08-.06-1.28,1.18-1.96.53-2.61-.46-.46-1.17.39-1.52.84ZM34.25,63.76c.49-.09.78-.32,1.05-.49.14-.09.1-.47-.18-.63-3.21.47-6.24,1.06-9.35,1.73-.35.08-.56.31-.52.62.02.18.3.42.68.35l8.32-1.58ZM44.93,67.03l-18.58,3.59.22,1.15,18.58-3.59-.22-1.15ZM21.84,70.28c-1.31.15-2.72.2-3.99.96l1.03,4.62c1.77.06,3.46-.41,5.15-.93-.04-1.36-.49-2.35-.66-3.46.18-1.06,1-1.85.37-2.29-.76-.53-1.22,1.02-1.89,1.1ZM27.91,73.29l7.76-1.62c.37-.08.48-.46.36-.65-.1-.16-.3-.17-.6-.21l-7.92,1.54c-.37.07-.64.23-.61.54.01.17.1.34.26.43.14.08.36.05.76-.04ZM29.02,79.39l17.44-3.46c.45-.09.53-.56.32-.81-.1-.12-.29-.24-.64-.17l-17.45,3.4c-.39.08-.6.3-.58.54.03.31.28.62.9.5ZM23.79,78.16c-1.35.05-2.74.29-4.09.9.16,1.74.45,3.27,1.09,4.82,1.64-.1,3.13-.5,4.8-.92.32-1.14-.18-2.23-.59-3.22.06-.94,1.07-1.86.63-2.43-.13-.17-.43-.42-.71-.2-.45.35-.67.87-1.14,1.05ZM37.13,79.48c.36-.09.37-.57.25-.7-.08-.1-.29-.21-.56-.15l-7.67,1.46c-.35.07-.63.24-.66.5-.12,1.1,7.52-.82,8.64-1.09Z"/>
        <g>
          <path class="cls-12" d="M30.84,27.7c.15.61.4,1.23.29,2.07.38.37.87.32,1.15.64-1.79-.06.32,2.07-1.64,2.46l-14.77,2.94c-.7.14-1.35.34-1.83-.36.3-1.46-.39-2.98-.33-4.59.03-.75.13-1.39-.1-1.99.97-.68,2.13-.62,3.45-1.01-.32-2.32.96-3.69,2.96-4.37,2.31-.79,4.62.24,5.37,2.77.92,0,1.79-.22,2.63-.44,1.51-.39,2.52.61,2.82,1.88ZM22.22,26.64c0-.52-.42-.95-.95-.95s-.95.42-.95.95.42.95.95.95.95-.42.95-.95Z"/>
          <path class="cls-1" d="M14.04,35.46c-.38-.55-.4-1.34-.68-1.56-.2-.16-.49-.06-.98.04-.32-.08-.69.07-.96-.28.57-.3,1.29.19,1.7-.32.5-.62-.17-2.41-1.06-2.25,1.36-.62-.26-.94,1.55-2.21.23.59.13,1.24.1,1.99-.06,1.61.63,3.13.33,4.59Z"/>
          <circle class="cls-10" cx="21.27" cy="26.64" r=".95"/>
        </g>
        <path class="cls-3" d="M20.59,50.24c-1.39,1.48-2.62,3.47-3.66,5.52-1.29.46-2.48-2.58-2.38-1.4-1.69-2.14-2.28-4.82-1.28-7.71.77-2.22,2.66-4.32,5.52-4.92.74,2.87,1.46,5.68,1.8,8.5Z"/>
        <path class="cls-6" d="M14.55,54.37c-.1-1.19,1.09,1.85,2.38,1.4,1.04-2.05,2.27-4.04,3.66-5.52,2.38.94,4.52,2.55,6.73,3.98-1.63,2.51-4.03,3.41-6.55,3.43-2.62.02-4.67-1.3-6.23-3.28Z"/>
        <path class="cls-7" d="M28.63,47.16c-2.35,1.01-4.79,1.27-7.28,1.81l-1.7-7.57c3.92-.77,7.77,1.46,8.98,5.76Z"/>
        <rect class="cls-7" x="26.29" y="68.82" width="18.93" height="1.17" transform="translate(-12.53 8.05) rotate(-10.95)"/>
        <path class="cls-7" d="M29.02,79.39c-.62.12-.87-.18-.9-.5-.02-.24.18-.46.58-.54l17.45-3.4c.35-.07.53.05.64.17.2.24.13.72-.32.81l-17.44,3.46Z"/>
        <path class="cls-2" d="M25.79,63.49c-.48.09-.8,0-.95-.21-.12-.19,0-.63.47-.72l17.08-3.35c.42-.08.69.16.72.41.03.27-.14.56-.52.64l-16.8,3.23Z"/>
        <path class="cls-11" d="M27.81,53.44l-5.94-3.53c2.32-.69,4.46-1.18,6.8-1.55.37,1.78.03,3.34-.86,5.08Z"/>
        <path class="cls-13" d="M20.53,62.11c-.16.2-.18.55-.31.78-1.01.21-2.1.26-3.16.69-.32.13-.07.78.11.88.04.2-.04.44,0,.64l.35,1.93c.7.18,1.33.04,1.74-.39h.45c.5-.03,1.57.14,1.74-.53s-.32-1.29-.24-1.82l.31-.39c.5.89.84,1.97.64,3.08-1.72.46-3.21.81-5.09.96-.47-1.6-1.12-3.17-.85-4.87,1.48-.53,2.91-.77,4.3-.95Z"/>
        <path class="cls-3" d="M32.44,46.47c-.48.1-.79-.15-.88-.29-.13-.18-.25-.75.15-.85,2.64-.67,5.18-1.13,7.85-1.57.38-.06.64.27.73.52.08.23-.13.63-.58.72l-7.25,1.47Z"/>
        <path class="cls-6" d="M31.23,42.53c-.6-.22-.86-.31-.93-.59-.06-.24.09-.6.48-.69,2.63-.6,5.19-1.04,7.84-1.51.37-.07.58.2.64.37.07.19.01.66-.33.73l-7.69,1.68Z"/>
        <path class="cls-3" d="M33.43,50.68c-.59.12-1.05-.21-1.08-.51s.14-.6.6-.72c2.46-.62,4.85-1.02,7.34-1.5.45-.09.74.09.83.38.11.33-.08.74-.51.83l-7.17,1.51Z"/>
        <path class="cls-13" d="M21.84,70.28l-.05.53c-.93.29-2.04.24-2.98.77-.37.21.03.84-.03,1.08s.17.55.23.78c.16.52.13,1.06.45,1.74,1.31-.15,2.63-.3,3.83-.85-.12-.8-.31-1.45-.29-2.11-.03-.29.31-.5.35-.75.17,1.11.61,2.1.66,3.46-1.69.51-3.38.99-5.15.93l-1.03-4.62c1.27-.76,2.68-.8,3.99-.96Z"/>
        <path class="cls-7" d="M34.25,63.76l-8.32,1.58c-.38.07-.66-.17-.68-.35-.04-.31.17-.54.52-.62,3.12-.67,6.14-1.26,9.35-1.73.28.15.32.54.18.63-.28.17-.57.4-1.05.49Z"/>
        <path class="cls-13" d="M23.79,78.16l-.08.56c-1.02.28-2.21.17-3.21.76-.3.18.07.9.12,1.1.02.1-.02.23,0,.33.07.73.17,1.49.6,2.22,1.34-.23,2.51-.35,3.81-.74-.04-.9-.35-1.64-.23-2.39.09-.06.13-.19.22-.26.4.99.91,2.08.59,3.22-1.67.42-3.16.82-4.8.92-.64-1.55-.93-3.09-1.09-4.82,1.35-.61,2.73-.86,4.09-.9Z"/>
        <path class="cls-5" d="M23.37,71.47c-.04.24-.38.46-.35.75l-2.02,2.52c-.7-.51-1.26-1.18-1.97-1.3-.07-.22-.3-.53-.23-.78.31-.21.64-.49.9-.38.39.16.67.41,1.04.8.59-.63.99-1.44,1.07-2.27l.05-.53c.67-.08,1.13-1.63,1.89-1.1.63.44-.19,1.23-.37,2.29Z"/>
        <path class="cls-5" d="M21.52,63.88l-.31.39c-.58.73-.96,1.58-1.5,2.33h-.45c-.77-.39-1.39-1-2.09-1.52-.04-.2.04-.44,0-.64.55-.49,1.23.39,1.86.31.77-.1.88-1.35,1.19-1.87.13-.22.15-.58.31-.78.35-.44,1.06-1.29,1.52-.84.65.65-.58,1.33-.53,2.61Z"/>
        <path class="cls-7" d="M37.13,79.48c-1.12.27-8.77,2.2-8.64,1.09.03-.25.32-.43.66-.5l7.67-1.46c.27-.05.48.06.56.15.12.14.1.62-.25.7Z"/>
        <path class="cls-5" d="M25.01,79.75c-.09.07-.13.2-.22.26-.85.55-.97,1.64-1.72,2.63-1.02-.43-1.65-1.24-2.46-1.73-.01-.1.03-.24,0-.33.27-.13.54-.41.78-.41.44.01.78.37,1.21.79.53-.68.97-1.44,1.09-2.25l.08-.56c.47-.18.69-.69,1.14-1.05.28-.22.58.04.71.2.44.57-.57,1.49-.63,2.43Z"/>
        <path class="cls-7" d="M27.91,73.29c-.4.08-.63.12-.76.04-.16-.1-.24-.26-.26-.43-.02-.31.24-.47.61-.54l7.92-1.54c.31.04.5.05.6.21.12.19,0,.57-.36.65l-7.76,1.62Z"/>
        <path class="cls-10" d="M20.22,62.88c-.3.53-.41,1.77-1.19,1.87-.63.09-1.31-.79-1.86-.31-.18-.1-.43-.75-.11-.88,1.06-.43,2.15-.48,3.16-.69Z"/>
        <path class="cls-4" d="M19.71,66.61c.55-.76.93-1.61,1.5-2.33-.08.53.39,1.18.24,1.82s-1.24.5-1.74.52Z"/>
        <path class="cls-10" d="M19.26,66.62c-.4.44-1.03.58-1.74.39l-.35-1.93c.69.52,1.32,1.13,2.09,1.53Z"/>
        <path class="cls-4" d="M23.02,72.21c-.01.66.17,1.31.29,2.11-1.2.55-2.52.7-3.83.85-.33-.68-.29-1.22-.45-1.74.71.13,1.27.79,1.97,1.3l2.02-2.52Z"/>
        <path class="cls-10" d="M21.8,70.8c-.07.83-.48,1.64-1.07,2.27-.36-.4-.65-.65-1.04-.8-.26-.1-.59.17-.9.38.06-.24-.35-.87.03-1.08.94-.53,2.05-.49,2.98-.77Z"/>
        <path class="cls-4" d="M20.62,80.91c.81.49,1.44,1.3,2.46,1.73.75-1,.87-2.08,1.72-2.63-.11.75.19,1.49.23,2.39-1.3.39-2.48.51-3.81.74-.43-.74-.53-1.5-.6-2.22Z"/>
        <path class="cls-10" d="M23.71,78.72c-.12.81-.56,1.57-1.09,2.25-.43-.42-.77-.78-1.21-.79-.24,0-.51.27-.78.41-.05-.21-.42-.92-.12-1.1,1-.6,2.19-.49,3.21-.76Z"/>
      </g>
    </g>
  </g>
</svg>