<?xml version="1.0" encoding="UTF-8"?>
<svg id="Capa_2" data-name="Capa 2" xmlns="http://www.w3.org/2000/svg" viewBox="0 0 108.08 101.36">
  <defs>
    <style>
      .cls-1 {
        fill: #4671b8;
      }

      .cls-2 {
        fill: #cdd9eb;
      }

      .cls-3 {
        fill: #3a65b0;
      }

      .cls-4 {
        fill: #6f9fd5;
      }

      .cls-5 {
        fill: #97c6ea;
      }

      .cls-6 {
        fill: #ebeef3;
      }

      .cls-7 {
        fill: #6493cd;
      }

      .cls-8 {
        fill: #2b59a9;
      }

      .cls-9 {
        fill: #0c1017;
      }
    </style>
  </defs>
  <g id="Layer_2" data-name="Layer 2">
    <g>
      <path class="cls-6" d="M26.68,56.62c.48,1.24,1.73,2.13,2.47,3.3,1.52-1.11,2.9-2.59,4.62-2.96l20.93-4.47,3.03,2.31-25.15,5.64c-2.58.58-4.76.61-6.66-.39l-18.27-9.61c.66-.82,2.16-2.04,3.35-1.95l11.41,5.6c1.57.77,2.69,2.14,4.26,2.51Z"/>
      <path class="cls-7" d="M33.77,56.97c-1.72.37-3.1,1.84-4.62,2.96-.74-1.18-1.99-2.07-2.47-3.3.82-.31,1.63-.64,2.47-.9.34-.11.79-.16,1.24,0l3.38,1.24Z"/>
      <path class="cls-5" d="M74.47,18.03c-.06.56,0,1.19.27,1.85,3.48,8.86,2.43,19.83-3.07,27.17-2.62,3.5-6.38,5.94-10.33,8.05,2.94,2.48,5.55,5.03,7.26,8.13.17.31.49.75.61,1.07,1.47,3.93,1.58,8.11-.83,11.61-.79.6-1.78,1.03-2.4,1.81-.72-.09-1.55.56-2.14.72-1.18-.09-2.39-.25-3.57,0-3.59-1.88-3.29-.77-4.73-4.4-.69-1.72-.59-2.47.21-4.02.38-.74-.47-2.24,1.2-2.9.95-.37,2.01-.78,3.43-.75l-.51-11.14c-.46-.46-1.65-.53-2.14-.42l-3.03-2.31-20.93,4.47-3.38-1.24c-.45-.17-.9-.11-1.24,0-4.46-2.53-11.1-7.5-13.33-12.06-2.43-4.97-2.62-11.15-1.95-16.49s3.18-9.62,5.55-14.12c.5-.17.82-.6,1.21-1.09C31.36-1.37,50.58-3.95,64.39,6.21c3.85,2.84,6.99,6.35,9.04,10.72.26.55.58.96,1.04,1.1ZM33.6,39.17c2.14-2.9,2.13-6.73.34-9.69-1.05-1.73-2.8-2.54-4.58-2.63s-3.38.76-4.69,2.21c-2.09,2.31-2.66,5.83-1.52,8.72.86,2.18,2.63,3.49,4.55,3.83,2.31.41,4.41-.44,5.89-2.43ZM57.82,41.43c2.39-2.88,2.48-7.34.28-10.2-1.9-2.47-5-3.07-7.66-1.44-3.62,2.22-4.65,7.43-2.44,11.02,1.11,1.81,2.96,2.77,4.75,2.9s3.7-.63,5.07-2.28ZM43.48,43.1c-1.5,1.97-4.71,1.9-5.98-.12-.37-.58-.67-1.05-1.37-.81-.32.11-.6.61-.43,1.24.58,2.11,2.61,3.34,4.68,3.39,1.93.04,4-1.03,4.59-3.02.17-.59-.07-1.1-.39-1.21-.38-.13-.71.01-1.1.52ZM63.69,66.9c-1.06-.82-1.84-1.25-2.29-2.38-.59.47-.91,1.59-.51,1.84.93.48,1.92.41,2.8.54Z"/>
      <path class="cls-5" d="M71.67,47.05c5.5-7.34,6.55-18.31,3.07-27.17-.26-.66-.33-1.29-.27-1.85,5.4-1.86,11.52-.12,14.98,4.74,4.71,6.6,4.05,15.6-1.3,21.62-4.29,4.83-11.08,5.77-16.48,2.66Z"/>
      <path class="cls-5" d="M19.42,13.05c-2.38,4.5-4.87,8.66-5.55,14.12s-.48,11.51,1.95,16.49c-4.19.79-8.42-.69-11.48-4.09-6.76-7.51-5.44-19.98,2.83-25.82,3.79-2.68,8.61-2.95,12.26-.7Z"/>
      <path class="cls-9" d="M57.82,41.43c-1.37,1.65-3.23,2.42-5.07,2.28s-3.64-1.09-4.75-2.9c-2.2-3.59-1.17-8.8,2.44-11.02,2.66-1.63,5.76-1.03,7.66,1.44,2.2,2.86,2.12,7.32-.28,10.2ZM57.47,33.52c0-1.18-.95-2.13-2.13-2.13s-2.13.95-2.13,2.13.95,2.13,2.13,2.13,2.13-.95,2.13-2.13Z"/>
      <path class="cls-9" d="M33.6,39.17c-1.47,2-3.58,2.85-5.89,2.43-1.92-.34-3.68-1.66-4.55-3.83-1.14-2.88-.57-6.4,1.52-8.72,1.3-1.44,2.88-2.3,4.69-2.21s3.53.9,4.58,2.63c1.78,2.95,1.8,6.79-.34,9.69ZM33.18,31.5c0-1.16-.94-2.1-2.1-2.1s-2.1.94-2.1,2.1.94,2.1,2.1,2.1,2.1-.94,2.1-2.1Z"/>
      <path class="cls-9" d="M43.48,43.1c.39-.51.72-.65,1.1-.52.32.11.56.62.39,1.21-.58,1.99-2.66,3.07-4.59,3.02-2.06-.05-4.1-1.28-4.68-3.39-.17-.62.1-1.12.43-1.24.69-.24,1,.22,1.37.81,1.27,2.02,4.49,2.09,5.98.12Z"/>
      <circle class="cls-6" cx="55.34" cy="33.52" r="2.13"/>
      <circle class="cls-6" cx="31.08" cy="31.5" r="2.1"/>
      <path class="cls-7" d="M63.69,66.9c-.87-.14-1.87-.06-2.8-.54-.4-.25-.08-1.37.51-1.84.45,1.13,1.23,1.56,2.29,2.38Z"/>
      <path class="cls-5" d="M58.97,85.57c.6,2.84-.8,5.93-2.1,8.38-1.1,2.07-2.44,3.39-4.25,4.72-1.2.88-2.33,2.12-4.01,2.15-.99.02-2.13-.54-2.79.16-.93-.52-1.94-.63-2.52-1.68-2.33-4.18-.83-6.15,0-9.87,2.17-3.37,4.27-6.92,8.91-7.95,2.78-.61,6.12,1.11,6.76,4.1Z"/>
      <path class="cls-5" d="M8.69,79.81c2.54.31,4.88,2.18,6.36,4.18.72.97,1.19,1.44,2.09,1.87-.41.13-.45.82-.16,1.27,2.31,3.62,4.05,9.58.19,12.53-.4.02-.35.27-.02.33-2,.18-3.73.49-5.77-1-4.18-3.03-8.76-9.74-7.3-15.4.48-1.86,2.48-4.05,4.62-3.78Z"/>
      <path class="cls-4" d="M43.3,89.42c-.83,3.72-2.33,5.69,0,9.87-6.29.04-11.49-.59-17.97-.03-.73-.62-1.75-.4-2.96-.23-1.8-5.45,2.71-5.59,2.65-8.96.68.41,1.58.59,2.34.78,1.19,1.4,3.44,1.44,5.31.93,3.61-.99,7.1-1.9,10.64-2.36Z"/>
      <path class="cls-4" d="M63.84,78.44c.65,2.93,1.48,5.86,1.53,9.1l14.37,1.73c.97,2.07,10.09-1.34,9.19.79l-3.57.24c-9.14.61-11.38-.68-20.15-1.25-.19,2.89-1.6,5.04-2.89,7.32-1.23.41-2.05,1.55-3.3,2.23-2.89,1.57-6.09,1.87-9.29,2.38-1.55.25-2.62.7-3.91-.02.66-.7,1.8-.14,2.79-.16,1.69-.03,2.81-1.27,4.01-2.15,1.81-1.32,3.15-2.65,4.25-4.72,1.3-2.45,2.7-5.53,2.1-8.38,2.46,1.11.97-5.51,1.3-7.13,1.18-.24,2.39-.09,3.57,0Z"/>
      <path class="cls-5" d="M7.93,73.17c-3.85-.28-6.06-7.45-3.1-11.35.45-.59,1.38-.73,1.46-1.46.11,1.79,3.82-.82,4.93,4.33.23,1.05.89,1.62.57,2.96-.29,1.2.22,2.76-.73,4.02-.63.83-2.05,1.59-3.12,1.51Z"/>
      <path class="cls-7" d="M25.01,90.06c.06,3.37-4.45,3.51-2.65,8.96,1.21-.17,2.23-.39,2.96.23l-8.17.73c-.33-.06-.38-.31.02-.33,3.85-2.95,2.12-8.91-.19-12.53-.28-.44-.24-1.14.16-1.27,2.67,1.3,5.32,2.68,7.88,4.2Z"/>
      <path class="cls-1" d="M7.66,50.46l18.27,9.61c-.49.43-.48,1.05-.43,1.82l1.86,28.96c-.76-.19-1.66-.38-2.34-.78-2.55-1.52-5.2-2.9-7.88-4.2-.9-.44-1.37-.9-2.09-1.87-1.48-2-3.82-3.87-6.36-4.18l-.76-6.64c1.08.08,2.5-.68,3.12-1.51.95-1.25.44-2.82.73-4.02.32-1.33-.34-1.91-.57-2.96-1.11-5.15-4.81-2.53-4.93-4.33-.35-5.49-2.99-12.19,1.37-9.9Z"/>
      <path class="cls-8" d="M60.27,78.44c-.33,1.62,1.16,8.24-1.3,7.13-.63-2.99-3.97-4.71-6.76-4.1-4.65,1.02-6.75,4.57-8.91,7.95-3.54.46-7.03,1.37-10.64,2.36-1.86.51-4.12.47-5.31-.93l-1.86-28.96c-.05-.77-.06-1.39.43-1.82,1.9,1,4.08.96,6.66.39l25.15-5.64c.5-.11,1.68-.04,2.14.42l.51,11.14c-1.42-.03-2.48.38-3.43.75-1.68.66-.82,2.16-1.2,2.9-.8,1.55-.9,2.31-.21,4.02,1.45,3.63,1.14,2.52,4.73,4.4ZM48.52,65.67c0-1.04-.84-1.88-1.88-1.88s-1.88.84-1.88,1.88.84,1.88,1.88,1.88,1.88-.84,1.88-1.88ZM48.81,77.39c-.87.34-1.04,1.22-1.84,1l1.05-9.38c-2.06-.17-4.33.75-5.58,2.41.67.33,1.09-.32,1.84-.23-.09,2.86-.77,5.5-1.07,8.29-.06.57.6.97.94,1.1.97.36,5.18-1.07,4.66-3.19Z"/>
      <path class="cls-6" d="M48.81,77.39c.53,2.11-3.69,3.54-4.66,3.19-.34-.13-1-.52-.94-1.1.29-2.79.97-5.43,1.07-8.29-.75-.09-1.17.56-1.84.23,1.24-1.65,3.51-2.57,5.58-2.41l-1.05,9.38c.81.21.98-.66,1.84-1Z"/>
      <circle class="cls-6" cx="46.64" cy="65.67" r="1.88"/>
      <g>
        <g>
          <path class="cls-6" d="M105.26,90.55c-.59,2.41-.82,4.89-.05,7.27l-19.76,1.96c-1.08-2.46-.82-4.68-.34-6.9.12-.06.15-.25.26-.33.66-.55,1.51-.61,2.5-.68l17.39-1.31Z"/>
          <path class="cls-3" d="M85.37,92.55c-.1.08-.14.27-.26.33-1.24.68-1.28,6.58.63,7.22-.65.77-4.18-.25-3.88.57l-9.54-.71c.36-1.3-1.76-.38-2.46-.89-.45-.34.33-.89.29-1.29-.24-2.25-1.09-7.93,1.58-7.57l5.99.82c3.5.48,8.54-.83,7.65,1.53Z"/>
          <path class="cls-8" d="M88.93,90.07l14.84-1.04c.73-.05,1.59-.05,2.21.56.21.2.13.59-.07.72-.18.12-.42.19-.66.25l-17.39,1.31c-1,.08-1.84.13-2.5.68.89-2.36-4.15-1.05-7.65-1.53l-5.99-.82c-2.67-.36-1.82,5.31-1.58,7.57.04.41-.75.96-.29,1.29.7.52,2.82-.41,2.46.89l-6.58-.55c-1.89-.16-3.23-1.3-3.42-3.04,1.29-2.27,2.7-4.43,2.89-7.32,8.76.57,11.01,1.86,20.15,1.25l3.57-.24Z"/>
          <path class="cls-7" d="M103.78,89.02l-14.84,1.04c.9-2.13-8.22,1.28-9.19-.79.58.07,1.19.09,1.77.08s1.43.24,1.77-.35c2.34,0,4.72-.45,7.03-.65l.46-.04c1.11.14,2.43.29,3.35-.42.09-.06.28,0,.38-.03.28.26.69.33,1.2.27,3.88-.47,7.67-.48,11.33-1.22.33.14.82.25.88.53.48,1.99-4.44.65-4.13,1.58Z"/>
          <path class="cls-8" d="M105.21,97.82c.24.1.7.09.83.32.19.31-.15.89-.64.93l-20.69,1.88c-1.12.1-2.05-.22-2.85-.27-.3-.83,3.23.2,3.88-.57-1.91-.63-1.87-6.53-.63-7.22-.48,2.22-.74,4.43.34,6.9l19.76-1.96Z"/>
          <path class="cls-4" d="M83.28,89.01c-.34.59-1.18.34-1.77.35,0-.14.13-.35.29-.35h1.48Z"/>
        </g>
        <g>
          <path class="cls-6" d="M107.29,77.78c-1.11,2.91-1.04,6.13-.26,9.13-3.66.74-7.45.75-11.33,1.22-.51.06-.92,0-1.2-.27,0-1.77-.05-3.54-.45-5.49-1.6-.22-3.05-.02-4.66.31.82,1.89.83,3.78.91,5.67-2.31.2-4.69.65-7.03.65h-1.48c-1.73-2.85-1.59-6.36-.33-9.41.12.01.27-.05.39-.07,3.62-.63,6.75-.25,10.61-1.04l14.82-.7Z"/>
          <path class="cls-7" d="M102.04,75.16c2.08,1.09,8.21.41,5.25,2.62l-14.82.7c-.4-.66-1.16-.44-1.91-.22-.85.25-10.31.13-8.7,1.26-.12.02-.27.09-.39.07l-15.49-1.88c.62-.78,1.61-1.21,2.4-1.81l8.19.52c1.56.1,3.13.42,4.97.29l18.27-1.29c.73-.05,1.67-.56,2.23-.27Z"/>
          <path class="cls-2" d="M65.98,77.72l15.49,1.88c-1.26,3.06-1.39,6.56.33,9.41-.16,0-.28.21-.29.35-.58.02-1.19,0-1.77-.08l-14.37-1.73c-.05-3.25-.88-6.17-1.53-9.1.59-.17,1.42-.81,2.14-.72Z"/>
          <path class="cls-3" d="M94.5,87.86c-.11.04-.3-.03-.38.03-.67-.17-1.04-.86-1.76-1.21-.69.44-1.03,1.16-1.59,1.63l-.46.04c-.09-1.89-.09-3.77-.91-5.67,1.61-.33,3.06-.53,4.66-.31.4,1.95.44,3.72.45,5.49Z"/>
          <path class="cls-3" d="M92.47,78.48c-3.86.79-6.98.41-10.61,1.04-1.61-1.13,7.86-1.01,8.7-1.26.75-.22,1.51-.44,1.91.22Z"/>
          <path class="cls-6" d="M94.11,87.9c-.92.71-2.24.56-3.35.42.56-.47.9-1.18,1.59-1.63.72.35,1.09,1.04,1.76,1.21Z"/>
        </g>
        <g>
          <path class="cls-3" d="M101.58,64.96l-15.47,1.06c-.57.04-1.08.16-1.41.38h-.71c-.31-.58-1.46-.58-1.77,0h-.71s-1.09.16-1.09.16c-.51.08-1.05.32-1.22,1.03-.41,1.74-1.36,8.24,1.97,7.96l19.77-1.67c.23-.02.48.05.72.03.21.11.48.25.52.52.04.26-.04.51-.14.74-.56-.29-1.5.22-2.23.27l-18.27,1.29c-1.84.13-3.41-.19-4.97-.29-3.31-2.17-3.24-8.3-1.41-11.23-2.21-.39-4.09-.32-5.95-.89-.12-.32-.43-.75-.61-1.07l16.45-1.09,16.41,1.31c.49.04.78.69.71.95-.07.22-.35.46-.58.57Z"/>
          <path class="cls-2" d="M101.58,64.96c-1.01,2.84-1.17,6.17.08,8.94-.23.02-.48-.05-.72-.03-1.02-2.27-.94-4.79-.64-7.47-2.79.1-19,1.62-19.74.82-.13-.14-.14-.38-.15-.66l1.09-.16c.83.65,2.31.58,3.18,0,.33-.22.85-.34,1.41-.38l15.47-1.06Z"/>
          <path class="cls-8" d="M76.56,76.42l-8.19-.52c2.41-3.5,2.3-7.68.83-11.61,1.86.58,3.74.51,5.95.89-1.84,2.94-1.91,9.06,1.41,11.23Z"/>
          <path class="cls-6" d="M80.42,66.55c.01.27.02.51.15.66.74.8,16.95-.71,19.74-.82-.3,2.69-.39,5.21.64,7.47l-19.77,1.67c-3.34.28-2.38-6.22-1.97-7.96.17-.71.71-.96,1.22-1.03ZM91.79,72.79c1.24-.35,2.45.41,3.78-.35.5-.89-7.85.25-8.38.31-1.44.16-2.83-.35-3.95.6,1.46.08,7.81-.34,8.56-.55Z"/>
          <path class="cls-6" d="M82.22,66.39h2.47c-.87.57-2.35.65-3.18,0h.71Z"/>
          <path class="cls-2" d="M83.99,66.39h-1.77c.31-.58,1.46-.58,1.77,0Z"/>
          <path class="cls-2" d="M91.79,72.79c-.75.21-7.1.63-8.56.55,1.12-.95,2.51-.44,3.95-.6.53-.06,8.89-1.2,8.38-.31-1.32.77-2.54,0-3.78.35Z"/>
        </g>
      </g>
    </g>
  </g>
</svg>