<?xml version="1.0" encoding="UTF-8"?>
<svg id="Capa_2" data-name="Capa 2" xmlns="http://www.w3.org/2000/svg" viewBox="0 0 108.61 101.49">
  <defs>
    <style>
      .cls-1 {
        fill: #86afdd;
      }

      .cls-2 {
        fill: #4671b8;
      }

      .cls-3 {
        fill: #cdd9eb;
      }

      .cls-4 {
        fill: #3a65b0;
      }

      .cls-5 {
        fill: #92b7e0;
      }

      .cls-6 {
        fill: #365c9b;
      }

      .cls-7 {
        fill: #6f9fd5;
      }

      .cls-8 {
        fill: #97c6ea;
      }

      .cls-9 {
        fill: #ebeef3;
      }

      .cls-10 {
        fill: #6493cd;
      }

      .cls-11 {
        fill: #224487;
      }

      .cls-12 {
        fill: #fcfcfc;
      }

      .cls-13 {
        fill: #2b59a9;
      }

      .cls-14 {
        fill: #0c1017;
      }
    </style>
  </defs>
  <g id="Layer_2" data-name="Layer 2">
    <g>
      <path class="cls-6" d="M103.97,26.94c-.17-5.3-3.76-5.36-3.04-6.39.89-1.27,5.19,4.57,3.8,6.52-.1.15-.76.17-.77-.13Z"/>
      <path class="cls-8" d="M68.98,15.08c2.2,3.79,3.41,8.16,3.69,12.49.31,4.8-.64,9.6-2.94,13.81-.07.12-.07.27-.13.4-.18.08-.28.25-.23.37.07.16.13.27.2.35-.49-.18-.89.41-1.18.84-2.95,4.3-6.14,5.82-10.25,8.18-1.3-.13-2.36.7-3.55.91-7.93,1.41-16.36,1.28-23.93-1.76-4.44-1.79-8.6-5.4-11.45-9.2-3.96-5.29-5.47-22.28.28-28.31.33.2.75.26,1.35.3C26.78,5.21,36.34.73,46.59,1.3c9.5.53,17.71,5.74,22.39,13.78ZM42.45,35.24c.81-2.58.57-5.5-1.02-7.53s-4.6-2.99-6.92-1.54c-3.67,2.29-4.55,7.35-2.07,10.82,1.3,1.82,3.48,2.63,5.62,2.27,1.88-.32,3.67-1.76,4.38-4.01ZM63.59,37c2.12-2.98,1.87-7.29-.55-9.84-1.35-1.42-3.1-1.92-4.89-1.62-4.07.69-6.25,7.32-3.35,11.44,1.08,1.54,2.76,2.34,4.45,2.34,1.59,0,3.21-.74,4.33-2.32ZM47.91,41.35c-1.19-.19-2.3-.91-2.82-2.06-.15-.32-1.18-.28-1.23.02-.05.31-.07,1,.16,1.43,1.33,2.43,4.66,3.06,7.06,1.57.89-.55,1.56-1.69,1.51-2.75-.02-.43-.63-.5-.8-.43-1.18.48-1.1,2.67-3.89,2.22Z"/>
      <path class="cls-8" d="M29.64,50.94c.11.53.82.24,1.28.57,4.45,3.2,9.93,5.26,15.5,4.78,2.08-.18,3.75-1.32,5.61-1.62,2.64.86,1.36,3.34,2.96,3.77-.25,1.26-.25,2.64.36,3.78l.04,7.36c-.16-.05-.35.1-.35.35l-.05,5.98c-.69.43-1.26,1.17-2.01,1.29-.48.08-1.01-.74-1.68-.44s-1.81.7-2.16,1.45c-2.1,4.5-3.24,1.95-3.55,4.23-2.38,1.47-7.43.03-7.83,1.04l-5.67,14.22c-.4,1.01-.33,2.4-1.57,2.9-2.78,1.13-6.46,1.27-9.17-.05-1.62-.79-.54-2.51-.36-3.69l3.02-20.02c.67-4.46,1.44-8.6,2.63-13.01-2.29,1.65-4.33,3.52-5.33,6.15-.4,1.05-.11,2.32-1.02,3.19-.45.43-1.24.02-1.72.08-.62.74-1.25,1.7-2.03,1.79-1.14.13-1.94,0-2.83-.71-1.32-1.05-2.04-2.92-1.73-4.79,1.08-6.48,5.08-12,10.58-15.46,2.3-1.45,4.58-2.56,7.07-3.13Z"/>
      <path class="cls-8" d="M19.49,13.16c-5.76,6.04-4.25,23.02-.28,28.31-3.32,1.86-7.45,1.96-11.03.12C2.77,38.82-.18,33.08,0,27c.17-5.5,2.72-10.59,7.4-13.42,3.8-2.29,8.46-2.63,12.09-.42Z"/>
      <path class="cls-8" d="M78.01,42.8c.62,1,1.79,1.52,3.03,1.82l3.76.92c-.21,2.27-1.83,3.97-3.41,5.76-4.73,5.34-10.93,9.54-17.9,10.5-.17-.24-.55-.5-.83-.35-.25.13-.42.44-.25.66l-.95.02c.23-.73-2.26.08-3.41-.47.23.11-2.41-4.38-2.65-5.06-.7.67-.28,1.26-.39,1.82-1.6-.44-.33-2.91-2.96-3.77.97-.15,2.22-1.48,2.56-2.22,1.19-.21,2.26-1.04,3.55-.91,2.52.26,5.02-.21,7.59-.95,8.7-2.5,9.74-7.07,11.62-7.73.2-.07.45,0,.65-.04Z"/>
      <path class="cls-8" d="M43.22,87.86c1.32-.47,3.98-5.96,2.37-5.43.31-2.28,1.45.27,3.55-4.23.35-.75,1.47-1.14,2.16-1.45s1.2.52,1.68.44c.75-.12,1.32-.86,2.01-1.29l.05-5.98c0-.25.19-.4.35-.35,0,1.35,0,2.73.11,4.23.5,7.28.26,14.45.06,21.75,1.15,1.46,2.79,2.65,2,4.44-.94,2.12-7.72,1.38-9.93.95-.97-.19-1.88-.96-2.09-1.94l-2.31-11.15Z"/>
      <path class="cls-8" d="M79.75,20.17c-1.85,1.73-3.85,4.15-2.8,6.93.88-2.47,1.09-4.71,3.41-5.85l.4,1.3c-.62.83-3.01,5.18-.81,5.01-.05,2.98-.29,7.35-2.54,9.5-.76-.24-1.9.2-2.44.62-1.44,1.11-.72,3.73-1.06,4.2-.65.93-5.09.17-4.31-.1.06-.12.07-.28.13-.4.72.57,3.16-5.16,3.36-5.72.51-1.46.58-8.95-.42-8.09-.28-4.33-1.48-8.7-3.69-12.49,4.33-1.28,8.85,1.04,10.77,5.09Z"/>
      <path class="cls-7" d="M54.59,52.44c-.35.74-1.6,2.07-2.56,2.22-1.86.29-3.54,1.44-5.61,1.62-5.57.48-11.05-1.58-15.5-4.78-.45-.33-1.17-.04-1.28-.57.34-.08.67-.21,1.02-.26,7.57,3.05,16.01,3.17,23.93,1.76Z"/>
      <path class="cls-13" d="M90.63,10.73c-1.41.39-.57-7.96-9.34-9.69-.36-.07-.26-.74-.1-.88.95-.84,8.84,1.76,9.82,9.9.05.37-.17.62-.37.68Z"/>
      <path class="cls-7" d="M43.22,87.86c-.28-1.37-.93-2.74-1.09-4.28-1.66-.19-2.96-.12-4.37-.1.4-1.01,5.45.43,7.83-1.04,1.61-.53-1.05,4.96-2.37,5.43Z"/>
      <path class="cls-7" d="M61.45,62.14c-2.02.05-4.08.36-6.1.07-.61-1.14-.61-2.53-.36-3.78.11-.56-.3-1.15.39-1.82.24.67,2.88,5.16,2.65,5.06,1.15.55,3.64-.25,3.41.47Z"/>
      <path class="cls-13" d="M86.12,12.16c-2.38-6.29-8.23-4.37-5.76-6.29,3.76.03,7.78,5.81,6.46,6.56-.16.09-.56.09-.69-.27Z"/>
      <path class="cls-10" d="M77.41,37.07c-1.32,1.26-2.63,2.66-2.5,4.85-1.67.93-3.57,1.22-5.33.6-.07-.08-.13-.19-.2-.35-.06-.13.05-.3.23-.37-.78.27,3.65,1.03,4.31.1.33-.47-.38-3.09,1.06-4.2.55-.42,1.69-.86,2.44-.62Z"/>
      <path class="cls-11" d="M108.42,38.84c.92,3.71-1.68,7.54-2.49,7.08-.21-.12-.38-.49-.14-.76,3.25-3.58,1.17-6.69,2.18-6.79.14-.01.37.14.45.46Z"/>
      <path class="cls-11" d="M105.62,37.56c1.61,4.31-1.72,8.09-2.29,7.04-.37-.69,2.79-2.38,1.39-6.6-.09-.27.04-.51.16-.64.15-.17.6-.17.74.21Z"/>
      <path class="cls-6" d="M101.56,28.4c-.87-.27.34-3.16-2.56-5.49-.19-.15-.14-.48-.05-.62.14-.19.48-.26.76-.03,2.87,2.41,2.88,6.46,1.85,6.14Z"/>
      <path class="cls-11" d="M80.36,21.26c-2.31,1.14-2.53,3.38-3.41,5.85-1.05-2.78.95-5.2,2.8-6.93.22-.2.79-.14.95-.07.4.18-.27.97-.34,1.15Z"/>
      <path class="cls-13" d="M79.95,27.57c-2.2.16.2-4.18.81-5.01.38-.04.7-.53,1.42-.22-1.18,1.62-2.2,3.3-2.23,5.23Z"/>
      <path class="cls-7" d="M63.48,61.81c-.33.19-.71.3-1.08.31-.16-.22,0-.53.25-.66.28-.14.66.11.83.35Z"/>
      <path class="cls-14" d="M42.45,35.24c-.71,2.25-2.5,3.69-4.38,4.01-2.14.36-4.31-.45-5.62-2.27-2.48-3.46-1.6-8.53,2.07-10.82,2.32-1.45,5.27-.58,6.92,1.54s1.83,4.95,1.02,7.53ZM40.62,29.62c0-1.1-.89-1.99-1.99-1.99s-1.99.89-1.99,1.99.89,1.99,1.99,1.99,1.99-.89,1.99-1.99Z"/>
      <path class="cls-14" d="M63.59,37c-1.13,1.58-2.75,2.32-4.33,2.32-1.69,0-3.37-.8-4.45-2.34-2.91-4.12-.72-10.75,3.35-11.44,1.79-.3,3.54.2,4.89,1.62,2.42,2.55,2.67,6.86.55,9.84ZM62.72,29.6c0-1.07-.87-1.94-1.94-1.94s-1.94.87-1.94,1.94.87,1.94,1.94,1.94,1.94-.87,1.94-1.94Z"/>
      <path class="cls-14" d="M47.91,41.35c2.79.45,2.71-1.74,3.89-2.22.18-.07.79,0,.8.43.04,1.07-.63,2.2-1.51,2.75-2.4,1.49-5.73.87-7.06-1.57-.24-.43-.21-1.12-.16-1.43.04-.29,1.08-.34,1.23-.02.51,1.14,1.62,1.86,2.82,2.06Z"/>
      <path class="cls-10" d="M69.73,41.39c2.3-4.22,3.25-9.02,2.94-13.81,1-.86.93,6.63.42,8.09-.2.56-2.63,6.29-3.36,5.72Z"/>
      <g>
        <path class="cls-2" d="M88.16,21.42c1.18-.31,3.17-.28,4.35.02,2.82.73,5.09,3.1,5.3,6.04l.37,5.3c.13,1.92.81,4.22,2.15,5.66-1.23-.42-2.13-1.43-3.67-1.28.99,1.19,1.82,2.87,3.67,2.93.34.01.19-1.05,0-1.65,1.04,1.12,2.63,2.31,1.65,4.13-6.31-3.34-15.42-3.59-22.29-1.13-.75.27-1.47.75-1.68,1.36-.21.03-.45-.03-.65.04.5-7.6,4.14-1.73,4.9-13.22.26-3.91,2.2-7.22,5.9-8.2ZM97.87,35.98c-1.57-4.47,1.2-8.21-3.23-11.72.62,1.12,1.22,2.11,1.21,3.45l.35,5.82c.07,1.12.54,2.22,1.67,2.46Z"/>
        <path class="cls-11" d="M101.98,42.57c-1.28,2.38-4.31,2.7-7.03,3.03l-2.4-.08c-.03-1.63-1.22-2.66-2.52-2.7-1.61-.04-2.81,1.22-2.63,2.79-.8-.18-1.81.14-2.6-.05l-3.76-.92c-1.24-.31-2.4-.82-3.03-1.82.21-.61.93-1.09,1.68-1.36,6.88-2.47,15.99-2.21,22.29,1.13Z"/>
        <path class="cls-4" d="M94.95,45.6c-.79.1-1.64.46-2.61.32-.55,1.36-1.67,1.77-2.94,1.59-.76-.11-1.89-.93-2-1.91-.18-1.56,1.03-2.83,2.63-2.79,1.31.03,2.49,1.07,2.52,2.7l2.4.08Z"/>
        <path class="cls-13" d="M92.51,21.44c-1.18-.3-3.17-.33-4.35-.02-.43-1.26-.36-2.73.72-3.44,1.19-.79,2.83-.75,3.67.5.64.96.27,2.06-.03,2.97ZM91.44,19.68c0-.57-.46-1.03-1.04-1.03s-1.04.46-1.04,1.03.46,1.03,1.04,1.03,1.04-.46,1.04-1.03Z"/>
        <path class="cls-5" d="M97.87,35.98c-1.13-.24-1.6-1.34-1.67-2.46l-.35-5.82c.02-1.34-.59-2.33-1.21-3.45,4.43,3.51,1.65,7.25,3.23,11.72Z"/>
        <path class="cls-3" d="M100.33,38.44c.19.61.33,1.66,0,1.65-1.85-.06-2.68-1.74-3.67-2.93,1.54-.15,2.44.86,3.67,1.28Z"/>
        <circle class="cls-1" cx="90.41" cy="19.68" r="1.03"/>
      </g>
      <circle class="cls-9" cx="38.63" cy="29.62" r="1.99"/>
      <circle class="cls-9" cx="60.78" cy="29.6" r="1.94"/>
      <g>
        <path class="cls-13" d="M75.83,66.61c.04.98.02,1.76.13,2.64s.76,1.35,1.54,1.33c.59-.01,1.31-.55,1.37-1.39l.18-2.57,17.09-.05c-.08,1.71-.1,4.1,1.68,4s1.09-2.61,1.49-3.95l5.12.02c1.11,0,1.97.69,2.3,1.58-.28-.64-.73,5.9.41,4.74l-.12,1.67h-.24c.1-.15-.11-.31-.39-.31h-38.14s-.03-6.05-.03-6.05c.26-.74.83-1.39,1.67-1.43,1.82-.1,3.72.37,5.47-.21.14-.05.33.02.48-.01Z"/>
        <path class="cls-3" d="M68.89,74.65c-.12.25-.35.57-.35,1.03l.05,21.97c0,1.6,1.06,2.81,2.7,2.81l32.44.02c1.33,0,2.55-1.11,2.54-2.48l-.16-23.34h.66s.24-.02.24-.02l.02,23.7c0,1.96-1.85,3-3.64,3h-32.11c-2.45-.02-3.51-1.8-3.5-4.03l.09-22.65h1.02Z"/>
        <path class="cls-5" d="M79.04,66.62l-.18,2.57c-.06.84-.78,1.38-1.37,1.39-.78.02-1.42-.45-1.54-1.33s-.09-1.66-.13-2.64c.29-1.28-.42-3.65,1.41-3.9.57-.08,1.47.38,1.58,1.21s.3,1.66.22,2.7Z"/>
        <path class="cls-5" d="M99.31,66.62c-.41,1.34.37,3.84-1.49,3.95s-1.76-2.29-1.68-4l.11-2.41c.05-.99.77-1.52,1.57-1.44,1.88.18,1.04,2.75,1.49,3.89Z"/>
        <path class="cls-11" d="M106.77,74.64h-.66s-37.22,0-37.22,0h-1.02l-.03-5.1c0-.59.23-.92.36-1.29l.03,6.05h38.14c.28,0,.49.17.39.33Z"/>
        <path class="cls-11" d="M106.8,68.56c.07.14.21.25.34.34v4.06c-1.14,1.16-.69-5.37-.41-4.74.04.1.02.24.07.34Z"/>
        <path class="cls-5" d="M75.35,66.62c-1.75.58-3.65.12-5.47.21-.71-.51,5.31-.29,5.47-.21Z"/>
        <path class="cls-13" d="M107.13,68.9c-.13-.09-.26-.2-.34-.34.14.03.34.17.34.34Z"/>
        <path class="cls-12" d="M106.12,74.65l.16,23.34c0,1.37-1.21,2.49-2.54,2.48l-32.44-.02c-1.64,0-2.7-1.21-2.7-2.81l-.05-21.97c0-.46.22-.78.35-1.03h37.22ZM78.15,84.2c.11-1.97.21-3.48-.06-5.23-1.77-.22-3.42-.23-5.18.01-.2,1.8-.22,3.42-.02,5.22,1.78.28,3.43.21,5.26-.01ZM86.11,84.27c.12-2.02.25-3.62-.08-5.34-1.8-.1-3.36-.11-5.17,0-.32,1.78-.27,3.53,0,5.35,1.82.19,3.37.19,5.26,0ZM94.08,84.21c.12-1.97.18-3.5-.07-5.23-1.79-.22-3.44-.19-5.25,0-.28,1.78-.24,3.44,0,5.24,1.8.25,3.45.3,5.31-.01ZM96.64,97.51c3.64.33,6.47-3.02,6.14-6.41-.3-3.11-3.2-5.85-6.6-5.36-3.08.45-5.15,3.09-5.09,6,.06,2.82,2.21,5.47,5.54,5.77ZM78.16,92.29c.14-1.95.18-3.47-.06-5.21-1.76-.21-3.42-.27-5.18.02-.21,1.79-.22,3.41,0,5.17,1.78.24,3.4.28,5.24.02ZM86.18,92.21c-.02-2.1.18-3.51-.14-5.2-1.78-.1-3.39-.16-5.18.02-.27,1.83-.28,3.51,0,5.36,1.85.06,3.55.24,5.31-.18Z"/>
        <path class="cls-4" d="M96.64,97.51c-3.33-.3-5.48-2.95-5.54-5.77-.06-2.92,2.01-5.55,5.09-6,3.4-.49,6.3,2.24,6.6,5.36.32,3.39-2.5,6.74-6.14,6.41ZM96.42,94.83l4.09-5.08c.24-.3-.1-.74-.32-.89-.87-.59-3.03,3.11-3.86,3.84-.86-.33-1.56-1.92-2.35-1.52-1.29.65,1.38,2.84,2.44,3.65Z"/>
        <path class="cls-3" d="M94.08,84.21c-1.85.31-3.51.26-5.31.01-.25-1.8-.28-3.46,0-5.24,1.8-.19,3.45-.22,5.25,0,.24,1.73.18,3.26.07,5.23Z"/>
        <path class="cls-3" d="M78.15,84.2c-1.82.23-3.47.29-5.26.01-.2-1.81-.18-3.43.02-5.22,1.76-.24,3.41-.23,5.18-.01.27,1.74.16,3.26.06,5.23Z"/>
        <path class="cls-3" d="M78.16,92.29c-1.84.26-3.46.22-5.24-.02-.23-1.76-.21-3.38,0-5.17,1.76-.29,3.42-.23,5.18-.02.24,1.73.19,3.25.06,5.21Z"/>
        <path class="cls-3" d="M86.18,92.21c-1.77.42-3.46.25-5.31.18-.29-1.85-.28-3.53,0-5.36,1.79-.19,3.4-.12,5.18-.02.32,1.69.11,3.11.14,5.2Z"/>
        <path class="cls-3" d="M86.11,84.27c-1.89.2-3.44.19-5.26,0-.26-1.82-.31-3.56,0-5.35,1.81-.12,3.36-.1,5.17,0,.34,1.72.2,3.32.08,5.34Z"/>
        <path class="cls-9" d="M96.42,94.83c-1.06-.81-3.73-3-2.44-3.65.79-.4,1.49,1.19,2.35,1.52.83-.74,2.99-4.44,3.86-3.84.22.15.56.59.32.89l-4.09,5.08Z"/>
      </g>
    </g>
  </g>
</svg>