<?xml version="1.0" encoding="UTF-8"?>
<svg id="Capa_2" data-name="Capa 2" xmlns="http://www.w3.org/2000/svg" viewBox="0 0 133.01 126.07">
  <defs>
    <style>
      .cls-1, .cls-2 {
        fill: #fff;
      }

      .cls-3, .cls-4 {
        fill: #97c6ea;
      }

      .cls-2 {
        stroke: #231f20;
      }

      .cls-2, .cls-4 {
        stroke-miterlimit: 10;
      }

      .cls-4 {
        stroke: #c9e2f6;
        stroke-width: 2px;
      }
    </style>
  </defs>
  <g id="Layer_1" data-name="Layer 1">
    <g>
      <ellipse class="cls-3" cx="22.48" cy="38.07" rx="22.48" ry="20.86"/>
      <path class="cls-3" d="M43.94,66.05c-5.84,5.84-13.71,17.32-14.69,26.1-.57,5.07,3.23,9.76,8.33,9.63,4.56-.12,10.85-3.19,17.56-15.16l7.19-12.12-18.39-8.45Z"/>
      <path class="cls-3" d="M85.89,66.05c5.84,5.84,13.71,17.32,14.69,26.1.57,5.07-3.23,9.76-8.33,9.63-4.56-.12-10.85-3.19-17.56-15.16l-5.86-9.13,17.06-11.44Z"/>
      <path class="cls-3" d="M50.79,93.23c-.07,29.05.48,32.84,7.11,32.84,9.06,0,5.15-32.84,5.15-32.84"/>
      <path class="cls-3" d="M69.38,93.23c.16,30.22-.91,32.84,7.14,32.84,8.55,0,4.35-32.84,4.35-32.84"/>
      <path class="cls-4" d="M48.38,70.5s-22.58,36.61,18.39,36.7c38.92.08,15.02-35.52,15.02-35.52"/>
      <path class="cls-3" d="M62.7,43.46s1,3.27,3.37,3.27c2.98,0,3.54-3.27,3.54-3.27"/>
      <ellipse class="cls-3" cx="110.53" cy="38.07" rx="22.48" ry="20.86"/>
      <ellipse class="cls-4" cx="66.15" cy="37.33" rx="42.84" ry="36.33"/>
      <g>
        <ellipse class="cls-1" cx="52.74" cy="32.08" rx="3.21" ry="2.95"/>
        <ellipse class="cls-2" cx="82.93" cy="32.79" rx="3.15" ry="3.66"/>
        <path d="M57.19,42.76c-1.89,2.51-4.94,3.56-8.04,2.92-2.74-.57-5.18-2.78-5.96-5.72-.54-2.02-.58-4.14.1-6.12,1.16-3.39,4.2-5.8,7.78-5.75,1.87.03,3.45.8,4.85,1.95,3.53,2.93,3.99,9.1,1.28,12.71ZM54.56,32.79c.31-.74-.07-1.61-.46-2.04-.51-.57-1.24-.81-2.01-.76-.92.07-1.52.64-1.75,1.38-.25.81.08,1.58.78,2.12,1.08.82,2.84.72,3.43-.7Z"/>
        <path d="M89.52,37.01c.06,4.83-3.07,8.75-7.89,8.83-2.3.04-4.41-.75-5.94-2.59-2.92-3.5-2.93-8.8,0-12.33,1.62-1.95,4.08-3.08,6.54-2.81,2.12.24,3.83,1.24,5.17,2.79,1.48,1.72,2.08,3.84,2.11,6.11ZM83.9,33.87c.59-.18,1.12-.68,1.26-1.09.2-.57.1-1.22-.24-1.73-.66-.99-2.13-1.35-3.17-.73-.99.59-1.06,1.94-.34,2.79.57.68,1.54,1.05,2.49.76Z"/>
        <path d="M69.37,50.69c-1.9,2.2-5.3,2.45-7.46.55-1.03-.91-1.46-2.07-1.84-3.38.51-.25.93-.42,1.46-.59.34,1.79,1.33,3.21,3.08,3.61,2.3.55,4.27-1.14,4.44-3.57l1.52.47c-.17,1.04-.49,2.09-1.2,2.91Z"/>
      </g>
    </g>
  </g>
</svg>