<?xml version="1.0" encoding="UTF-8"?>
<svg id="Capa_2" data-name="Capa 2" xmlns="http://www.w3.org/2000/svg" viewBox="0 0 100.72 109.89">
  <defs>
    <style>
      .cls-1 {
        fill: #040306;
      }

      .cls-2 {
        stroke: #fff;
        stroke-miterlimit: 10;
      }

      .cls-2, .cls-3 {
        fill: #97c6ea;
      }

      .cls-4 {
        fill: #86afdd;
      }

      .cls-5 {
        fill: #4671b8;
      }

      .cls-6 {
        fill: #cdd9eb;
      }

      .cls-7 {
        fill: #379d81;
      }

      .cls-8 {
        fill: #92b7e0;
      }

      .cls-9 {
        fill: #fff;
      }

      .cls-10 {
        fill: #6f9fd5;
      }

      .cls-11 {
        fill: #6493cd;
      }

      .cls-12 {
        fill: #224487;
      }
    </style>
  </defs>
  <g id="Layer_2" data-name="Layer 2">
    <g>
      <path class="cls-4" d="M98.18,62.75l.34.03c.02.34-.38.26-.34-.03Z"/>
      <g>
        <path class="cls-5" d="M83.08,16.56V4.15c5.84-.85,10.91-.5,16.6,1.3l-3.52,5.51,3.4,5.84c-7.26.49-9.35-1.91-16.48-.23Z"/>
        <path class="cls-12" d="M83.1,4.15v12.42s-.07,12.29-.07,12.29c1.11.12,2.14.28,2.98.5l-.06.62c-.12.54-6.07.55-6.53.2-.39-.13.08-1.15.45-1.07.41.09.8-.17,1.56-.12l-.14-25.51c0-.87-1.68-1.65-.54-2.74.66-.64,1.65-1.13,2.53-.25,1.45,1.45-.17,2.03-.18,3.67Z"/>
      </g>
      <path class="cls-6" d="M85.94,29.97l.06-.62c3.3-.26,6.67-.14,9.91-.04.25.6-.37,1-.88.98l-9.1-.32Z"/>
      <path class="cls-7" d="M48.82,89.71c-1-.26-2.72,1.23-3.38.74-.11-.08.03-.34.13-.41l.43-.29c.97-.66,2.14-.78,2.83-1.61v1.57Z"/>
      <path class="cls-3" d="M44.15,79.69c-.59,2.4-1.86,5.01-2.5,6.23,0,.02-.46.65-.48.68h0c-1.11,1.47-1.67,3.3-3.43,4.46-1.47.97,2.2,2.16.15,4.71h.02c-.16.07-.31.16-.46.26-.05.03-.13.05-.18.09-.16.05-.33.1-.48.17-.2.02-.38.03-.56.07-.28-.05-.58-.09-.89-.09h-.03c-.25-.09-.52-.16-.81-.19-.35-.14-.71-.24-1.13-.28-.04-.02-.06-.04-.1-.05-.02-.04-.06-.07-.12-.07-.15-.06-.31-.12-.47-.17-1.72-1.04-3.16-2.29-4-4-.76-1.54,2.65-4.69,3.54-9.19.16-.82.22-1.63.21-2.45,0-.74.04-1.48.15-2.22v-.05c.13-.52.32-1.03.48-1.55.18.2.41.4.74.68l1.48,1.18c.19.15.81.61,1.42,1s2.35.83,3.06.91c.93.1,4.4-.12,4.4-.12Z"/>
      <path class="cls-3" d="M44.6,95.9l-3.03-.06c2.7,1.4,2.61,5.92-.26,7.12-.25.15-.52.29-.83.38-.44.24-.96.39-1.55.43-.48.22-1.03.34-1.66.34-.32,0-.62-.03-.89-.09-.28.06-.58.09-.89.09-.53,0-1-.09-1.42-.25-.29,0-.56-.04-.82-.09-.15,0-.29-.03-.42-.05-.03,0-.06,0-.08,0-.02,0-.04,0-.05,0-.61-.08-1.14-.28-1.58-.57-.13-.01-.27-.02-.4-.05v6.81s13.96-.04,13.96-.04l-.06-13.95Z"/>
      <path class="cls-8" d="M52.18,88.43c.07.64.21,1.46-.48,1.71-.83.3-1.66.26-1.62-.78.61-.53,1.44-.88,2.09-.93Z"/>
      <rect class="cls-10" x="67.39" y="77.14" width="13.2" height="32.35"/>
      <path class="cls-3" d="M67.19,59.18c.09-.12,5.19-2.29,3.08-5.2-1.44-1.98.54-1.79-.35-3.1-.86-1.29-3.08,1.18-3.7,1.41-.38.14-1-.11-1.29-.03-.55.15-.37,1.08-.67,1.42l-8.07,4.15c-1.18.09-2.02.23-3.17.3-.72.05-1.77.23-2.17.39-1.03.23-2.14.34-3.16.62-4.79,1.33-9.79,1.25-14.74.84-1.93.54-3.22,2.17-4.68,3.31-2.85,2.23-4.85,5.49-5.82,9.11-.32,1.19.06,2.47.88,3.32.63.66,1.33.81,2.2.8.72,0,1.11-.7,1.84-1.13.29-.17.94.29,1.18.08.3-.27.6-.65.64-1.11.15-1.9,1.66-3.02,2.42-4.56l.33-.33c.66-.63,1.2-1.32,2.21-1.66-1.71,2.2-2.18,4.37-1.93,6.83.12,1.2.97,1.79,1.64,2.3.4.3,2.02,1.73,2.92,2.21.65.35,1.86.82,3.02.86,1.05.04,3.27-.03,4.32-.12,1.01-1.1,2.65-2.24,4.13-2.55.39-.62,1.13-1.2,1.4-1.52,1.92-2.36,3.01-4.34,3.37-7.26.13-1.11-.13-2.41-.19-3.53.48.07.95.07,1.43.04.39-.03.78-.12,1.13-.29l11.79-5.6Z"/>
      <path class="cls-2" d="M15.71,30.25c-.92,2.26-.91,5.55-.91,8.05,0,4.26,1.34,8.4,3.5,11.86-.4-.64,3.62,3.69,3.14,3.89-3.92,3.56-9.75,4.08-14.35,1.07C.32,50.7-1.56,41.45,2.98,34.78c2.92-4.29,7.96-5.97,12.73-4.53Z"/>
      <path class="cls-3" d="M62.41,81.65c-.03,1.99-5.74,3.81-7.29,3.91-1.52.11-2.28-1.89-2.24-3.1l.2-5.18c-2.02.21-4,.1-5.87.48q.56-.47.82-.8c1.91-2.38,3.59-5.1,3.95-8.05,1.48-.06,2.97-.31,4.54-.11,2.55.34,4.24,2.17,4.18,4.75-.05,2-.63,3.89-1.02,5.83.72.68,2.75.53,2.71,2.27Z"/>
      <path class="cls-2" d="M62.27,19.63c3.73-.64,7.58,1.22,9.96,4.38,4.77,6.35,3.98,16.2-2.1,19.91-1.4.92-3.04,1.55-4.72,1.37,3.76-7.38.36-19.43-5.41-25.45.33-.02.58-.05.98-.06.02,0,.03,0,.05,0l1.25-.14Z"/>
      <rect class="cls-10" x="30.7" y="95.9" width="13.9" height="13.99"/>
      <rect class="cls-10" x="48.85" y="85.96" width="13.83" height="23.85"/>
      <rect class="cls-11" x="85.28" y="62.6" width="13.92" height="47.19"/>
      <path class="cls-7" d="M63.37,74.46l9.17-7.49c.62-.51,2.72-2.47,3.25-3.06,2.12-2.38,6.8-8.46,8.55-10.63.95-1.18,8.91-12.51,8.93-13.2l-3.82-2.03,11.27-8.85-.33,14.94-3.46-2.06s-10.19,14.96-13.14,17.9c0,0-2.42,2.75-4.53,4.92-2,2.06-3.99,3.49-4.45,3.85-.95.75-8.89,6.92-8.89,6.92,0,0-1.44.16-2.54-1.22Z"/>
      <path class="cls-3" d="M25.03,55.8c2.37,1.6,5.05,2.7,7.88,3.16,1.05.17,1.96.28,2.5.31,4.22.26,8.46.14,12.54-1.02.82-.23,1.8-.53,2.69-.76.45-.12.89-.28,1.32-.47l2.07-.94c.28-.13.55-.27.82-.43,3.5-2.1,7.89-5.82,10.1-10.12,3.76-7.3.36-19.22-5.41-25.17-7.49-7.72-18.93-9.83-28.86-5.59-7.07,3.02-11.66,8.45-14.45,15.28-.92,2.24-.92,5.5-.92,7.96,0,3.89,1.14,7.68,3.03,10.94.22.38.49.74.77,1.08.37.44.99,1.24,1.61,1.99.75.91,1.69,1.94,2.74,2.71l1.57,1.06Z"/>
      <path class="cls-1" d="M43.32,46.53c2.96-.34,2.51-3.04,3.58-2.63.95.37-.16,3.27-3.25,3.77-2.78.44-4.93-1.89-4.19-2.48.97-.78,1.37,1.62,3.87,1.34Z"/>
      <path class="cls-1" d="M57.73,38.9c-.81,1.81-2.39,2.9-4.27,3.06-1.69.14-3.42-.6-4.6-2.14-1.63-2.12-1.74-5.18-.18-7.42s4.69-2.87,6.95-1.26c2.44,1.74,3.36,4.97,2.11,7.77ZM52.39,33.09c-.31-.84-1.24-1.27-2.08-.97s-1.27,1.24-.97,2.08,1.24,1.27,2.08.97,1.27-1.24.97-2.08Z"/>
      <path class="cls-1" d="M36.19,41.9c-1.38,2.42-4.11,3.18-6.49,1.96-1.83-.94-2.92-2.79-3.1-4.99-.15-1.75.6-3.84,2.2-5.12,1.78-1.42,4.12-1.33,5.89.13,2.3,1.88,3.02,5.34,1.5,8.01ZM31.18,35.38c-.28-.63-.78-.87-1.26-.89-.99-.03-1.81,1.08-1.58,2.14.13.59.49,1.08,1.12,1.22.68.16,1.26-.24,1.58-.71s.46-1.06.14-1.77Z"/>
      <circle class="cls-9" cx="30.07" cy="36.18" r="2.04"/>
      <circle class="cls-9" cx="50.73" cy="34.02" r="1.98"/>
      <rect class="cls-11" x="13.12" y="105.4" width="13.66" height="4.48"/>
    </g>
  </g>
</svg>