<?xml version="1.0" encoding="UTF-8"?>
<svg id="Capa_2" data-name="Capa 2" xmlns="http://www.w3.org/2000/svg" viewBox="0 0 115.72 91.61">
  <defs>
    <style>
      .cls-1 {
        fill: #25305c;
      }

      .cls-2 {
        fill: #db97c2;
      }

      .cls-3 {
        fill: #3a65b0;
      }

      .cls-4 {
        fill: #6f9fd5;
      }

      .cls-5 {
        fill: #97c6ea;
      }

      .cls-6 {
        fill: #ebeef3;
      }

      .cls-7 {
        fill: #fcfcfc;
      }

      .cls-8 {
        fill: #0c1017;
      }
    </style>
  </defs>
  <g id="Layer_2" data-name="Layer 2">
    <g>
      <path class="cls-5" d="M67,58.95c-2.54-2.34-6.09-3.29-9.65-3.34-4.21-.06-7.76,1.53-10.99,3.92-.05-.61.21-1.15.05-1.89-5.33.42-9.78-1.5-13.51-4.83-1.19-1.06-2.38-1.66-2.78-3.43-.27-1.2-.13-2.26.76-3.07.95-.86,2.21-.35,3.39-.19.31-.04.51-.92.81-.97.44-.07,1.01.03,1.25.44l1.28,2.18c.58.98,2.2.66,3.12,1.2.06.43.34.38.3-.03l1.43.11c.4,1.6,2.1,2.07,3.68,2.42,3.39.74,6.65,1.17,10.04,0,5.62,1.5,6.92,0,11.09-2.72,3.03.64,6.31.62,9.14-1.02.83-.81,1.04-2.64,2.56-2.68.38,0,.52.92.87.95,1.03.07,2.01-.61,3.08-.07.59.3,1.29,1.01,1.43,1.82.53,3.04-1.61,4.14-3.53,5.56-3.97,2.95-8.33,4.78-13.6,4.01.08.82.37,1.41-.21,1.58Z"/>
      <path class="cls-4" d="M65.77,48.25c.38.33.97.43,1.48.54-4.17,2.72-5.47,4.22-11.09,2.72-3.39,1.16-6.65.73-10.04,0-1.58-.35-3.28-.82-3.68-2.42,1.56.13,3.12-.16,4.67-.36,2.06-.26,2.81,1.29,3.94,1.56.55.13.93-.63,1.41-.62,4.53.09,9.05.02,13.31-1.4Z"/>
      <path class="cls-6" d="M67,58.95l-.02.21c-6.72-4.43-14.14-3.84-20.7.89,0-.17.1-.34.09-.51,3.23-2.39,6.78-3.98,10.99-3.92,3.56.05,7.1,1.01,9.65,3.34Z"/>
      <path class="cls-5" d="M66.98,59.72c2.1,1.36,3.41,3.36,4.95,5.28.05.51.15.92.35,1.38,1.74,4.04,1.64,8.62-.35,12.52-1.17,2.29-3.35,3.79-5.22,5.21.27,1.47,3.37,6.83.86,7.01-6.35.47-16.2,1.11-22.18-.71.33-2.36,1.54-4.31,2.21-6.35-1.73-1.39-3.62-2.9-4.51-4.8-1.04-2.19-1.54-4.6-1.65-6.88-.13-2.66.73-5.13,1.61-7.46.63-1.69,2.14-2.94,3.24-4.32,6.56-4.65,13.98-5.22,20.7-.87Z"/>
      <path class="cls-5" d="M43.04,64.45c-.87,2.37-1.74,4.88-1.61,7.59.11,2.32.62,4.76,1.65,7-2.5.71-5.1-.12-6.88-2.21-2.51-2.96-2.56-7.25-.12-10.3,1.72-2.15,4.49-2.94,6.95-2.08Z"/>
      <path class="cls-4" d="M40.72,48.99l.3-.03c.04.41-.24.45-.3.03Z"/>
      <path class="cls-5" d="M35.47,20.53c-2.71,7.33-3.28,13.65.83,20.6-3.29,1.28-7.07.82-9.78-1.77-4.72-4.52-4.68-12.18-.08-16.74,2.51-2.49,5.87-3.2,9.03-2.08Z"/>
      <path class="cls-5" d="M75.37,41.26c2.66-4.01,3.41-9.28,2.57-13.98-.42-2.36-.92-4.9-1.98-6.84,2.17-.68,4.43-.37,6.51.87,5.95,3.54,6.77,12.63,2.05,17.68-2.41,2.58-5.96,3.49-9.15,2.26Z"/>
      <path class="cls-5" d="M75.96,20.45c1.07,1.94,1.56,4.47,1.98,6.84.84,4.7.09,9.97-2.57,13.98-2.2,3.33-5.95,5.77-9.6,6.99-4.26,1.42-8.78,1.49-13.31,1.4-.47,0-.85.75-1.41.62-1.13-.27-1.88-1.83-3.94-1.56-4.38-1.37-7.9-4.06-10.81-7.59-4.11-6.95-3.53-13.27-.83-20.6.25-.14.51-.4.69-.74,3.5-6.52,9.73-10.59,17.05-11.45,9.69-1.14,18.16,3.79,22.74,12.12ZM51.02,34.38c1.63.17-.16-3.59-3.48-3.77-3.14-.17-5.02,3.24-4.55,3.81,1.27,1.52,1.53-2.34,4.28-2.31s2.63,2.15,3.75,2.27ZM69.7,34.57c.18,0,.74-.09.7-.41-.24-1.99-2.01-3.24-3.77-3.58-2.86-.54-5.54,2.8-4.69,3.48,1.27,1.01,1.36-2.19,4.26-2.04,2.26.11,2.75,2.52,3.51,2.55ZM54.44,42.98c1.36,1.03,3.68,1.15,4.95-.28,1.72-.87,2.05-3.26,1.55-5.12l-4.2.68c-1.09.18-4.13-1.65-4.35.37-.18,1.69.59,3.35,2.05,4.35Z"/>
      <path class="cls-1" d="M59.39,42.71c-.29-.05-.38-.27-.17-.31.08-.02.55-.44.5-.52-1.17-1.81-4.06-2.01-5.58-.38-.75.81,1.45,1.53.3,1.48-1.46-1-2.23-2.66-2.05-4.35.22-2.02,3.26-.19,4.35-.37l4.2-.68c.5,1.86.17,4.25-1.55,5.12Z"/>
      <path class="cls-8" d="M51.02,34.38c-1.12-.12-.91-2.24-3.75-2.27s-3.01,3.83-4.28,2.31c-.48-.57,1.41-3.98,4.55-3.81,3.31.18,5.1,3.94,3.48,3.77Z"/>
      <path class="cls-8" d="M69.7,34.57c-.75-.03-1.24-2.44-3.51-2.55-2.9-.15-2.99,3.05-4.26,2.04-.85-.68,1.83-4.02,4.69-3.48,1.76.33,3.53,1.58,3.77,3.58.04.32-.52.41-.7.41Z"/>
      <path class="cls-2" d="M59.39,42.71c-1.27,1.43-3.59,1.31-4.95.28,1.15.05-1.05-.68-.3-1.48,1.52-1.63,4.4-1.44,5.58.38.05.08-.42.5-.5.52-.2.04-.11.26.17.31Z"/>
      <path class="cls-5" d="M29.13,55.69l.6,3.79c.07.44-.33.83-.32,1.19,0-.09-.11-.29-.18-.25-.11.06-.25.25-.37.33-.86.59-1.61-.16-2.37-.72-.75,1.64.16,3.09,1.17,4.09-1.46,2.85-4.51,4.45-7.82,5.39,1.75,1.83,3.83,3.21,6.35,3.72,1.5.31,2.47-1.41,3.56-.88.33.16.14.72.29,1.12.24.64,1.21.43,1.58,1.02.66,1.05.65,2.46-.01,3.61-1.85,3.22-8.69,2.28-10.03,1.79-2.18-.8-4.03-2.8-6.03-4.1.21.63.9,1.28,1.38,1.99,2.32,3.43,3.06,2.16,4.33,4.41-.3.86-.06,1.55.62,2.3.48.53.43,1.91-.46,2.04-4.83.72-9.65.57-14.43-.24-1.69-.29-2.72-1.49-2.67-3.2.12-5,1.41-9.74,3.62-14.4C1.72,65.58-1.24,58.61.49,51.9c1.16-4.52,4.47-8.03,8.18-9.61,4.74-2.02,9.73-1.42,13.63,1.3,4.15,2.9,6.09,7.35,6.83,12.1ZM24.91,52.38c-.4-.51-.91-.72-1.48-.64-.45.07-.89.38-1.15,1-1.29,3.09.26,7.12,2.5,6.72,1.6-.29,2.26-4.38.13-7.08Z"/>
      <path class="cls-4" d="M21.58,79.89c0,.77-.07,1.56-.32,2.3-1.27-2.25-2.01-.99-4.33-4.41-.48-.71-1.17-1.36-1.38-1.99,2,1.31,3.85,3.3,6.03,4.1Z"/>
      <path class="cls-8" d="M29.41,60.67c.04,1.39-1.2,2.38-1.75,3.44-1.02-1-1.92-2.45-1.17-4.09.75.57,1.51,1.31,2.37.72.12-.08.26-.27.37-.33.07-.04.18.17.18.25Z"/>
      <path class="cls-1" d="M29.73,59.48l-.6-3.79c.89.13,1.27.95,1.58,1.79.29.78-.27,1.56-.98,2.01Z"/>
      <path class="cls-8" d="M24.91,52.38c2.13,2.7,1.47,6.79-.13,7.08-2.24.4-3.79-3.63-2.5-6.72.26-.62.7-.93,1.15-1,.57-.09,1.08.12,1.48.64ZM24.39,55.28c.69-.31.6-1.08.43-1.57-.12-.35-.56-.96-1.17-.73s-.62,1.05-.45,1.57c.11.35.58,1,1.19.73Z"/>
      <path class="cls-6" d="M24.39,55.28c-.61.28-1.08-.38-1.19-.73-.16-.52-.18-1.33.45-1.57s1.05.37,1.17.73c.17.49.25,1.25-.43,1.57Z"/>
      <path class="cls-1" d="M85.54,56.26c-.5,1.2-.15,2.47-.4,3.72-.73-.43-1.16-1.26-1.05-2.05.12-.85.72-1.4,1.45-1.68Z"/>
      <g>
        <path class="cls-5" d="M93.38,71.74c.14,1.52,3.11-.16,5.91,3.15.48.57,2.18.6,2.3-.22-.03-1.25-1.24-2.19-1.69-3.29-.52-1.25-2.44-.4-4.97-.86.16-.12.22-.26.23-.41.02-.61-4.84-1.05-7.37-4.98.27-1.09,1.79-2.87.74-4.28-1.3,1.4-3.08.12-2.73,1.29-.03-.62-.81-1.44-.66-2.17.25-1.25-.1-2.53.4-3.72.3-.71.28-1.51.44-2.37,1.7-9,10.58-14.74,19.4-12.09,5.75,1.72,9.68,6.82,10.19,12.41.57,6.19-2.38,11.71-7.9,14.67,2.12,4.53,3.4,9.23,3.58,14.21.07,1.79-.92,2.92-2.7,3.26-4.83.92-9.83.81-14.74.17-.52-.07-.92-.53-1.08-.8-.22-.4.8-3.22.29-5.19-3.43.5-9.32.67-10.03-3.85-.24-1.55.8-2.6,2.04-3.09.22-.34-.04-1.15.35-1.3,1.98-.78,2.41,1.96,5.27.68l2.73-1.22ZM92.08,52.74c-.29-.46-.79-.75-1.14-.76s-.8.15-1.08.51c-2.34,2.98-1.45,7.1.23,7.32,2.32.3,3.71-4.37,1.99-7.07Z"/>
        <path class="cls-5" d="M94.93,70.52c2.52.46,4.45-.39,4.97.86.46,1.1,1.66,2.05,1.69,3.29-.12.82-1.82.79-2.3.22-2.8-3.31-5.77-1.64-5.91-3.15.43-.28.8-1.36,1.55-1.22Z"/>
        <path class="cls-5" d="M87.79,65.14c-.61-.95-1.92-1.61-1.99-2.99-.35-1.17,1.43.11,2.73-1.29,1.05,1.41-.47,3.19-.74,4.28Z"/>
        <path class="cls-5" d="M92.08,52.74c1.72,2.7.33,7.37-1.99,7.07-1.68-.22-2.57-4.34-.23-7.32.28-.36.71-.52,1.08-.51s.84.29,1.14.76ZM90.92,55.73c.78-.02.97-.78.95-1.27-.02-.39-.24-1.11-.85-1.11s-.94.72-.94,1.12c0,.45.15,1.28.85,1.26Z"/>
        <path class="cls-5" d="M90.92,55.73c-.7.02-.85-.81-.85-1.26,0-.41.33-1.13.94-1.12s.83.72.85,1.11c.02.49-.17,1.25-.95,1.27Z"/>
      </g>
      <path class="cls-4" d="M95.7,25.37c-1.23.35-4.52,2.43-5.46,1.92-.56-.3.88-3.61.7-4.78-2.5-2.33-4.36-5.2-4.62-8.7-.33-4.39,1.74-8.45,5.41-10.98,5.62-3.89,13.31-3.76,18.79.29,3.4,2.51,5.28,6.21,5.2,10.27-.07,3.94-2.07,7.64-5.49,9.99-4.24,2.91-9.52,3.34-14.53,1.98ZM95.6,24.63c5.36,1.68,11.07.87,15.21-2.61,5.62-4.72,5.68-12.84.14-17.68s-13.85-4.96-19.52-.41c-2.92,2.34-4.48,5.58-4.45,9.16s1.76,6.7,4.57,9.01c.12,1.58-.47,2.96-.76,4.6,1.81-.48,3.09-1.36,4.81-2.07Z"/>
      <path class="cls-7" d="M95.6,24.63c-1.72.71-3,1.59-4.81,2.07.3-1.64.89-3.01.76-4.6-2.81-2.3-4.54-5.56-4.57-9.01s1.53-6.82,4.45-9.16c5.67-4.55,14.05-4.37,19.52.41s5.48,12.96-.14,17.68c-4.14,3.48-9.85,4.28-15.21,2.61ZM107.78,10.81c-.28-1.67-1.53-2.86-3.02-3.2s-3.05.47-4.04,1.94c-1.12-1.73-2.85-2.4-4.56-1.83-1.55.52-2.67,1.98-2.63,3.82.09,3.65,4.51,6.33,7.16,8.67,2.94-2.33,7.78-5.24,7.09-9.4Z"/>
      <path class="cls-3" d="M107.78,10.81c.69,4.16-4.15,7.07-7.09,9.4-2.65-2.34-7.07-5.02-7.16-8.67-.04-1.84,1.08-3.3,2.63-3.82,1.71-.57,3.44.1,4.56,1.83.99-1.47,2.48-2.29,4.04-1.94s2.74,1.53,3.02,3.2Z"/>
      <circle class="cls-5" cx="73.51" cy="71.25" r="7.14"/>
    </g>
  </g>
</svg>