<?xml version="1.0" encoding="UTF-8"?>
<svg id="Capa_2" data-name="Capa 2" xmlns="http://www.w3.org/2000/svg" viewBox="0 0 101.05 87.92">
  <defs>
    <style>
      .cls-1 {
        fill: #8ba2b6;
      }

      .cls-2 {
        fill: #526474;
      }

      .cls-3 {
        fill: #637e92;
      }

      .cls-4 {
        fill: #2a2a2b;
      }

      .cls-5 {
        fill: #e8ecef;
      }

      .cls-6 {
        fill: #97c6ea;
      }

      .cls-7 {
        fill: #232424;
      }

      .cls-8 {
        fill: #657078;
      }
    </style>
  </defs>
  <g id="Layer_1" data-name="Layer 1">
    <g>
      <path class="cls-2" d="M73.95,54.74c-1.19-.5-3.7-.52-3.8-1.03-.24-1.32,3.53-.33,3.8,1.03Z"/>
      <path class="cls-6" d="M74.7,45.54c5.94-6.16,8.22-14.02,6.69-22.03-.43-3.09-1.71-5.76-3.08-8.68,8.05-1.67,15.72,2.74,18.66,10.24,2.39,6.11.62,13-3.96,17.41-4.74,4.56-11.81,5.94-18.31,3.05Z"/>
      <path class="cls-6" d="M22.59,45.15c-8.92,3.85-19.27-1.37-21.92-10.45-1.64-5.61-.21-11.39,3.56-15.48s9.41-6.04,15.23-4.74c-3.87,6.45-4.81,13.63-2.89,20.72.81,3.81,3.06,6.74,6.02,9.94Z"/>
      <path class="cls-6" d="M58.92,52.94c-9.24,2.02-18.96,1.19-27.72-2.79-5.06-3-9.69-6.77-12.25-12.36-2.78-6.08-2.73-13.09-.15-19.22C25.83,1.91,46.2-3.94,62.26,2.64c7.41,3.04,13.4,8.62,16.45,16.02,4.4,10.68,1.01,22.26-8.45,28.94-3.31,2.34-7.19,4.43-11.35,5.34ZM47.81,30.45c.12-2.4-.48-4.35-2.07-5.73-1.47-1.28-3.59-1.98-5.65-1.29-3.07,1.02-4.58,4.01-4.42,7.17.18,3.46,2.75,6.1,6.1,6.12s5.86-2.68,6.04-6.27ZM70.35,34.95c1.34-2.33,1.39-5.19.15-7.41-1.1-1.97-3.05-3.02-5.09-3.03s-3.98,1.04-5.12,2.97c-1.02,1.72-1.17,3.74-.75,5.7.54,2.49,2.47,4.26,4.67,4.62,2.45.4,4.85-.59,6.15-2.85ZM52.88,40.94c-2.71-.38-2.3-2.83-3.25-2.7-.4.05-.57.42-.47.86.42,1.84,1.97,2.89,3.65,3.03s3.36-.78,4-2.53c.15-.42,0-.79-.33-.91-1.08-.4-.9,2.63-3.6,2.25Z"/>
      <path class="cls-4" d="M52.88,40.94c2.7.38,2.52-2.65,3.6-2.25.32.12.48.49.33.91-.64,1.75-2.26,2.67-4,2.53s-3.23-1.19-3.65-3.03c-.1-.44.07-.81.47-.86.95-.13.54,2.32,3.25,2.7Z"/>
      <g>
        <path class="cls-7" d="M70.35,34.95c-1.3,2.25-3.7,3.25-6.15,2.85-2.19-.36-4.13-2.13-4.67-4.62-.42-1.96-.27-3.98.75-5.7,1.14-1.93,3.02-2.98,5.12-2.97s3.99,1.06,5.09,3.03c1.24,2.22,1.19,5.07-.15,7.41ZM68.93,27.81c0-.89-.72-1.62-1.62-1.62s-1.62.72-1.62,1.62.72,1.62,1.62,1.62,1.62-.72,1.62-1.62Z"/>
        <circle class="cls-5" cx="67.32" cy="27.81" r="1.62"/>
      </g>
      <g>
        <path class="cls-4" d="M47.81,30.45c-.18,3.59-2.78,6.28-6.04,6.27s-5.92-2.66-6.1-6.12c-.16-3.16,1.35-6.15,4.42-7.17,2.07-.69,4.18.02,5.65,1.29,1.58,1.38,2.19,3.32,2.07,5.73ZM45.33,26.55c0-.88-.71-1.6-1.6-1.6s-1.6.71-1.6,1.6.71,1.6,1.6,1.6,1.6-.71,1.6-1.6Z"/>
        <circle class="cls-5" cx="43.73" cy="26.55" r="1.6"/>
      </g>
      <path class="cls-6" d="M49.5,71.48c-2.32,3.02-6.09,4.8-10.02,4.49-.61-.47-.7-1.2-1.54-1.32.6,1.83,1.1,3.49,1.17,5.39.12,3.27-2.12,5.86-5.42,6.22-1.89.21-3.74-.28-5.66-.49-2.44-.27-4.92-.52-7.05-1.81-1.19-.72-1.43-2.34-1.1-3.7.73-3.04,5.2-3.68,7.33-2.84.56.22,1.34,1.42,1.79.43l-3.99-5.43c-5.33-7.86,1.08-15.59,6.26-21.09,7.63,2.85,15.51,4.39,23.86,3.09-.09,2.73-.42,5.08-1.21,7.56-2.13-1.29-4.26-1.85-6.55-2.44-5.88-1.51-7.34-5.81-8.29-4.36-.12.18-.12.54.14.82,2.3,2.59,5.38,4.14,8.74,5.05,2.81.76,7.07,2.01,6.39,5.55-1.09,5.63-13.89,3.56-20.33-6.32-.21-.32-.71-.4-.88-.23s-.28.57-.08.9c3.62,6.11,9.72,9.24,16.46,10.51Z"/>
      <path class="cls-5" d="M58.92,52.94l.02.92c-.78.07-1.44.11-2.44.53l-.46,6.19c-.44,1.07-1.74,1.21-1.53,2.21.05.24.49.29.61.51.88,1.62.95,3.34.28,5.04-2.04,2.63-3.38,2.1-5.23,2.98-.16.08-.5.19-.68.15-6.74-1.27-12.84-4.4-16.46-10.51-.2-.33-.08-.73.08-.9s.67-.09.88.23c6.44,9.88,19.25,11.95,20.33,6.32.68-3.54-3.58-4.79-6.39-5.55-3.36-.9-6.44-2.46-8.74-5.05-.26-.29-.26-.64-.14-.82.95-1.46,2.41,2.85,8.29,4.36,2.29.59,4.42,1.16,6.55,2.44.79-2.48,1.12-4.83,1.21-7.56-8.34,1.3-16.22-.25-23.86-3.09l-.06-1.19c8.77,3.99,18.48,4.81,27.72,2.79Z"/>
      <path class="cls-6" d="M46.15,84.98c-2.49.46-4.84.19-7.06-.39,1.6-2.28,1.58-4.56,1.14-7.16,3.23-.21,6.08-1.18,8.59-3.11,1.06,1.84,1.52,3.81,1.44,5.87-.08,2.33-1.61,4.32-4.12,4.79Z"/>
      <path class="cls-2" d="M50.39,74.04c-.02-.4.23-1-.17-1.26.17-.46.07-1-.04-1.45,1.84-.88,3.19-.35,5.23-2.98-.29.73-.45,1.6-1.16,2.19-.6.51-1.96.16-2.4.76-.7.93-.27,2.5-.16,3.48.99.48,2.2.1,2.94.81s1.25,2.32,1.21,3.31c-.03.9-1.46,1.46-1.37,2.41.11,1.1,1.45,1.89,2.26,2.53,1.14-.28,1.73-1.56,2.85-1.65.9.2,2.35.69,2.99,1.35.74.76.26,2.11.84,2.99,1.08.34,2.27.36,3.41.1.64-.85.1-2.2.84-3.06.59-.69,2.23-1.26,3.19-1.3,1.08.01,1.61,1.27,2.61,1.53,1-.55,1.9-1.54,2.56-2.55-.21-1.05-1.5-1.47-1.57-2.56s.55-2.55,1.2-3.31l2.67-.89c-.69-1.23-2.9-2.16-1.77-3.58.21.23.65.19.91.26.06,1.15,1.31,1.84,2.2,2.62.94-.19,1.35-1.26,2.31-1.31s2.17.64,2.95,1.18.2,2.12.95,2.69c.81.62,2.21.29,3.08.11.4-.9.03-2.01.59-2.75.72-.61,2.28-1.7,3.03-1.26l2.3,1.32c.65.37,2.11-1.32,2.2-2.2s-1.18-1.23-1.26-2.05c-.1-1.02.36-2.67,1.13-3.32s2-.14,2.8-.68c.2-1.02.22-2.07.01-3.08-.86-.58-2.23-.09-2.92-.85-.55-.6-1.03-1.88-1.13-2.68-.13-.96,1.32-1.6,1.33-2.6s-1.34-1.8-2.16-2.24l-2.09,1.6c-1.08-.28-2.95-.56-3.24-1.53l-.74-2.51c-.18-.61-2.32-.55-2.93-.09l-1,2.79c-.24.67-1.81,1.09-2.66,1.21-1.05.14-1.59-1.33-2.63-1.35-.78-.01-2.33,1.51-2.02,2.09l1.3,2.46c.38.72-.62,2.16-1.15,2.92-.67.68-1.9.19-2.69.74-.42,1.17-.31,2.33-.12,3.36-.23.21-.5.38-.8.47-.09-.28-.49-.49-.49-1.01,0-1.19.15-2.29-.09-3.43l-2.66,1.78c-.99-.61-2.31-.75-3.15-1.47-.76-.66-.26-2.35-1.06-2.89-.88-.59-2.29-.25-3.27-.15-.67.92-.16,2.26-.95,3.06-.65.65-2.34,1.67-3.04,1.27l-2.66-1.51c-.72.35-1.1,1.03-1.63,1.39-.12-.22-.56-.28-.61-.51-.21-1,1.09-1.14,1.53-2.21,1.92-.39,3.08,2.05,4.69,1.34,1.84-.81.8-3.57,1.91-3.93,1.47-.48,3.2-.35,4.7.06s-.16,2.65,2.69,3.81c1.77.72,2.52-2.26,4.59-1.06.93.54,2.08.43,2.7-.66,1.3-2.25-2.05-3.13-.89-4.51.76-.9,1.61-2.11,2.7-2.58.94-.41,1.85.71,2.51,1.12.79.5,1.49-.12,1.97-.34,1.39-.63.45-3.32,1.64-3.46,1.34-.15,2.93-.36,4.21.13.77.3.57,1.56.74,2.29.22.94,1.57,1.84,2.46,1.51.95-.36,1.43-1.32,2.49-1.5,1.28.7,2.46,1.83,3.25,3.12.65,1.07-2.03,1.91-1.27,3.92s3.34.84,3.62,1.96c.34,1.36.43,3.05.03,4.37-2.01,1.7-2.82-.5-3.74,2.44-.4,1.27,2.18,2.65,1.29,3.58s-1.75,2.07-2.83,2.76c-1.57,1-1.74-2.31-4.45-.86-1.3.7-.58,3.3-1.7,3.48-1.35.21-2.77.23-4.12,0s.17-3-2.31-3.83c-1.97-.66-2.08,2.32-5.76,2.46-.99.04-1.14,1.17-1.41,1.93-.4,1.1,2.45,2.67,1.23,3.91-.94.96-1.81,2.25-2.99,2.9-1.05.58-1.92-.71-2.73-1.22-.87-.55-2.36.17-2.8,1.05-.39.78.1,2.3-.76,2.75-1.36.71-3.3.33-4.83.17-1.36-.14-.34-3.03-1.8-3.63-.57-.23-1.31-.86-2.1-.27-.59.44-1.52,1.69-2.41,1.29-1.37-.62-2.53-2.07-3.41-3.28-.85-1.17,2.1-2.08,1.13-4.43-.7-1.7-2.46-.65-3.6-1.82-.43-.44-.08-1.09-.29-1.5Z"/>
      <path class="cls-1" d="M77.48,71.17c.59-.51.99-1.22,1.53-1.96-.24-1.08-.57-2.08-1.15-3.04-1.03-.32-1.99-.42-2.93-.4-.19-1.04-.29-2.2.12-3.36.79-.54,2.03-.06,2.69-.74.53-.76,1.53-2.21,1.15-2.92l-1.3-2.46c-.31-.58,1.24-2.1,2.02-2.09,1.04.02,1.58,1.49,2.63,1.35.84-.12,2.42-.53,2.66-1.21l1-2.79c.61-.46,2.75-.52,2.93.09l.74,2.51c.29.97,2.16,1.25,3.24,1.53l2.09-1.6c.82.44,2.17,1.2,2.16,2.24s-1.46,1.64-1.33,2.6c.11.8.58,2.08,1.13,2.68.7.76,2.06.27,2.92.85.21,1.01.19,2.05-.01,3.08-.81.53-2.02.02-2.8.68s-1.23,2.3-1.13,3.32c.08.81,1.35,1.15,1.26,2.05s-1.55,2.57-2.2,2.2l-2.3-1.32c-.75-.43-2.32.65-3.03,1.26-.56.73-.19,1.85-.59,2.75-.88.18-2.28.51-3.08-.11-.75-.57-.18-2.16-.95-2.69s-2-1.23-2.95-1.18-1.37,1.12-2.31,1.31c-.89-.78-2.14-1.47-2.2-2.62ZM87.89,69.87c-.46.04-.68.48-.53.81.58,1.25,7.19-.95,6.93-6.9-.29-6.65-7.91-7.56-7.64-6.28.2.95,5.08,0,6.43,5.04.97,3.61-1.48,7.04-5.19,7.32ZM85.68,57.82c-.05-.74-1.73.05-1.82.39-.08.28.3.48.49.52.44.08,1.37-.38,1.33-.9ZM92.1,64c0-2.64-2.14-4.77-4.78-4.77s-4.78,2.14-4.78,4.77,2.14,4.77,4.78,4.77,4.78-2.14,4.78-4.77ZM86.22,69.91c-8.71-4.14-2.58-9.22-4.75-9.09-.7.04-2.04,3.6.1,7.09.95,1.54,2.83,2.82,5,2.91.26.01.44-.53.29-.6l-.63-.3Z"/>
      <path class="cls-8" d="M77.48,71.17c-.27-.07-.71-.03-.91-.26-.26-.29-.78-.47-1.02-.89-.71-1.25-1.03-2.55-1.41-3.79.3-.1.57-.26.8-.47.94-.02,1.9.08,2.93.4.58.96.91,1.96,1.15,3.04-.55.74-.94,1.45-1.53,1.96ZM77.38,69.53c.59-.84.05-1.47-.19-1.96-.26-.51-.83-.62-1.54-.58.21.92.32,2.26,1.73,2.53Z"/>
      <path class="cls-2" d="M92.1,64c0,2.64-2.14,4.77-4.78,4.77s-4.78-2.14-4.78-4.77,2.14-4.77,4.78-4.77,4.78,2.14,4.78,4.77ZM91.05,63.98c0-2.05-1.66-3.7-3.7-3.7s-3.7,1.66-3.7,3.7,1.66,3.7,3.7,3.7,3.7-1.66,3.7-3.7Z"/>
      <path class="cls-3" d="M87.89,69.87c3.71-.29,6.16-3.71,5.19-7.32-1.36-5.04-6.23-4.09-6.43-5.04-.27-1.27,7.35-.37,7.64,6.28.26,5.94-6.36,8.15-6.93,6.9-.15-.33.08-.78.53-.81Z"/>
      <path class="cls-3" d="M86.22,69.91l.63.3c.15.07-.03.61-.29.6-2.17-.09-4.05-1.36-5-2.91-2.14-3.49-.8-7.05-.1-7.09,2.17-.13-3.96,4.95,4.75,9.09Z"/>
      <path class="cls-3" d="M85.68,57.82c.04.52-.89.98-1.33.9-.2-.04-.57-.24-.49-.52.09-.34,1.77-1.12,1.82-.39Z"/>
      <path class="cls-6" d="M58.94,53.86c2.8,1.92,6.37,2.08,9.73,2.31.31.82.89,1.51,1.59,2.3l.89-1.09c1.66.28,2.84,1.22,3.54,2.57-.06.28-.08.56-.07.84-2.07-1.2-2.82,1.77-4.59,1.06-2.85-1.15-1.23-3.41-2.69-3.81s-3.24-.53-4.7-.06c-1.11.36-.07,3.12-1.91,3.93-1.61.71-2.77-1.73-4.69-1.34l.46-6.19c1-.42,1.65-.46,2.44-.53Z"/>
      <path class="cls-8" d="M74.7,59.95c-.7-1.34-1.88-2.29-3.54-2.57l-.89,1.09c-.7-.8-1.28-1.48-1.59-2.3.64-.47,1.65-.85,2.55-1.01-.27,1.72,3.66,1.08,4.26,4.43.06.33-.63.38-.8.36Z"/>
      <path class="cls-1" d="M74.14,66.24c.38,1.24.7,2.54,1.41,3.79.24.41.76.6,1.02.89-1.13,1.42,1.08,2.35,1.77,3.58l-2.67.89c-.65.76-1.27,2.27-1.2,3.31.07,1.09,1.36,1.51,1.57,2.56-.66,1-1.56,1.99-2.56,2.55-1.01-.26-1.53-1.52-2.61-1.53-.96.05-2.59.61-3.19,1.3-.74.86-.19,2.21-.84,3.06-1.14.26-2.32.24-3.41-.1-.58-.88-.11-2.23-.84-2.99-.64-.66-2.09-1.15-2.99-1.35-1.13.09-1.71,1.37-2.85,1.65-.81-.64-2.15-1.43-2.26-2.53-.1-.96,1.33-1.51,1.37-2.41.04-.99-.47-2.6-1.21-3.31s-1.96-.34-2.94-.81c-.11-.98-.54-2.55.16-3.48.45-.6,1.8-.25,2.4-.76.71-.6.87-1.46,1.16-2.19.67-1.7.6-3.42-.28-5.04.53-.36.91-1.04,1.63-1.39l2.66,1.51c.7.4,2.39-.62,3.04-1.27.8-.8.29-2.14.95-3.06.98-.1,2.4-.44,3.27.15.8.54.3,2.23,1.06,2.89.84.72,2.17.86,3.15,1.47l2.66-1.78c.24,1.13.1,2.24.09,3.43,0,.52.4.73.49,1.01ZM64.9,81.19c2.67-.02,5.12-1.11,6.71-3.24,3.14-4.22,1.58-10.18-1.6-11.26-.01-.22-.09-.59-.39-.79-2.85-1.89-6.33-1.94-9.16-.06-2.59,1.72-4.05,4.76-3.61,8.14.56,4.22,3.96,7.24,8.05,7.2Z"/>
      <path class="cls-3" d="M70.01,66.69c3.18,1.08,4.74,7.04,1.6,11.26-1.59,2.13-4.04,3.21-6.71,3.24.06-.22.1-.5-.02-.65-.42-.55-6.75-.68-7.05-7.44-.12-2.7,1.08-5.05,3.15-6.4,3.16-2.07,5.59-1.17,9.02,0ZM69.36,72.82c0-2.37-1.92-4.29-4.29-4.29s-4.29,1.92-4.29,4.29,1.92,4.29,4.29,4.29,4.29-1.92,4.29-4.29Z"/>
      <path class="cls-2" d="M70.01,66.69c-3.43-1.16-5.86-2.06-9.02,0-2.07,1.36-3.28,3.71-3.15,6.4.3,6.76,6.63,6.89,7.05,7.44.11.15.08.43.02.65-4.08.04-7.49-2.98-8.05-7.2-.45-3.38,1.02-6.42,3.61-8.14,2.83-1.88,6.31-1.83,9.16.06.3.2.37.56.39.79Z"/>
      <path class="cls-2" d="M69.36,72.82c0,2.37-1.92,4.29-4.29,4.29s-4.29-1.92-4.29-4.29,1.92-4.29,4.29-4.29,4.29,1.92,4.29,4.29ZM68.23,72.83c0-1.73-1.41-3.14-3.14-3.14s-3.14,1.4-3.14,3.14,1.41,3.14,3.14,3.14,3.14-1.4,3.14-3.14Z"/>
    </g>
  </g>
</svg>