<?xml version="1.0" encoding="UTF-8"?>
<svg id="Capa_2" data-name="Capa 2" xmlns="http://www.w3.org/2000/svg" viewBox="0 0 100.01 112.23">
  <defs>
    <style>
      .cls-1 {
        fill: #25305c;
      }

      .cls-2 {
        fill: #4671b8;
      }

      .cls-3 {
        fill: #cdd9eb;
      }

      .cls-4 {
        fill: #3a65b0;
      }

      .cls-5 {
        fill: #97c6ea;
      }

      .cls-6 {
        fill: #ebeef3;
      }

      .cls-7 {
        fill: #6493cd;
      }

      .cls-8 {
        fill: #273763;
      }

      .cls-9 {
        fill: #2b59a9;
      }

      .cls-10 {
        fill: #0c1017;
      }
    </style>
  </defs>
  <g id="Layer_2" data-name="Layer 2">
    <g>
      <path class="cls-5" d="M91.28,63.26c-2.54-1.71-5.08-3.71-5.97-6.51.29-1.59.64-6.62,2.55-6.94.52-.09,1.07.19,1.32.73l.73,1.59c1.32-1.33,3.05-4.45,4.97-3.89.55.16.27,1.17.82,1.58.35.26,1.27-.25,1.71-.11.61.2.36.99.73,1.53.41.6,1.55.66,1.28,1.41l-.6,1.69c-.03.39,1.1.52,1.16.95.3,2.35-2.45,3.23-3.4,4.34-1.5,1.74-3.01,3.57-5.3,3.64Z"/>
      <path class="cls-7" d="M41.79,59.23c-.24-.15-.33-.42-.36-.69.13-.02.26-.07.39-.09l-.03.77Z"/>
      <path class="cls-5" d="M55.47,58.29c.01.19.06.43,0,.61.08-.3.33-.54.68-.72-.23.03-.46.07-.68.11Z"/>
      <path class="cls-5" d="M77.27,16.29c.54-.47,1.52-.88.87-1.74-1.44-1.91-1.59-.18-2.38-1.09-3.58-4.08-7.15-7.87-12.36-10.19C57.09.47,50.41-.77,43.42.49c-10.15,1.82-18.63,8.07-24.05,16.74-3.29,5.27-3.83,12.76-3.69,18.62.1,4.06,1.82,6.97,3.69,10.08.46.75,1.12,1.35,1.15,2.13,3.98,3.88,8.42,7.01,13.78,8.75.33.11.71.21.86.55.69-.59,1.37.22,2.03.35,1.41.26,2.94.17,4.24.83.12-.01.26-.07.39-.08.11,0,.25-.08.35-.07l-.12-4.51c0-.18,0-.37.01-.58l.12,4.95c4.35,1.09,8.88.77,13.3.04.22-.04.44-.08.68-.11,0,0,0-.01.01-.01.22-.12.48-.22.77-.32,1.08-.3,2.47-.39,3.17-.48.39-.47,1.06-.75,1.73-.86.35-.06.84-.15,1.16-.24.26-.4.71-.46,1.12-.65,5.36-2.53,10.53-6.47,13.48-11.82,3.25-5.89,4.23-20.68-.32-27.51ZM38.95,41.38c-1.6,1.71-3.65,2.25-5.67,1.87-1.73-.35-3.4-1.38-4.47-3.25-1.67-2.96-1.41-6.79.73-9.48,1.96-2.46,5.54-3.4,8.2-1.47,3.88,2.82,4.51,8.78,1.2,12.33ZM65.29,40.29c-1.3,1.78-3.11,2.61-5.06,2.64-.71,0-1.42-.12-2.12-.39-1.15-.43-2.21-1.22-2.99-2.35-.17-.24-.32-.48-.44-.73-1.53-2.81-1.31-6.4.47-9.1,1.44-2.14,3.91-3.14,6.25-2.7,2.47.47,4.29,2.21,5.09,4.78.82,2.6.5,5.49-1.2,7.84Z"/>
      <path class="cls-5" d="M19.37,17.23c-3.3,5.27-3.84,12.76-3.7,18.62.1,4.08,1.84,6.98,3.7,10.08.45.75,1.12,1.35,1.14,2.13-4.06,2.25-8.97,1.92-13.03-.69C2.18,43.95-.34,38,.04,31.67c.34-5.71,2.98-10.9,7.93-13.76,3.59-2.08,7.81-2.36,11.4-.68Z"/>
      <path class="cls-5" d="M77.59,43.81c3.25-5.9,4.24-20.68-.31-27.52.54-.46,1.52-.87.87-1.74-1.43-1.91-1.58-.18-2.37-1.08,5.35-3,11.86-1.87,16.18,2.91,5.58,6.18,5.96,15.73,1.17,22.61-3.55,5.11-9.94,6.92-15.53,4.82Z"/>
      <path class="cls-5" d="M58.11,42.55c-1.15-.43-2.21-1.22-2.99-2.35-.17-.24-.32-.48-.44-.73.46-.17.94-.35,1.41-.12,1.24,1.19,1.84,2.24,2.02,3.21Z"/>
      <path class="cls-5" d="M56.95,58.03c-.26.06-.53.1-.79.14.22-.12.48-.22.77-.32.01.06.01.12.01.18Z"/>
      <path class="cls-10" d="M65.28,40.29c-1.3,1.79-3.1,2.62-5.06,2.64s-3.85-.94-5.1-2.74c-2-2.88-1.92-6.89.04-9.82,1.43-2.14,3.91-3.13,6.24-2.69,2.48.47,4.28,2.2,5.09,4.78s.5,5.49-1.21,7.83ZM64.21,32.15c0-1.2-.97-2.17-2.17-2.17s-2.17.97-2.17,2.17.97,2.17,2.17,2.17,2.17-.97,2.17-2.17Z"/>
      <path class="cls-10" d="M38.95,41.38c-1.61,1.73-3.65,2.27-5.66,1.87-1.73-.34-3.41-1.38-4.47-3.25-1.67-2.95-1.41-6.79.73-9.48,1.96-2.45,5.54-3.4,8.2-1.47,3.88,2.82,4.5,8.78,1.2,12.33ZM38.46,32.63c0-1.21-.98-2.19-2.19-2.19s-2.19.98-2.19,2.19.98,2.19,2.19,2.19,2.19-.98,2.19-2.19Z"/>
      <circle class="cls-6" cx="62.04" cy="32.15" r="2.17"/>
      <circle class="cls-6" cx="36.27" cy="32.63" r="2.19"/>
      <path class="cls-6" d="M61.32,64.86c-.04.21.06.61.13.81-.55.4-.27,1.2-.21,1.79-.16.56.23,1.46-.51,1.9-.43.26-1.16.4-1.76.58l.69-1.46c.24-.52-.11-1.57-.66-1.74-.1-.38-.55-.89-.31-1.2.19-.24,2.66-1.09,2.63-.67Z"/>
      <path class="cls-6" d="M62.99,56.27l11.19,4.9c4.49,1.97,4.32.43,8.6-2.15.63-.38,1.1-.82.97-1.47.11-.05.28.01.4-.02.52,1.2,4.98,9.23,6.69,7.41.25.15.48.37.53.63.16.81-5.06,5.93-7.03,7.13-4.13,2.51-8.6,3.25-13.11,2.3-.23-2.96-.58-5.96-1.5-9.05-.4,3.11.42,5.93.67,9.03l1.89,23.92c-2.01,1.81-8.55,2.12-8.26,3.22-3.52.63-7.16.91-10.9.66-.58-1.53.27-6.86-.47-7.06.06-1.04-.06-2.17-.07-3.22v-6.41c0-.25-.09-.45-.28-.39-.05-3.63-.26-7.28-.06-11.1.19-3.52,1.34-6.72,1.77-10l1.46-5.69c.32-1.24,3.46-1.39,4.63-1.54.67,1.64,1.05,3.33,1.15,5.08.19,2.27-2.03,1.14-3.63,2.65-.04.63.83,1.46,1.38,1.63.6,2.3-7.56,7.27-6.16,10.22.89-1.82,2.08-3.17,3.53-4.63.43-.43.61-1.48,1.27-.96-1.42,1.38-1.76,7.13-1.6,8.74.09.88,1.06,1.37,1.66,1.29.74-.1,1.29-.58,1.57-1.26.74-1.81-3-.14-.43-7.05.47-1.27,1.73-1.9,2.84-1.88,1.03.02,2.3.38,2.79,1.57.79,1.92.92,4.6-.2,6.34-.4.62-1.5.54-1.33,1.46.13.68.39,1.29.98,1.46.46.14,1.77.13,1.95-.58,1.06-4.13,2.01-9.84-2.66-12.1.18-5.49.51-8.05-1.39-12.83.34-.06.85-.15,1.15-.24ZM68.98,92.48c-.06-2.78-.03-5.52-.55-8.3l-10.52.74c0,2.43,0,8.61,1.14,9.87.93,1.04,10,.98,9.93-2.31Z"/>
      <path class="cls-6" d="M41.43,58.55c.03.27.13.54.36.69-.07,1.91.68,3.83,1.12,5.72l.05.66.35,1.12c.23,2.37,1.02,4.76,1.03,7.15l.05,11.83c.03,5.73-.04,11.28-.42,17.08-4.11.21-7.76-.82-11.48-1h-.29c.71-.87-4.71-1.63-5.78-2.58-.68-1.41,1.44-8.9-.03-7.76.02-.1-.05-.21-.05-.31l9.33-.19c.59-.01.86-.62,1.04-.98.28-.58.06-1.28-.22-1.82-1.6-3.13-2.89-6.23-4.36-9.24h3.6c1.86,0,2.98-1.78,3.51-3.17.61-1.6.19-3.24-.35-4.67,1.48.72,3.09,4.65,4.84,6.41,1.55-3.12-3.23-5.67-5.47-9.76-.47-.85.66-1.68,1.07-2.53-.92-.65-2.04-1.16-3.23-1.28.04,1.21,1.44.96,2.1,1.62-1.42,3.58-.53,1.99.07,4.75-.82-.33-1.68-.89-2.56-1.07-1.25-2.45-.09-9.06,1.49-11.52,1.41.26,2.94.16,4.24.84ZM39.36,88.41l-.27-4.94c-1.51-.11-2.88-.62-4.54,0,1.28.93,2.59.53,3.96.84.28,1.66.02,3.23.13,4.95.29-.05.75-.35.72-.85Z"/>
      <path class="cls-5" d="M45.06,86.41l6.7.1c.35,1.56-.24,2.99.32,4.58.15-1.8.24-3.6.21-5.39.19-.06.27.14.27.39v6.41c-.6-.89-.37,7.97-.19,7.87.38-1.74.18-3.21.27-4.65.74.19-.11,5.52.47,7.06,3.75.26,7.38-.03,10.9-.66.26-.02.55-.04.8.09s.34.43.37.69l-.75,3.14c-.13-.57-.38-.98-.2-1.85.32-1.55-10.16,1.63-12.05-.05.2,1.54.76,2.5.04,3.72l-1.72-9.66c-1.06-.47-2.35-.38-3.63-.17l-1.81,9.08-.61-2.33c-4.28-1.19-7.63-.46-11.07-1.31-.1.84-.07,1.29-.47,1.91-.2-1.19-.61-2.37-.41-3.58,3.72.18,7.37,1.2,11.48,1,.38-5.81.45-11.36.42-17.08l-.05-11.83h.36v12.18c0,.33.24.34.36.34Z"/>
      <path class="cls-5" d="M45.04,107.11c-.06,1.39-.16,3.47-1.43,3.98-2.98,1.2-12.48,2.15-12.84-.92-.3-2.61,2.67-2.91,2.13-4.78.39-.61.36-1.07.47-1.91,3.45.85,6.79.11,11.07,1.31l.61,2.33Z"/>
      <path class="cls-5" d="M64.42,106.04c.43,1.86,2.32,2.32,1.6,4.35-.94,2.62-9.41,2-12.49.81-1.33-.51-1.17-2.3-1.32-3.34.72-1.22.16-2.18-.04-3.72,1.89,1.68,12.37-1.5,12.05.05-.18.87.07,1.28.2,1.85Z"/>
      <path class="cls-6" d="M35.15,57.36c-1.77,3.6-2.21,7.54-2.12,11.53-.17,1.86-2.95.57-2.99,5.78-.45-.91-1.58-2.63-1.78-3.62.47-.52,1.8-3.59.4-3.21-.76.21-.64,1.33-1.09,1.73-.92-1.45-2.1-4.59-3.27-6.04.19.04.69.09.89-.13,2.68-2.85,5.91-4.65,9.1-6.58.33.11.7.2.86.54Z"/>
      <path class="cls-3" d="M71.21,74.99l1.91,24.48c-2.47,2.08-7.53,1.66-7.95,3.42-.03-.26-.12-.56-.37-.69s-.54-.11-.8-.09c-.29-1.1,6.25-1.41,8.26-3.22l-1.89-23.92c-.24-3.1-1.07-5.93-.67-9.03.92,3.09,1.27,6.09,1.5,9.05Z"/>
      <path class="cls-3" d="M83.74,57.54c.13.65-.34,1.09-.97,1.47-4.28,2.59-4.11,4.12-8.6,2.15l-11.19-4.9c.27-.4.72-.45,1.12-.64l11.43,5.38c2.74,1.29,4.94-1.85,8.21-3.46Z"/>
      <path class="cls-5" d="M85.32,56.74c.89,2.8,3.43,4.8,5.97,6.51,0,.59-.24,1.13-.45,1.67-1.71,1.82-6.17-6.21-6.69-7.41.31-.37.71-.63,1.17-.78Z"/>
      <path class="cls-3" d="M32.2,101.8c-2.24-.11-4.4-1.03-6.71-1.99.1-2.92.47-5.63.9-8.33,1.47-1.15-.64,6.35.03,7.76,1.07.95,6.49,1.71,5.78,2.57Z"/>
      <path class="cls-8" d="M16.8,63.16c1.34,1.26,5.69.41,6.89.8.08.03,4.68,9.95,5.25,11.13l6.5,13.46c.44.9.83,1.6.23,2.42l-9.33.19c-.7.01-10.29-.02-10.29-.42l12.55-.22-12.5-.2c-.25.08-.55.17-.4.37-1.3-1.05-1.79-2.78-2.46-4.3,1.32-.69,3.07-1.91,3.01-3.54-.04-.98-.73-1.77-.56-2.91.2-1.36-1.08-2.41-2.38-2.49-.03-.56.48-1.16.15-1.66-1.68-2.49-4.78-.18-6.02-.83-1.1-3.38-2.88-6.47-4.35-9.87-.33-.76-.1-2.03.84-2.02l12.86.09Z"/>
      <path class="cls-5" d="M13.24,86.4c-.66.35-2.39-.04-3.05-.36-3.87-1.84-5.98-7.99-2.75-11.08,1.24.65,4.34-1.66,6.02.83.33.49-.18,1.1-.15,1.66,1.3.08,2.58,1.13,2.38,2.49-.17,1.14.52,1.93.56,2.91.06,1.64-1.7,2.86-3.01,3.54Z"/>
      <path class="cls-1" d="M24.31,63.53c1.17,1.45,2.34,4.6,3.27,6.04.22.35.61,1.08.69,1.48.2.99,1.33,2.71,1.78,3.62l2.08,4.27c1.47,3.01,2.76,6.11,4.36,9.24.28.54.5,1.25.22,1.82-.18.36-.45.97-1.04.98.59-.83.2-1.52-.23-2.42l-6.5-13.46c-.57-1.18-5.17-11.1-5.25-11.13-1.19-.39-5.54.46-6.89-.8,2.04.01,5.68-.07,7.51.36Z"/>
      <path class="cls-1" d="M16.05,90.74c-.12,0-.24-.05-.35-.05-.15-.2.15-.29.4-.37l12.5.2-12.55.22Z"/>
      <path class="cls-1" d="M57.65,71.36c.26-.52,1.07-.89,1.32-1.42.6-.18,1.33-.32,1.76-.58.74-.44.35-1.34.51-1.9s.45-1.12.21-1.79c-.07-.2-.18-.6-.13-.81.17-.83-.02-1.62-.07-2.41-.11-1.75-.49-3.44-1.15-5.08.39-.48,1.06-.75,1.73-.86,1.89,4.78,1.57,7.34,1.39,12.83,4.67,2.26,3.72,7.97,2.66,12.1-.18.71-1.48.72-1.95.58-.59-.18-.86-.79-.98-1.46-.17-.93.93-.84,1.33-1.46,1.12-1.74.99-4.42.2-6.34-.49-1.19-1.76-1.55-2.79-1.57-1.11-.02-2.37.61-2.84,1.88-2.57,6.9,1.17,5.24.43,7.05-.28.69-.83,1.16-1.57,1.26-.61.08-1.58-.41-1.66-1.29-.16-1.61.18-7.36,1.6-8.74Z"/>
      <path class="cls-4" d="M55.47,58.21c0,.22.06.49,0,.7l-1.46,5.69c.19-1.46-.15-3.26.77-5.02-10.42,5.22-7.08-1.15-10.71,1.23-.36.23-.98.19-1.07.5-.55,1.83.89,2.86-.08,3.65-.44-1.89-1.19-3.82-1.12-5.72l.03-.77c.1-.01.24-.09.34-.07,4.36.97,8.91.56,13.31-.18Z"/>
      <path class="cls-1" d="M37.19,57.71c-1.58,2.47-2.73,9.07-1.49,11.52-.05.11-.09.23-.1.36-.02.2.16.29.52.57-.33.25-.75-.02-1.11.16-.33.08-.67.12-1.01.08-.69.05-.94-.89-.96-1.52-.09-3.99.35-7.93,2.12-11.53.69-.58,1.37.23,2.03.35Z"/>
      <path class="cls-2" d="M54.01,64.6c-.43,3.28-1.58,6.48-1.77,10-.21,3.82,0,7.47.06,11.1.02,1.79-.07,3.59-.21,5.39-.56-1.58.03-3.02-.32-4.58l-6.7-.1v-12.82c-.34-.11-.41.15-.36.31h-.36c-.01-2.39-.8-4.79-1.03-7.15.18-.18.32-.39.33-.58.02-.37-.32-.77-.68-.54l-.05-.66c.97-.79-.47-1.82.08-3.65.09-.31.72-.27,1.07-.5,3.63-2.37.29,3.99,10.71-1.23-.92,1.76-.58,3.56-.77,5.02Z"/>
      <path class="cls-3" d="M68.98,92.48c.07,3.29-8.99,3.35-9.93,2.31-1.13-1.26-1.13-7.43-1.14-9.87l10.52-.74c.52,2.77.49,5.52.55,8.3ZM67.93,93.32c1.06-2.52-.13-5.57.09-8.32l-9.38.95c.29,2.82-.23,5.58.66,8.08.51,1.42,8.03.73,8.63-.71Z"/>
      <path class="cls-3" d="M61.32,64.86c.03-.41-2.44.43-2.63.67-.24.31.21.83.31,1.2-.56-.17-1.42-1.01-1.38-1.63,1.61-1.52,3.83-.38,3.63-2.65.05.79.24,1.58.07,2.41Z"/>
      <path class="cls-3" d="M58.97,69.94c-.25.53-1.06.9-1.32,1.42-.66-.51-.84.53-1.27.96-1.45,1.46-2.64,2.81-3.53,4.63-1.41-2.94,6.75-7.91,6.16-10.22.55.17.9,1.22.66,1.74l-.69,1.46Z"/>
      <path class="cls-2" d="M52.64,95.71c-.09,1.45.11,2.91-.27,4.65-.18.1-.41-8.76.2-7.87,0,1.05.13,2.17.07,3.22Z"/>
      <path class="cls-2" d="M33.99,70.41c-1.16.82-2.49,1.55-2.69,2.77-.28,1.73.07,3.4,1.58,4.23,2.06,1.13,4.49.03,5.14-2.03.72-2.26-.4-4.59-3.02-5.05.36-.18.78.08,1.11-.16-.36-.28-.54-.37-.52-.57.01-.13.05-.25.1-.36.88.18,1.74.74,2.56,1.07.07.3.37.63.62.79.54,1.43.96,3.07.35,4.67-.53,1.39-1.65,3.17-3.51,3.17h-3.6s-2.08-4.26-2.08-4.26c.04-5.21,2.82-3.92,2.99-5.78.01.63.27,1.57.96,1.52Z"/>
      <path class="cls-3" d="M38.88,71.09c-.25-.16-.55-.49-.62-.79-.6-2.76-1.49-1.17-.07-4.75-.66-.66-2.05-.41-2.1-1.62,1.2.12,2.31.63,3.23,1.28-.42.85-1.54,1.68-1.07,2.53,2.25,4.09,7.02,6.64,5.47,9.76-1.75-1.76-3.36-5.69-4.84-6.41Z"/>
      <path class="cls-3" d="M39.36,88.41c.03.5-.43.8-.72.85-.11-1.72.15-3.29-.13-4.95-1.37-.31-2.68.08-3.96-.84,1.66-.62,3.03-.11,4.54,0l.27,4.94Z"/>
      <path class="cls-4" d="M43.31,66.74l-.35-1.12c.36-.23.7.17.68.54-.01.19-.15.4-.33.58Z"/>
      <path class="cls-9" d="M45.06,86.41c-.11,0-.37-.01-.37-.34v-12.18c-.04-.15.03-.42.37-.31v12.82Z"/>
      <path class="cls-3" d="M28.27,71.05c-.08-.4-.47-1.13-.69-1.48.44-.4.32-1.52,1.09-1.73,1.4-.38.08,2.69-.4,3.21Z"/>
      <path class="cls-3" d="M61.25,67.46c-.05-.58-.34-1.39.21-1.79.24.67-.04,1.2-.21,1.79Z"/>
      <path class="cls-6" d="M35.01,70.32c2.62.46,3.73,2.8,3.02,5.05-.65,2.06-3.08,3.16-5.14,2.03-1.51-.83-1.86-2.5-1.58-4.23.2-1.22,1.52-1.95,2.69-2.77.34.03.68,0,1.01-.08ZM35.71,73.97c0-.71-.57-1.28-1.28-1.28s-1.28.57-1.28,1.28.57,1.28,1.28,1.28,1.28-.57,1.28-1.28Z"/>
      <path class="cls-6" d="M67.93,93.32c-.61,1.44-8.13,2.13-8.63.71-.89-2.5-.37-5.26-.66-8.08l9.38-.95c-.22,2.76.97,5.81-.09,8.32Z"/>
      <circle class="cls-8" cx="34.43" cy="73.97" r="1.28"/>
      <path class="cls-10" d="M50.78,44.53c.42-.44.77-.56,1.18-.45.35.1.6.53.42,1.04-.63,1.73-2.86,2.66-4.93,2.62-2.22-.04-4.41-1.11-5.03-2.94-.18-.54.11-.97.46-1.07.75-.21,1.07.19,1.47.7,1.37,1.75,4.83,1.81,6.44.1Z"/>
    </g>
  </g>
</svg>