<?xml version="1.0" encoding="UTF-8"?>
<svg id="Capa_2" data-name="Capa 2" xmlns="http://www.w3.org/2000/svg" viewBox="0 0 123.28 115.24">
  <defs>
    <style>
      .cls-1 {
        fill: #0e1317;
      }

      .cls-2 {
        fill: #9ac5e4;
      }

      .cls-3 {
        fill: #d49e9f;
      }

      .cls-4 {
        fill: #e7e6e5;
      }

      .cls-5 {
        fill: #9bc5e4;
      }

      .cls-6 {
        fill: #9cc6e5;
      }
    </style>
  </defs>
  <g id="Layer_1" data-name="Layer 1">
    <g>
      <path class="cls-5" d="M73.97,95.05c-8.52,3.04-23.3,3.04-30.3-3.24-7.17-6.43-2.88-19.64,1.4-27.23,10.02,3.57,20.37,3.38,30.47.78,1.4-.36,2.8.2,4.37-.52,4.32-2.01,8.06-4.61,11.67-7.79,1.83-1.61,4.53-2.67,6.88-1.77,3.68,1.42,4.6,5.79,2.51,8.97-4.04,6.16-12.78,9.93-19.78,11.88,1.71,7.89,1.16,15.92-7.22,18.91Z"/>
      <path class="cls-5" d="M40.84,90.57c-2.29,1.87-5.06,2.45-7.82,1.85-4.39-.94-6.7-5.36-5.7-9.88,1.73-7.85,6.18-14.79,11.47-20.88l4.91,2.49c-3.79,7.13-7.89,18.7-2.85,26.42Z"/>
      <path class="cls-5" d="M59.2,98.21c-.08,4.64.28,17.43-6.48,16.99-2.14-.14-3.82-1.52-4.42-3.95-1.27-5.11-1.22-10.31-1.11-15.54,4.2,1.72,7.82,2.27,12.01,2.5Z"/>
      <path class="cls-6" d="M75.88,95.83c-.12,5.53,1.39,19.91-6.43,19.39-6.84-.45-4.83-11.25-5.08-16.89,3.99-.4,7.76-.92,11.52-2.5Z"/>
      <g>
        <path class="cls-6" d="M95.17,51.86c8.14-10.23,8.64-25.65.92-36.52,8.84-2.83,18.52.36,23.82,7.86,4.86,6.88,4.36,15.5-.78,22.08-5.72,6.71-14.79,9.6-23.96,6.57Z"/>
        <path class="cls-6" d="M27.41,51.95c-7.21,2.64-15.3.7-20.92-4.27C1.9,43.61-.5,38.01.09,31.85,1.27,19.5,14.58,11.71,26.67,15.1c-7.82,11.1-7.81,25.36.74,36.84Z"/>
        <g>
          <path class="cls-2" d="M94.17,50.83c-8.13,10.3-20.22,15.17-33.08,15.11-11.87-.05-22.91-4.31-30.89-12.97-11.37-12.35-10.23-30.93,2.17-42.17C40.62,3.31,51.15-.26,62.47.02c11.68.29,22.47,4.62,30.25,13.38,5.63,6.35,8.58,14.81,7.34,23.19-.78,5.29-2.5,9.95-5.89,14.25ZM54.35,33.08c.12-4.82-3.74-8.22-7.97-7.97s-7.53,4.15-7.03,8.66c.47,4.24,3.91,7.26,7.88,7.04,3.87-.21,7.01-3.27,7.12-7.73ZM83.37,32.95c0-4.29-3.48-7.77-7.77-7.77s-7.77,3.48-7.77,7.77,3.48,7.77,7.77,7.77,7.77-3.48,7.77-7.77ZM67.73,45.16c1.59-4.47-3.98-1.99-11.62-2.69-.59-.05-1.15.29-1.36.55-1.09,1.38.98,6.39,6.11,6.64,3,.14,5.72-1.26,6.87-4.5Z"/>
          <path class="cls-1" d="M83.37,32.95c0,4.29-3.48,7.77-7.77,7.77s-7.77-3.48-7.77-7.77,3.48-7.77,7.77-7.77,7.77,3.48,7.77,7.77ZM80.7,29.6c0-1.19-.96-2.15-2.15-2.15s-2.15.96-2.15,2.15.96,2.15,2.15,2.15,2.15-.96,2.15-2.15Z"/>
          <path class="cls-1" d="M54.35,33.08c-.11,4.47-3.25,7.52-7.12,7.73-3.97.22-7.41-2.81-7.88-7.04-.5-4.5,2.72-8.39,7.03-8.66s8.08,3.15,7.97,7.97ZM52.01,29.63c0-1.2-.97-2.16-2.16-2.16s-2.16.97-2.16,2.16.97,2.16,2.16,2.16,2.16-.97,2.16-2.16Z"/>
          <path class="cls-1" d="M67.73,45.16c-1.15,3.24-3.87,4.65-6.87,4.5-5.13-.25-7.2-5.25-6.11-6.64.21-.26.77-.61,1.36-.55,7.64.71,13.21-1.78,11.62,2.69ZM64.79,47.22c-2.3-1.88-5.27-1.87-7.28-.05,2.12,1.66,5.16,2,7.28.05Z"/>
          <circle class="cls-4" cx="78.55" cy="29.6" r="2.15"/>
          <circle class="cls-4" cx="49.84" cy="29.63" r="2.16"/>
          <path class="cls-3" d="M64.79,47.22c-2.12,1.96-5.17,1.62-7.28-.05,2.01-1.82,4.98-1.84,7.28.05Z"/>
        </g>
      </g>
    </g>
  </g>
</svg>