<svg id="Componente_38_1" data-name="Componente 38 – 1" xmlns="http://www.w3.org/2000/svg" width="48.644" height="42.108" viewBox="0 0 48.644 42.108">
  <rect id="Rectángulo_360" data-name="Rectángulo 360" width="42.108" height="42.108" rx="6.107" transform="translate(3.157)" fill="#508bbf"/>
  <path id="Trazado_128" data-name="Trazado 128" d="M-502.955,43.556s-.547,6.765-7.462,7.332a6.572,6.572,0,0,1-4.856-1.258,14.024,14.024,0,0,1-7.107,4.1,16.816,16.816,0,0,1-6.149.787,15.782,15.782,0,0,1-5.608-1.2,15.861,15.861,0,0,1-7.175-5.513s-6.136,1.594-9.138-3.536c0,0-2.463-4.487.055-8.646a8.371,8.371,0,0,1,7.024-4,7.59,7.59,0,0,1,3.837.65s2.538-4.624,11.552-4.692c9.07-.076,12.613,5.314,13.516,6.525a7.517,7.517,0,0,1,7.565.752A9.148,9.148,0,0,1-502.955,43.556Z" transform="translate(551.529 -19.917)" fill="#96c7f2"/>
  <path id="Trazado_129" data-name="Trazado 129" d="M-541.5,48.077a14.935,14.935,0,0,1,1.917-16.228" transform="translate(551.734 -19.917)" fill="none" stroke="#508bbf" stroke-width="0.25"/>
  <path id="Trazado_130" data-name="Trazado 130" d="M-515.157,50.073a16.042,16.042,0,0,0,.807-16.4" transform="translate(551.25 -19.893)" fill="none" stroke="#508bbf" stroke-width="0.25"/>
  <ellipse id="Elipse_75" data-name="Elipse 75" cx="2.795" cy="2.852" rx="2.795" ry="2.852" transform="translate(13.94 18.444)"/>
  <ellipse id="Elipse_76" data-name="Elipse 76" cx="2.795" cy="2.852" rx="2.795" ry="2.852" transform="translate(25.414 19.126)"/>
  <circle id="Elipse_77" data-name="Elipse 77" cx="0.754" cy="0.754" r="0.754" transform="translate(16.854 19.063)" fill="#fff"/>
  <circle id="Elipse_78" data-name="Elipse 78" cx="0.754" cy="0.754" r="0.754" transform="translate(28.109 19.612)" fill="#fff"/>
  <path id="Trazado_131" data-name="Trazado 131" d="M-531.166,44.285a1.755,1.755,0,0,0,1.473,1.505c1.3.143,1.712-1.322,1.712-1.322" transform="translate(551.529 -19.917)" fill="none" stroke="#000" stroke-width="0.5"/>
</svg>
