<svg id="Componente_36_1" data-name="Componente 36 – 1" xmlns="http://www.w3.org/2000/svg" width="79.522" height="72.701" viewBox="0 0 79.522 72.701">
  <path id="Trazado_112" data-name="Trazado 112" d="M196.454,174.242a12.36,12.36,0,0,1-3.53,1.66,20.893,20.893,0,0,1-11.483.037c-4.282-1.212-7.325-4.173-6.857-8.88a16.7,16.7,0,0,1,2.992-7.4,33.738,33.738,0,0,0,19.174.132,12.41,12.41,0,0,1,1.222,2.039C200,165.9,200.856,171.322,196.454,174.242Z" transform="translate(-147.739 -115.986)" fill="#96c7f2"/>
  <path id="Trazado_113" data-name="Trazado 113" d="M163.941,150.134l.582.715c.316.333.308.486.705.806l.561.675.736.807a12.184,12.184,0,0,1-3.377.837,13.182,13.182,0,0,1-12.988-6.3,12.52,12.52,0,0,1-1.81-5.566,12.884,12.884,0,0,1,15.63-13.68l-1.146,2.138a16.938,16.938,0,0,0-1.4,3.981,20.263,20.263,0,0,0,0,9.7l.067.36c.224.992.194.883.224.992a8.07,8.07,0,0,0,1.012,2.577A10.14,10.14,0,0,0,163.941,150.134Z" transform="translate(-147.739 -115.986)" fill="#96c7f2"/>
  <path id="Trazado_114" data-name="Trazado 114" d="M208.606,152.606a18.842,18.842,0,0,0,1.731-2.058,18.069,18.069,0,0,0,1.266-2.265,6.141,6.141,0,0,0,.357-.689,20.262,20.262,0,0,0-1.163-18.765,12.946,12.946,0,0,1,12.6,4.081,12.814,12.814,0,0,1,3.267,9.506,13.013,13.013,0,0,1-13.346,12.138,13.387,13.387,0,0,1-5.365-1.2Z" transform="translate(-147.739 -115.986)" fill="#96c7f2"/>
  <path id="Trazado_115" data-name="Trazado 115" d="M189.9,144.774a3.078,3.078,0,0,1-.629,1.516,2.767,2.767,0,0,1-3.9.284,3.4,3.4,0,0,1-.959-1.76,4.555,4.555,0,0,1,.759-.308,2.194,2.194,0,0,0,1.6,1.887,1.908,1.908,0,0,0,2.323-1.872Z" transform="translate(-147.739 -115.986)"/>
  <path id="Trazado_116" data-name="Trazado 116" d="M181,138.41a1.155,1.155,0,0,1-1.793.368,1,1,0,0,1,.505-1.827,1.254,1.254,0,0,1,1.05.395A1.086,1.086,0,0,1,181,138.41Z" transform="translate(-147.739 -115.986)" fill="#fff"/>
  <path id="Trazado_117" data-name="Trazado 117" d="M196.319,138.975a1.238,1.238,0,0,1-1.3-.4.964.964,0,0,1,.178-1.456,1.274,1.274,0,0,1,1.657.382,1.043,1.043,0,0,1,.124.9A1.08,1.08,0,0,1,196.319,138.975Z" transform="translate(-147.739 -115.986)" fill="#fff"/>
  <path id="Trazado_118" data-name="Trazado 118" d="M184.785,177.013a15.858,15.858,0,0,1-7.155-2.391,41.4,41.4,0,0,0-.127,8.162,8.276,8.276,0,0,0,.731,2.746,4.122,4.122,0,0,0,4.5,2.336,3.1,3.1,0,0,0,2.61-2.2,10.181,10.181,0,0,0,.45-3.082l0-5.471h-.1a3.726,3.726,0,0,1-.9-.1Z" transform="translate(-147.739 -115.986)" fill="#96c7f2"/>
  <path id="Trazado_119" data-name="Trazado 119" d="M194.285,176.05a20.038,20.038,0,0,1-6,1.225l.059,5.438c.02,1.9.355,4.434,2.3,5.14a4.252,4.252,0,0,0,3.62-.327c1.79-1.064,2.369-3.278,2.487-5.241a45.6,45.6,0,0,0-.151-7.436,7.679,7.679,0,0,0-.707.413,4.235,4.235,0,0,1-.549.3Z" transform="translate(-147.739 -115.986)" fill="#96c7f2"/>
  <path id="Trazado_120" data-name="Trazado 120" d="M175.234,172.386l.325.459a5.722,5.722,0,0,1-4.894-.1,3.723,3.723,0,0,1-2.1-3.334c.029-2.9,3.209-6.573,5.312-8.358l2.2-1.87.893.313-.482.84-.719,1.181c-1.562,2.986-2.605,7.007-.955,10.151" transform="translate(-147.739 -115.986)" fill="#96c7f2"/>
  <path id="Trazado_121" data-name="Trazado 121" d="M199.581,171.367c1.5-3.661-.024-8.506-2.24-11.711l1.027-.412c2.732,2.06,6.569,5.821,7.354,9.212a3.8,3.8,0,0,1-2.1,4.345,5.87,5.87,0,0,1-4.828.054m.356-12.122-.555-.509a.491.491,0,0,0-.259-.049c-.054.007-.153.159-.128.2C198.349,160.626,198.823,161.045,199.154,160.733Z" transform="translate(-147.739 -115.986)" fill="#96c7f2"/>
  <path id="Trazado_122" data-name="Trazado 122" d="M199.154,160.733c-.331.312-.805-.107-.942-.355-.025-.044.074-.2.128-.2a.491.491,0,0,1,.259.049Z" transform="translate(-147.739 -115.986)" fill="#87c6ec"/>
  <path id="Trazado_123" data-name="Trazado 123" d="M211.129,130.687a24.291,24.291,0,0,0-9.284-10.117,28.673,28.673,0,0,0-23.448-2.589,24.423,24.423,0,0,0-15.633,14.293,20.124,20.124,0,0,0-.773,11.675,17.347,17.347,0,0,0,3.709,7.31,23.538,23.538,0,0,0,10.068,7.172,32.837,32.837,0,0,0,25.254-.893c6.695-3.224,11.794-9.562,12.071-17.18A20.1,20.1,0,0,0,211.129,130.687Z" transform="translate(-147.739 -115.986)" fill="#96c7f2"/>
  <path id="Trazado_124" data-name="Trazado 124" d="M186.356,177.309l0,5.794a9.84,9.84,0,0,1-.438,2.833,3.626,3.626,0,0,1-1.746,2.241,4.832,4.832,0,0,1-4.5-.1c-2.064-1.105-2.634-3.565-2.8-5.719a44.343,44.343,0,0,1,.194-7.9l-1.193-1.122a6.2,6.2,0,0,1-5.417-.038,4.364,4.364,0,0,1-2.378-4.847c.631-3.213,3.749-6.559,6.246-8.578l1.121-.9a25.272,25.272,0,0,1-8.466-5.393,13.894,13.894,0,0,1-18.635-8.462,12.929,12.929,0,0,1-.611-3.9A13.4,13.4,0,0,1,164.3,127.906a25.265,25.265,0,0,1,11.981-9.814c12.165-4.856,27.118-1.258,34.22,10.2a13.563,13.563,0,0,1,12.78,3.613,13.346,13.346,0,0,1,3.984,9.572,13.548,13.548,0,0,1-8.528,12.7,14.333,14.333,0,0,1-11.223-.364,26.365,26.365,0,0,1-8.458,5.259,30.7,30.7,0,0,1,4.22,3.935,20.057,20.057,0,0,1,2.158,3.07,8.929,8.929,0,0,1,.909,2.618,4.222,4.222,0,0,1-1.7,4.173,6.193,6.193,0,0,1-6.217.454l-1.262,1.16c.245,3.125.638,8.312-.567,11.179a4.832,4.832,0,0,1-5.087,3,3.719,3.719,0,0,1-3.272-2.677,10.544,10.544,0,0,1-.478-3.052l-.025-5.617Zm14.667-19.774c6.7-3.218,11.795-9.562,12.074-17.173a20.182,20.182,0,0,0-1.968-9.672,24.286,24.286,0,0,0-9.284-10.119,28.7,28.7,0,0,0-23.447-2.59,24.41,24.41,0,0,0-15.63,14.3,18.875,18.875,0,0,0,4.046,20.252,23.984,23.984,0,0,0,9.345,6.048A32.843,32.843,0,0,0,201.023,157.535Zm-39.587-13.289a20.263,20.263,0,0,1,0-9.7,16.938,16.938,0,0,1,1.4-3.981l1.146-2.138a12.884,12.884,0,0,0-15.63,13.68,12.52,12.52,0,0,0,1.81,5.566,13.182,13.182,0,0,0,12.988,6.3,12.184,12.184,0,0,0,3.377-.837l-2-2.288a13.082,13.082,0,0,1-3.02-6.243l-.067-.36m49.486,5.381a14.637,14.637,0,0,1-2.316,2.979l-.656.75a13.387,13.387,0,0,0,5.365,1.2,13.013,13.013,0,0,0,13.346-12.138,12.814,12.814,0,0,0-3.267-9.506,12.946,12.946,0,0,0-12.6-4.081,20.262,20.262,0,0,1,1.163,18.765m-37.147,24.078c-1.65-3.144-.607-7.165.955-10.151l.793-1.3.408-.717-.893-.313-2.2,1.87c-2.1,1.785-5.283,5.454-5.312,8.358a3.723,3.723,0,0,0,2.1,3.334,5.722,5.722,0,0,0,4.894.1l-.325-.459m23.76.467a7.441,7.441,0,0,0,5.474-.054,3.7,3.7,0,0,0,2.377-4.363c-.89-3.4-5.242-7.181-8.34-9.249l-1.164.414c2.513,3.218,4.242,8.082,2.54,11.758m-3.427,2.883c4.4-2.92,3.546-8.337,1.518-12.408a12.41,12.41,0,0,0-1.222-2.039,33.738,33.738,0,0,1-19.174-.132,16.7,16.7,0,0,0-2.992,7.4c-.468,4.707,2.575,7.668,6.857,8.88a20.893,20.893,0,0,0,11.483-.037A12.36,12.36,0,0,0,196.454,174.242Zm-11.669,2.947a15.859,15.859,0,0,1-7.155-2.392,41.41,41.41,0,0,0-.127,8.163,8.27,8.27,0,0,0,.731,2.745,4.122,4.122,0,0,0,4.5,2.336,3.1,3.1,0,0,0,2.61-2.2,10.176,10.176,0,0,0,.45-3.082l0-5.471m8.492-1.236a20.038,20.038,0,0,1-6,1.225l.059,5.438c.02,1.9.355,4.434,2.3,5.14a4.252,4.252,0,0,0,3.62-.327c1.79-1.064,2.369-3.278,2.487-5.241a45.6,45.6,0,0,0-.151-7.436,8.069,8.069,0,0,0-.926.561" transform="translate(-147.739 -115.986)" fill="#f0faff"/>
  <ellipse id="Elipse_73" data-name="Elipse 73" cx="1.909" cy="1.751" rx="1.909" ry="1.751" transform="translate(29.97 18.242)" fill="#fff"/>
  <ellipse id="Elipse_74" data-name="Elipse 74" cx="1.873" cy="2.177" rx="1.873" ry="2.177" transform="translate(47.941 18.242)" fill="#fff" stroke="#241f20" stroke-width="1"/>
  <path id="Trazado_125" data-name="Trazado 125" d="M182.264,142.326a4.673,4.673,0,0,1-4.779,1.732,4.745,4.745,0,0,1-3.542-3.4,6.214,6.214,0,0,1,.062-3.636,4.872,4.872,0,0,1,4.62-3.413,4.564,4.564,0,0,1,2.88,1.16A5.845,5.845,0,0,1,182.264,142.326ZM180.7,136.4a1.241,1.241,0,0,0-.271-1.211,1.431,1.431,0,0,0-1.194-.45,1.135,1.135,0,0,0-.576,2.079A1.315,1.315,0,0,0,180.7,136.4Z" transform="translate(-147.739 -115.986)"/>
  <path id="Trazado_126" data-name="Trazado 126" d="M201.47,138.907c.036,2.872-1.824,5.2-4.686,5.248a4.331,4.331,0,0,1-3.53-1.538,5.8,5.8,0,0,1,0-7.326,4.479,4.479,0,0,1,3.886-1.667,4.644,4.644,0,0,1,3.072,1.654A5.5,5.5,0,0,1,201.47,138.907Zm-3.341-1.865a1.227,1.227,0,0,0,.749-.647,1.179,1.179,0,0,0-.141-1.026,1.449,1.449,0,0,0-1.884-.435,1.1,1.1,0,0,0-.2,1.657A1.409,1.409,0,0,0,198.129,137.042Z" transform="translate(-147.739 -115.986)"/>
  <path id="Trazado_127" data-name="Trazado 127" d="M189.5,147.037a3.157,3.157,0,0,1-4.434.327,3.955,3.955,0,0,1-1.094-2.009,6.319,6.319,0,0,1,.868-.349,2.48,2.48,0,0,0,1.828,2.143,2.166,2.166,0,0,0,2.64-2.121l.9.282A3.439,3.439,0,0,1,189.5,147.037Z" transform="translate(-147.739 -115.986)"/>
</svg>
