<?xml version="1.0" encoding="UTF-8"?>
<svg id="Capa_2" data-name="Capa 2" xmlns="http://www.w3.org/2000/svg" xmlns:xlink="http://www.w3.org/1999/xlink" viewBox="0 0 461.71 461.71">
  <defs>
    <style>
      .cls-1, .cls-2, .cls-3 {
        fill: none;
      }

      .cls-4 {
        stroke: #fff;
        stroke-width: 2px;
      }

      .cls-4, .cls-5 {
        fill: #96c5e9;
      }

      .cls-4, .cls-2, .cls-3 {
        stroke-miterlimit: 10;
      }

      .cls-6 {
        fill: #e998a9;
      }

      .cls-7 {
        fill: #f4c4cd;
      }

      .cls-8 {
        fill: #fff;
      }

      .cls-2 {
        stroke: #000;
        stroke-width: 5px;
      }

      .cls-3 {
        stroke: #023059;
        stroke-width: 14px;
      }

      .cls-9 {
        clip-path: url(#clippath);
      }
    </style>
    <clipPath id="clippath">
      <circle class="cls-1" cx="230.61" cy="230.85" r="226.54"/>
    </clipPath>
  </defs>
  <g id="Capa_2-2" data-name="Capa 2">
    <g id="Layer_1" data-name="Layer 1">
      <g>
        <circle class="cls-8" cx="230.61" cy="230.61" r="226.54"/>
        <g class="cls-9">
          <g>
            <ellipse class="cls-5" cx="58.69" cy="203.47" rx="87.67" ry="81.36"/>
            <path class="cls-5" d="M142.38,312.59c-22.78,22.78-53.46,67.56-57.3,101.77-2.22,19.79,12.58,38.06,32.48,37.55,17.8-.45,42.3-12.42,68.48-59.1l28.04-47.28-71.71-32.95Z"/>
            <path class="cls-5" d="M305.95,312.59c22.78,22.78,53.46,67.56,57.3,101.77,2.22,19.79-12.58,38.06-32.48,37.55-17.8-.45-42.3-12.42-68.48-59.1l-22.87-35.6,66.53-44.63Z"/>
            <path class="cls-5" d="M166.76,418.58c-.31,113.27,2.13,128.05,31.22,128.05,39.79,0,22.64-128.05,22.64-128.05"/>
            <path class="cls-5" d="M239.28,418.58c.64,117.86-3.76,128.05,29.48,128.05,35.28,0,17.94-128.05,17.94-128.05"/>
            <path class="cls-4" d="M159.67,329.94s-88.07,142.76,71.7,143.1c151.77.32,58.56-138.52,58.56-138.52"/>
            <path class="cls-5" d="M215.52,224.48s3.89,12.75,13.14,12.75c11.61,0,13.79-12.75,13.79-12.75"/>
            <ellipse class="cls-5" cx="402.05" cy="203.47" rx="87.67" ry="81.36"/>
            <ellipse class="cls-4" cx="228.99" cy="200.59" rx="167.06" ry="141.69"/>
            <path class="cls-2" d="M153.54,203.47s-2.02-23.08,8.01-35.23c10.76-13.05,40.04-16.55,37.9,35.23"/>
            <path class="cls-2" d="M261.31,203.47s-2.02-23.08,8.01-35.23c10.76-13.05,40.04-16.55,37.9,35.23"/>
            <path class="cls-2" d="M199.56,242.9s25.01,22.67,61.58,0"/>
            <g>
              <ellipse class="cls-7" cx="165.38" cy="220" rx="20.76" ry="6.09"/>
              <path class="cls-6" d="M153.94,222.26s4.29-3.47,4.94-5.13c.7-1.81-4.94,5.13-4.94,5.13Z"/>
              <path class="cls-6" d="M162.53,222.71s4.29-3.47,4.94-5.13c.7-1.81-4.94,5.13-4.94,5.13Z"/>
              <path class="cls-6" d="M170.57,223.34s4.6-3.34,4.54-4.43c-.11-1.93-4.54,4.43-4.54,4.43Z"/>
            </g>
            <g>
              <ellipse class="cls-7" cx="294.19" cy="221.45" rx="20.76" ry="6.09"/>
              <path class="cls-6" d="M282.75,223.71s4.29-3.47,4.94-5.13c.7-1.81-4.94,5.13-4.94,5.13Z"/>
              <path class="cls-6" d="M291.34,224.17s4.29-3.47,4.94-5.13c.7-1.81-4.94,5.13-4.94,5.13Z"/>
              <path class="cls-6" d="M299.38,224.8s4.6-3.34,4.54-4.43c-.11-1.93-4.54,4.43-4.54,4.43Z"/>
            </g>
          </g>
        </g>
        <circle class="cls-3" cx="230.85" cy="230.85" r="223.85"/>
      </g>
    </g>
  </g>
</svg>