<?xml version="1.0" encoding="UTF-8"?>
<svg id="Capa_2" data-name="Capa 2" xmlns="http://www.w3.org/2000/svg" xmlns:xlink="http://www.w3.org/1999/xlink" viewBox="0 0 461.71 461.71">
  <defs>
    <style>
      .cls-1, .cls-2 {
        fill: none;
      }

      .cls-3 {
        stroke: #fff;
        stroke-width: 2px;
      }

      .cls-3, .cls-4 {
        fill: #96c5e9;
      }

      .cls-3, .cls-2 {
        stroke-miterlimit: 10;
      }

      .cls-5 {
        fill: #e998a9;
      }

      .cls-6 {
        fill: #f4c4cd;
      }

      .cls-7 {
        fill: #fff;
      }

      .cls-2 {
        stroke: #023059;
        stroke-width: 14px;
      }

      .cls-8 {
        clip-path: url(#clippath);
      }
    </style>
    <clipPath id="clippath">
      <circle class="cls-1" cx="230.85" cy="230.85" r="226.54"/>
    </clipPath>
  </defs>
  <g id="Capa_2-2" data-name="Capa 2">
    <g id="Layer_1" data-name="Layer 1">
      <g>
        <circle class="cls-7" cx="230.61" cy="230.61" r="226.54"/>
        <g class="cls-8">
          <g>
            <ellipse class="cls-4" cx="60.93" cy="200.73" rx="87.47" ry="81.18"/>
            <path class="cls-4" d="M144.43,309.61c-22.73,22.73-53.34,67.41-57.17,101.55-2.21,19.74,12.55,37.97,32.41,37.47,17.76-.45,42.21-12.39,68.33-58.97l27.97-47.17-71.55-32.87Z"/>
            <path class="cls-4" d="M307.64,309.61c22.73,22.73,53.34,67.41,57.17,101.55,2.21,19.74-12.55,37.97-32.41,37.47-17.76-.45-42.21-12.39-68.33-58.97l-22.82-35.52,66.39-44.53Z"/>
            <path class="cls-4" d="M168.77,415.36c-.3,113.02,2.13,127.76,31.15,127.76,39.7,0,22.59-127.76,22.59-127.76"/>
            <path class="cls-4" d="M241.12,415.36c.64,117.6-3.75,127.76,29.41,127.76,35.2,0,17.9-127.76,17.9-127.76"/>
            <path class="cls-3" d="M161.69,326.92s-87.88,142.44,71.54,142.78c151.43.32,58.43-138.21,58.43-138.21"/>
            <path class="cls-4" d="M217.41,221.69s3.88,12.72,13.11,12.72c11.58,0,13.76-12.72,13.76-12.72"/>
            <ellipse class="cls-4" cx="403.53" cy="200.73" rx="87.47" ry="81.18"/>
            <ellipse class="cls-3" cx="230.85" cy="197.86" rx="166.69" ry="141.37"/>
            <path d="M230.77,257.34c.77-3,10.56-1.86,10.83-8.43.24-5.76-10.4-4.47-10.97-8.48-.73-5.11,10.35-2.06,11.18-9.13.8-6.81-14.62-5.24-10.76-10.42,4.4-5.9,17.48,2.16,17.28,9.35-.09,3.14-2.12,7.19-3.67,9.9,2.55,3.6,4.29,8.22,3.04,13.02-1.75,6.74-11.54,8.99-15.72,8.23-1.03-.19-1.48-3.02-1.21-4.04Z"/>
            <g>
              <path d="M164.99,175.83l-4.11.36c-.84.07-.41-2.95.74-2.94,5.67.05,13.5-3.1,16.49-10.99,3.11,9.14-5.79,12.93-13.12,13.57Z"/>
              <g>
                <path d="M189.67,217.44c-11.81,1.45-35.51,3.75-38.39-8.87-2.45-10.75,1.82-20.17,10-25.91,8.67-6.08,19.39-5.93,28.71-.08,5.61,3.52,8.38,8.31,10.07,15,1.97,7.77-.55,18.66-10.39,19.87ZM193.29,196.32c0-4.6-3.73-8.33-8.33-8.33s-8.33,3.73-8.33,8.33,3.73,8.33,8.33,8.33,8.33-3.73,8.33-8.33ZM178.81,206.92c0-1.83-1.48-3.31-3.31-3.31s-3.31,1.48-3.31,3.31,1.48,3.31,3.31,3.31,3.31-1.48,3.31-3.31Z"/>
                <circle class="cls-7" cx="184.96" cy="196.32" r="8.33"/>
                <circle class="cls-7" cx="175.5" cy="206.92" r="3.31"/>
              </g>
            </g>
            <g>
              <path d="M303.07,217.5c-9.08,1.02-19.03,1-27.61.19-8.61-.81-11.28-7.56-11.29-15.43,0-13.93,11.9-24.46,25.46-24.17,13.64.29,24.86,11.53,24.2,25.55-.32,6.8-2.69,12.96-10.77,13.87ZM287.83,196.35c0-4.58-3.71-8.29-8.29-8.29s-8.29,3.71-8.29,8.29,3.71,8.29,8.29,8.29,8.29-3.71,8.29-8.29ZM292.36,206.9c0-1.84-1.49-3.33-3.33-3.33s-3.33,1.49-3.33,3.33,1.49,3.33,3.33,3.33,3.33-1.49,3.33-3.33Z"/>
              <path d="M304.39,176.31c-6.98.33-20.83-2.75-17.89-13.04,8.48,13.63,16.63,8.36,17.1,10.12l.78,2.92Z"/>
              <circle class="cls-7" cx="279.54" cy="196.35" r="8.29"/>
              <circle class="cls-7" cx="289.03" cy="206.9" r="3.33"/>
            </g>
            <g>
              <ellipse class="cls-6" cx="132.6" cy="230.85" rx="23.18" ry="6.8"/>
              <path class="cls-5" d="M119.83,233.38s4.79-3.87,5.51-5.73c.78-2.02-5.51,5.73-5.51,5.73Z"/>
              <path class="cls-5" d="M129.41,233.89s4.79-3.87,5.51-5.73c.78-2.02-5.51,5.73-5.51,5.73Z"/>
              <path class="cls-5" d="M138.4,234.59s5.14-3.73,5.07-4.95c-.12-2.16-5.07,4.95-5.07,4.95Z"/>
            </g>
            <g>
              <ellipse class="cls-6" cx="325.93" cy="231.41" rx="25.51" ry="7.48"/>
              <path class="cls-5" d="M311.88,234.19s5.27-4.26,6.07-6.31c.86-2.22-6.07,6.31-6.07,6.31Z"/>
              <path class="cls-5" d="M322.42,234.75s5.27-4.26,6.07-6.31c.86-2.22-6.07,6.31-6.07,6.31Z"/>
              <path class="cls-5" d="M332.31,235.52s5.65-4.11,5.58-5.45c-.13-2.37-5.58,5.45-5.58,5.45Z"/>
            </g>
          </g>
        </g>
        <circle class="cls-2" cx="230.85" cy="230.85" r="223.85"/>
      </g>
    </g>
  </g>
</svg>