<?xml version="1.0" encoding="UTF-8"?>
<svg id="Capa_2" data-name="Capa 2" xmlns="http://www.w3.org/2000/svg" xmlns:xlink="http://www.w3.org/1999/xlink" viewBox="0 0 461.71 462.14">
  <defs>
    <style>
      .cls-1, .cls-2 {
        fill: none;
      }

      .cls-3 {
        stroke: #fff;
        stroke-width: 2px;
      }

      .cls-3, .cls-4 {
        fill: #96c5e9;
      }

      .cls-3, .cls-2 {
        stroke-miterlimit: 10;
      }

      .cls-5 {
        fill: #231f20;
      }

      .cls-6 {
        fill: #e998a9;
      }

      .cls-7 {
        fill: #f4c4cd;
      }

      .cls-8 {
        fill: #fff;
      }

      .cls-2 {
        stroke: #023059;
        stroke-width: 14px;
      }

      .cls-9 {
        clip-path: url(#clippath);
      }
    </style>
    <clipPath id="clippath">
      <circle class="cls-1" cx="233.54" cy="226.54" r="226.54"/>
    </clipPath>
  </defs>
  <g id="Capa_2-2" data-name="Capa 2">
    <g id="Layer_1" data-name="Layer 1">
      <g>
        <circle class="cls-8" cx="230.61" cy="231.04" r="226.54"/>
        <g class="cls-9">
          <g>
            <ellipse class="cls-4" cx="60.93" cy="205.53" rx="87.67" ry="81.36"/>
            <path class="cls-4" d="M144.62,314.65c-22.78,22.78-53.46,67.56-57.3,101.77-2.22,19.79,12.58,38.06,32.48,37.55,17.8-.45,42.3-12.42,68.48-59.1l28.04-47.28-71.71-32.95Z"/>
            <path class="cls-4" d="M308.19,314.65c22.78,22.78,53.46,67.56,57.3,101.77,2.22,19.79-12.58,38.06-32.48,37.55-17.8-.45-42.3-12.42-68.48-59.1l-22.87-35.6,66.53-44.63Z"/>
            <path class="cls-4" d="M169,420.64c-.31,113.27,2.13,128.05,31.22,128.05,39.79,0,22.64-128.05,22.64-128.05"/>
            <path class="cls-4" d="M241.52,420.64c.64,117.86-3.76,128.05,29.48,128.05,35.28,0,17.94-128.05,17.94-128.05"/>
            <path class="cls-3" d="M161.91,332s-88.07,142.76,71.7,143.1c151.77.32,58.56-138.52,58.56-138.52"/>
            <path class="cls-4" d="M217.76,226.54s3.89,12.75,13.14,12.75c11.61,0,13.79-12.75,13.79-12.75"/>
            <ellipse class="cls-4" cx="404.29" cy="205.53" rx="87.67" ry="81.36"/>
            <ellipse class="cls-3" cx="231.23" cy="202.65" rx="167.06" ry="141.69"/>
            <path d="M337.08,203.55l-.15,1.65c-.1,1.04-1.02,1.82-2.05,1.73l-60.69-5.34c-.12-.02-.25-.04-.36-.08h-.02c-.69-.12-1.29-.58-1.52-1.29l-.5-1.57c-.33-1,.23-2.07,1.23-2.4l59.32-19.06c1-.33,2.07.23,2.4,1.23l.5,1.55c.33,1-.23,2.07-1.23,2.4l-46.39,14.91,47.71,4.2c1.06.1,1.82,1.02,1.75,2.05Z"/>
            <path d="M125.38,203.55l.15,1.65c.1,1.04,1.02,1.82,2.05,1.73l60.69-5.34c.12-.02.25-.04.36-.08h.02c.69-.12,1.29-.58,1.52-1.29l.5-1.57c.33-1-.23-2.07-1.23-2.4l-59.32-19.06c-1-.33-2.07.23-2.4,1.23l-.5,1.55c-.33,1,.23,2.07,1.23,2.4l46.39,14.91-47.71,4.2c-1.06.1-1.82,1.02-1.75,2.05Z"/>
            <ellipse class="cls-5" cx="229.22" cy="260.79" rx="15.48" ry="26.1"/>
            <g>
              <ellipse class="cls-7" cx="162.72" cy="240.02" rx="20.76" ry="6.09"/>
              <path class="cls-6" d="M151.28,242.28s4.29-3.47,4.94-5.13c.7-1.81-4.94,5.13-4.94,5.13Z"/>
              <path class="cls-6" d="M159.86,242.73s4.29-3.47,4.94-5.13c.7-1.81-4.94,5.13-4.94,5.13Z"/>
              <path class="cls-6" d="M167.91,243.36s4.6-3.34,4.54-4.43c-.11-1.93-4.54,4.43-4.54,4.43Z"/>
            </g>
            <g>
              <ellipse class="cls-7" cx="290.36" cy="238.56" rx="20.76" ry="6.09"/>
              <path class="cls-6" d="M278.92,240.82s4.29-3.47,4.94-5.13c.7-1.81-4.94,5.13-4.94,5.13Z"/>
              <path class="cls-6" d="M287.51,241.28s4.29-3.47,4.94-5.13c.7-1.81-4.94,5.13-4.94,5.13Z"/>
              <path class="cls-6" d="M295.55,241.9s4.6-3.34,4.54-4.43c-.11-1.93-4.54,4.43-4.54,4.43Z"/>
            </g>
          </g>
        </g>
        <circle class="cls-2" cx="230.85" cy="231.28" r="223.85"/>
      </g>
    </g>
  </g>
</svg>