<?xml version="1.0" encoding="UTF-8"?>
<svg id="Capa_2" data-name="Capa 2" xmlns="http://www.w3.org/2000/svg" xmlns:xlink="http://www.w3.org/1999/xlink" viewBox="0 0 461.71 461.71">
  <defs>
    <style>
      .cls-1, .cls-2 {
        fill: none;
      }

      .cls-3 {
        stroke: #fff;
        stroke-width: 2px;
      }

      .cls-3, .cls-4 {
        fill: #96c5e9;
      }

      .cls-3, .cls-2 {
        stroke-miterlimit: 10;
      }

      .cls-5 {
        fill: #fff;
      }

      .cls-2 {
        stroke: #023059;
        stroke-width: 14px;
      }

      .cls-6 {
        clip-path: url(#clippath);
      }
    </style>
    <clipPath id="clippath">
      <circle class="cls-1" cx="233.28" cy="230.61" r="226.54"/>
    </clipPath>
  </defs>
  <g id="Capa_2-2" data-name="Capa 2">
    <g id="Layer_1" data-name="Layer 1">
      <g>
        <circle class="cls-5" cx="230.61" cy="230.61" r="226.54"/>
        <g class="cls-6">
          <g>
            <ellipse class="cls-4" cx="56.78" cy="201.7" rx="89.47" ry="83.03"/>
            <path class="cls-4" d="M142.19,313.06c-23.25,23.25-54.56,68.95-58.48,103.87-2.26,20.19,12.84,38.84,33.15,38.32,18.17-.46,43.17-12.68,69.89-60.32l28.61-48.25-73.18-33.62Z"/>
            <path class="cls-4" d="M309.13,313.06c23.25,23.25,54.56,68.95,58.48,103.87,2.26,20.19-12.84,38.84-33.15,38.32-18.17-.46-43.17-12.68-69.89-60.32l-23.34-36.33,67.9-45.55Z"/>
            <path class="cls-4" d="M167.08,421.23c-.31,115.6,2.17,130.68,31.86,130.68,40.61,0,23.1-130.68,23.1-130.68"/>
            <path class="cls-4" d="M241.09,421.23c.65,120.28-3.83,130.68,30.08,130.68,36.01,0,18.31-130.68,18.31-130.68"/>
            <path class="cls-3" d="M159.83,330.76s-89.88,145.69,73.18,146.04c154.89.33,59.77-141.37,59.77-141.37"/>
            <path class="cls-4" d="M216.84,223.13s3.97,13.01,13.41,13.01c11.85,0,14.08-13.01,14.08-13.01"/>
            <ellipse class="cls-4" cx="407.2" cy="201.7" rx="89.47" ry="83.03"/>
            <ellipse class="cls-3" cx="230.58" cy="198.76" rx="170.5" ry="144.6"/>
            <g>
              <path d="M245.2,242.18c-19.61-3.84-23.79,18.93-25.78,18.28l-3.89-1.26c-2.78-.9,6.7-29.59,33.15-23.1l.71,3.97c.19,1.08-2.91,2.36-4.19,2.11Z"/>
              <path d="M310.68,160.76c-9-11.51-17.05-1.07-21.51-5.39,9.07-5.76,20.63-3.68,25.82,5.33.5.87-3.59.99-4.32.07Z"/>
              <path d="M188.68,162.93c-8.11-6.46-14.07-10.34-23.57-5.72-3.15-7.85,24.11-6.85,23.57,5.72Z"/>
              <g>
                <path d="M308.46,204.54c0,14.18-11.5,25.68-25.68,25.68s-25.68-11.5-25.68-25.68,11.5-25.68,25.68-25.68,25.68,11.5,25.68,25.68ZM281.68,197.44c0-4.67-3.78-8.45-8.45-8.45s-8.45,3.78-8.45,8.45,3.78,8.45,8.45,8.45,8.45-3.78,8.45-8.45Z"/>
                <circle class="cls-5" cx="273.24" cy="197.44" r="8.45"/>
              </g>
              <g>
                <path d="M193.06,204.5c0,14.16-11.48,25.65-25.65,25.65s-25.65-11.48-25.65-25.65,11.48-25.65,25.65-25.65,25.65,11.48,25.65,25.65ZM167.46,197.43c0-4.67-3.79-8.46-8.46-8.46s-8.46,3.79-8.46,8.46,3.79,8.46,8.46,8.46,8.46-3.79,8.46-8.46Z"/>
                <circle class="cls-5" cx="159" cy="197.43" r="8.46"/>
              </g>
            </g>
          </g>
        </g>
        <circle class="cls-2" cx="230.85" cy="230.85" r="223.85"/>
      </g>
    </g>
  </g>
</svg>