<?xml version="1.0" encoding="UTF-8"?>
<svg id="Capa_2" data-name="Capa 2" xmlns="http://www.w3.org/2000/svg" xmlns:xlink="http://www.w3.org/1999/xlink" viewBox="0 0 461.71 461.71">
  <defs>
    <style>
      .cls-1, .cls-2 {
        fill: none;
      }

      .cls-3 {
        stroke: #fff;
        stroke-width: 2px;
      }

      .cls-3, .cls-4 {
        fill: #96c5e9;
      }

      .cls-3, .cls-2 {
        stroke-miterlimit: 10;
      }

      .cls-5 {
        fill: #fff;
      }

      .cls-2 {
        stroke: #023059;
        stroke-width: 14px;
      }

      .cls-6 {
        clip-path: url(#clippath);
      }
    </style>
    <clipPath id="clippath">
      <circle class="cls-1" cx="230.61" cy="230.61" r="226.54"/>
    </clipPath>
  </defs>
  <g id="Capa_2-2" data-name="Capa 2">
    <g id="Layer_1" data-name="Layer 1">
      <g>
        <circle class="cls-5" cx="230.61" cy="230.61" r="226.54"/>
        <g class="cls-6">
          <g>
            <ellipse class="cls-4" cx="58.93" cy="209.6" rx="87.67" ry="81.36"/>
            <path class="cls-4" d="M142.62,318.72c-22.78,22.78-53.46,67.56-57.3,101.77-2.22,19.79,12.58,38.06,32.48,37.55,17.8-.45,42.3-12.42,68.48-59.1l28.04-47.28-71.71-32.95Z"/>
            <path class="cls-4" d="M306.19,318.72c22.78,22.78,53.46,67.56,57.3,101.77,2.22,19.79-12.58,38.06-32.48,37.55-17.8-.45-42.3-12.42-68.48-59.1l-22.87-35.6,66.53-44.63Z"/>
            <path class="cls-4" d="M167.01,424.71c-.31,113.27,2.13,128.05,31.22,128.05,39.79,0,22.64-128.05,22.64-128.05"/>
            <path class="cls-4" d="M239.53,424.71c.64,117.86-3.76,128.05,29.48,128.05,35.28,0,17.94-128.05,17.94-128.05"/>
            <path class="cls-3" d="M159.91,336.07s-88.07,142.76,71.7,143.1c151.77.32,58.56-138.52,58.56-138.52"/>
            <path class="cls-4" d="M215.76,230.61s3.89,12.75,13.14,12.75c11.61,0,13.79-12.75,13.79-12.75"/>
            <ellipse class="cls-4" cx="402.29" cy="209.6" rx="87.67" ry="81.36"/>
            <ellipse class="cls-3" cx="229.23" cy="206.72" rx="167.06" ry="141.69"/>
            <g>
              <ellipse cx="171.69" cy="187.04" rx="9.4" ry="7.72"/>
              <path d="M185.49,213.98c-5.53,6.58-14.45,9.32-23.52,7.64-8.03-1.48-15.13-7.29-17.43-14.98-1.58-5.3-1.68-10.84.31-16.03,3.4-8.87,12.29-15.21,22.74-15.05,5.47.08,10.1,2.09,14.17,5.12,10.33,7.67,11.68,23.85,3.73,33.31ZM177.8,187.86c.9-1.95-.2-4.21-1.33-5.34-1.48-1.49-3.64-2.12-5.88-1.98-2.68.17-4.44,1.67-5.11,3.62-.72,2.12.23,4.14,2.27,5.54,3.15,2.16,8.3,1.89,10.04-1.84Z"/>
            </g>
            <path d="M254.01,254.63c-7.08,10.4-22.93,14.96-34.78,10.03-5.63-2.38-8.68-6.32-11.6-10.9,2.21-1.48,4.04-2.58,6.4-3.8,3.14,6.43,9.03,10.8,17.62,10.46,11.33-.35,19.21-8.88,17.93-18.31l7.58.19c.09,4.16-.54,8.47-3.16,12.33Z"/>
            <path d="M323.56,208.77l-.17,1.81c-.11,1.14-1.12,2-2.25,1.89l-66.55-5.85c-.13-.02-.27-.04-.4-.08h-.02c-.76-.13-1.41-.63-1.66-1.41l-.55-1.73c-.36-1.09.25-2.27,1.35-2.63l65.05-20.9c1.09-.36,2.27.25,2.63,1.35l.55,1.7c.36,1.09-.25,2.27-1.35,2.63l-50.87,16.35,52.32,4.61c1.16.11,2,1.12,1.92,2.25Z"/>
            <circle class="cls-5" cx="162.29" cy="191.06" r="7.41"/>
          </g>
        </g>
        <circle class="cls-2" cx="230.85" cy="230.85" r="223.85"/>
      </g>
    </g>
  </g>
</svg>