<?xml version="1.0" encoding="UTF-8"?>
<svg id="Capa_2" data-name="Capa 2" xmlns="http://www.w3.org/2000/svg" xmlns:xlink="http://www.w3.org/1999/xlink" viewBox="0 0 461.71 461.71">
  <defs>
    <style>
      .cls-1, .cls-2 {
        fill: none;
      }

      .cls-3 {
        stroke: #fff;
        stroke-width: 2px;
      }

      .cls-3, .cls-4 {
        fill: #96c5e9;
      }

      .cls-3, .cls-2 {
        stroke-miterlimit: 10;
      }

      .cls-5 {
        fill: #fff;
      }

      .cls-2 {
        stroke: #023059;
        stroke-width: 14px;
      }

      .cls-6 {
        clip-path: url(#clippath);
      }
    </style>
    <clipPath id="clippath">
      <circle class="cls-1" cx="230.85" cy="227.61" r="226.54"/>
    </clipPath>
  </defs>
  <g id="Capa_2-2" data-name="Capa 2">
    <g id="Layer_1" data-name="Layer 1">
      <g>
        <circle class="cls-5" cx="230.61" cy="230.61" r="226.54"/>
        <g class="cls-6">
          <g>
            <ellipse class="cls-4" cx="58.83" cy="198.7" rx="87.72" ry="81.4"/>
            <path class="cls-4" d="M142.57,307.89c-22.79,22.79-53.49,67.6-57.33,101.83-2.22,19.8,12.59,38.08,32.5,37.57,17.81-.45,42.33-12.43,68.52-59.14l28.05-47.31-71.75-32.97Z"/>
            <path class="cls-4" d="M306.24,307.89c22.79,22.79,53.49,67.6,57.33,101.83,2.22,19.8-12.59,38.08-32.5,37.57-17.81-.45-42.33-12.43-68.52-59.14l-22.88-35.62,66.57-44.65Z"/>
            <path class="cls-4" d="M166.97,413.94c-.31,113.34,2.13,128.12,31.24,128.12,39.81,0,22.65-128.12,22.65-128.12"/>
            <path class="cls-4" d="M239.53,413.94c.64,117.93-3.76,128.12,29.49,128.12,35.3,0,17.95-128.12,17.95-128.12"/>
            <path class="cls-3" d="M159.87,325.24s-88.12,142.84,71.75,143.18c151.86.32,58.6-138.6,58.6-138.6"/>
            <path class="cls-4" d="M215.76,219.72s3.89,12.75,13.15,12.75c11.61,0,13.8-12.75,13.8-12.75"/>
            <ellipse class="cls-4" cx="402.39" cy="198.7" rx="87.72" ry="81.4"/>
            <ellipse class="cls-3" cx="229.23" cy="195.82" rx="167.16" ry="141.77"/>
            <path d="M247.74,239.26l-37.58.05c-1.01,0-2.98-1.44-3.3-2.13-.43-.94,1.76-3.16,2.89-3.16l38.02-.13c1.25,0,4.19.03,4.12.9l-.31,3.76c-.07.87-2.2.72-3.84.72Z"/>
            <g>
              <path d="M197.67,195.37c-2.13,7.46-2.62,21.8-11.16,26.46-10.19,5.56-20.37,6.23-30.03-.96-7.87-5.86-11.74-16.51-9.33-27.42-4.99-1.43-9.91,2.51-13.34-2.88l65.26-.1-1.4,4.9ZM186.19,193.79c-2.19-.93-8.15-.84-10.21.33-3.81,2.17-3.77,9.82.1,12.46,3.55,2.43,8.73,2.57,11.67-.52,2.87-3.02,3.84-9.96-1.56-12.27Z"/>
              <path d="M161.58,173.77c3.15-1.31,24.78,11.38,26.09,12.32,16.27,11.66-32.77-11.92-26.09-12.32Z"/>
              <path class="cls-5" d="M186.19,193.79c5.4,2.31,4.43,9.25,1.56,12.27-2.94,3.09-8.12,2.95-11.67.52-3.86-2.64-3.91-10.29-.1-12.46,2.05-1.17,8.02-1.26,10.21-.33Z"/>
            </g>
            <g>
              <path d="M312.4,200.62c.91,16.31-13.99,27.05-28.15,25.25-15.64-1.99-25.37-16.38-21.5-32.41-5.18-1.86-10.58,2.95-14.6-2.89l67.12-.16c-1.92,3.73-3.1,5.96-2.87,10.21ZM302.08,193.92c-2.32-1.05-8.4-.98-10.53,0-4.07,1.87-3.93,9.83-.02,12.68,3.46,2.52,8.47,2.62,11.68-.72,2.89-3,3.57-9.83-1.14-11.96ZM290.67,210.93c0-1.85-1.5-3.35-3.35-3.35s-3.35,1.5-3.35,3.35,1.5,3.35,3.35,3.35,3.35-1.5,3.35-3.35Z"/>
              <path d="M298.82,173.58c.45,2.62-25.08,14.9-25.42,14.46l-1.79-2.3c9.25-3.98,16.48-10.35,27.21-12.16Z"/>
              <path class="cls-5" d="M302.08,193.92c4.71,2.13,4.03,8.96,1.14,11.96-3.22,3.34-8.22,3.24-11.68.72-3.92-2.85-4.05-10.81.02-12.68,2.13-.98,8.21-1.05,10.53,0Z"/>
              <circle class="cls-5" cx="287.32" cy="210.93" r="3.35"/>
            </g>
          </g>
        </g>
        <circle class="cls-2" cx="230.85" cy="230.85" r="223.85"/>
      </g>
    </g>
  </g>
</svg>