<?xml version="1.0" encoding="UTF-8"?>
<svg id="Capa_2" xmlns="http://www.w3.org/2000/svg" xmlns:xlink="http://www.w3.org/1999/xlink" version="1.1" viewBox="0 0 462.1 462.1">
  <!-- Generator: Adobe Illustrator 30.0.0, SVG Export Plug-In . SVG Version: 2.1.1 Build 123)  -->
  <defs>
    <style>
      .st0, .st1, .st2 {
        fill: none;
      }

      .st3 {
        stroke: #fff;
        stroke-width: 3px;
      }

      .st3, .st1, .st2 {
        stroke-miterlimit: 10;
      }

      .st3, .st4 {
        fill: #97c6ea;
      }

      .st5 {
        fill: #ea98a9;
      }

      .st6 {
        fill: #231f20;
      }

      .st1 {
        stroke: #231f20;
      }

      .st7 {
        fill: #fff;
      }

      .st2 {
        stroke: #023059;
        stroke-width: 14px;
      }

      .st8 {
        clip-path: url(#clippath);
      }

      .st9 {
        fill: #f4c4ce;
      }
    </style>
    <clipPath id="clippath">
      <circle class="st0" cx="231" cy="231" r="226.5"/>
    </clipPath>
  </defs>
  <g id="Layer_1">
    <g>
      <g>
        <circle class="st7" cx="231" cy="231" r="226.5"/>
        <g class="st8">
          <g>
            <ellipse class="st4" cx="54.1" cy="210.3" rx="89.8" ry="83.3"/>
            <path class="st4" d="M139.8,322c-23.3,23.3-54.8,69.2-58.7,104.2-2.3,20.3,12.9,39,33.3,38.5,18.2-.5,43.3-12.7,70.1-60.5l28.7-48.4-73.4-33.7h0Z"/>
            <path class="st4" d="M307.4,322c23.3,23.3,54.8,69.2,58.7,104.2,2.3,20.3-12.9,39-33.3,38.5-18.2-.5-43.3-12.7-70.1-60.5l-23.4-36.5,68.1-45.7h0Z"/>
            <path class="st4" d="M164.8,430.6c-.3,116,2.2,131.1,32,131.1s23.2-131.1,23.2-131.1"/>
            <path class="st4" d="M239.1,430.6c.7,120.7-3.9,131.1,30.2,131.1s18.4-131.1,18.4-131.1"/>
            <path class="st3" d="M157.6,339.8s-90.2,146.2,73.4,146.6c155.4.3,60-141.9,60-141.9"/>
            <path class="st4" d="M214.8,231.8s4,13.1,13.5,13.1,14.1-13.1,14.1-13.1"/>
            <ellipse class="st4" cx="405.8" cy="210.3" rx="89.8" ry="83.3"/>
            <ellipse class="st3" cx="228.5" cy="207.3" rx="171.1" ry="145.1"/>
            <path class="st6" d="M192.1,224.6s15.5-34.2-21.3-45c0,0-32.2-8.1-37.9,29.1,0,0-1.7,1.8-10.9.1,0,0,.1,4,10.9,4l.7,4.7s-6.5,1.3-10.6,1l9.1,3.3s16.3-2.9,23.8-2.6c0,0,22.8.7,36.3,5.2h0Z"/>
            <path class="st1" d="M149.5,174.1s14.8-15.9,28.9-.9"/>
            <circle class="st7" cx="174.2" cy="199.6" r="10.6"/>
            <circle class="st7" cx="149.5" cy="210.1" r="6.1"/>
            <path class="st6" d="M263.1,225.2s-15.7-35,20.8-45.9c0,0,35.1-8.1,38.4,29.5,0,0,6.2.8,10.2.8,0,0-3.3,4.5-10.7,4.4l-.3,3.7,9.2,1.2s-5.6,3.5-12.3,2.4-27.3-6.6-55.3,4h0Z"/>
            <circle class="st7" cx="280.5" cy="199.6" r="10.6"/>
            <circle class="st7" cx="305.6" cy="209.9" r="6.1"/>
            <path class="st1" d="M278.2,173.6s14.5-15.6,26.6.9"/>
            <path class="st6" d="M208.2,254.8c4.4,4.2,21.4,17.9,38.2.8.8-.9,1.2-2.1,1-3.3l-.8-4s.3-4.5,2.1-.5c0,0,0,5.2,5.3,7.9l3.3,1s3.3,2.2-.6,2.2l-3.6-1s-1.3-1.2-4.2,2.7c0,0-10.4,8.8-19.9,8.7s-17.9-2.7-25.1-11.1c0,0-1-.4-3,1,0,0-.4,1.1-5.5.6,0,0-3.3-1.5,1.3-2.1,0,0,7.8-.3,8.4-7.3v-1.8s1-3.6,2.4.2c0,0-.3,1.4-.5,2.8-.1,1.2.2,2.4,1.1,3.2h0Z"/>
            <g>
              <ellipse class="st9" cx="138.7" cy="237.4" rx="21.3" ry="6.2"/>
              <path class="st5" d="M127,239.7s4.4-3.6,5.1-5.3c.7-1.9-5.1,5.3-5.1,5.3Z"/>
              <path class="st5" d="M135.8,240.1s4.4-3.6,5.1-5.3c.7-1.9-5.1,5.3-5.1,5.3Z"/>
              <path class="st5" d="M144,240.8s4.7-3.4,4.6-4.5c-.1-2-4.6,4.5-4.6,4.5Z"/>
            </g>
            <g>
              <ellipse class="st9" cx="316" cy="237.9" rx="23.4" ry="6.9"/>
              <path class="st5" d="M303.1,240.4s4.8-3.9,5.6-5.8c.8-2-5.6,5.8-5.6,5.8Z"/>
              <path class="st5" d="M312.8,240.9s4.8-3.9,5.6-5.8c.8-2-5.6,5.8-5.6,5.8Z"/>
              <path class="st5" d="M321.8,241.6s5.2-3.8,5.1-5c-.1-2.2-5.1,5-5.1,5Z"/>
            </g>
          </g>
        </g>
        <circle class="st2" cx="231.3" cy="231.3" r="223.9"/>
      </g>
      <path d="M187.8,385l36-28.1c1.3-1,1.1-3.1-.4-3.8l-35.6-18.5c-1.7-.9-3.7.6-3.3,2.5l4.6,23.2c0,.3,0,.6,0,1l-5,21.5c-.5,2.1,1.9,3.7,3.6,2.3h0Z"/>
      <path d="M243.6,356.5c0-6.6-3.2-11-9.1-12.9-1.4-.5-3.7,3.8-5.3,3.8s-5.8-4.5-7.6-3.7c-5.3,2.2-7.5,6.7-7.5,12.9s6.6,14.8,14.8,14.8,14.8-6.6,14.8-14.8Z"/>
      <path d="M267.9,385l-36-28.1c-1.3-1-1.1-3.1.4-3.8l35.6-18.5c1.7-.9,3.7.6,3.3,2.5l-4.6,23.2c0,.3,0,.6,0,1l5,21.5c.5,2.1-1.9,3.7-3.6,2.3h0Z"/>
    </g>
  </g>
</svg>