<?xml version="1.0" encoding="UTF-8"?>
<svg id="Capa_2" data-name="Capa 2" xmlns="http://www.w3.org/2000/svg" xmlns:xlink="http://www.w3.org/1999/xlink" viewBox="0 0 461.71 462.14">
  <defs>
    <style>
      .cls-1, .cls-2 {
        fill: none;
      }

      .cls-3 {
        stroke: #fff;
        stroke-width: 2px;
      }

      .cls-3, .cls-4 {
        fill: #96c5e9;
      }

      .cls-3, .cls-2 {
        stroke-miterlimit: 10;
      }

      .cls-5 {
        fill: #e0f2fb;
      }

      .cls-6 {
        fill: #fff;
      }

      .cls-2 {
        stroke: #023059;
        stroke-width: 14px;
      }

      .cls-7 {
        clip-path: url(#clippath);
      }
    </style>
    <clipPath id="clippath">
      <circle class="cls-1" cx="230.61" cy="226.54" r="226.54"/>
    </clipPath>
  </defs>
  <g id="Capa_2-2" data-name="Capa 2">
    <g id="Layer_1" data-name="Layer 1">
      <g>
        <circle class="cls-6" cx="230.61" cy="231.04" r="226.54"/>
        <g class="cls-7">
          <g>
            <ellipse class="cls-4" cx="55.4" cy="202.53" rx="89.47" ry="83.03"/>
            <path class="cls-4" d="M140.81,313.89c-23.25,23.25-54.56,68.95-58.48,103.87-2.26,20.19,12.84,38.84,33.15,38.32,18.17-.46,43.17-12.68,69.89-60.32l28.61-48.25-73.18-33.62Z"/>
            <path class="cls-4" d="M307.75,313.89c23.25,23.25,54.56,68.95,58.48,103.87,2.26,20.19-12.84,38.84-33.15,38.32-18.17-.46-43.17-12.68-69.89-60.32l-23.34-36.33,67.9-45.55Z"/>
            <path class="cls-4" d="M165.7,422.06c-.31,115.6,2.17,130.68,31.86,130.68,40.61,0,23.1-130.68,23.1-130.68"/>
            <path class="cls-4" d="M239.71,422.06c.65,120.28-3.83,130.68,30.08,130.68,36.01,0,18.31-130.68,18.31-130.68"/>
            <path class="cls-3" d="M158.46,331.6s-89.88,145.69,73.18,146.04c154.89.33,59.77-141.37,59.77-141.37"/>
            <path class="cls-4" d="M215.46,223.97s3.97,13.01,13.41,13.01c11.85,0,14.08-13.01,14.08-13.01"/>
            <ellipse class="cls-4" cx="405.82" cy="202.53" rx="89.47" ry="83.03"/>
            <ellipse class="cls-3" cx="229.2" cy="199.59" rx="170.5" ry="144.6"/>
            <path d="M249.08,256.48c-2.75-3.44-2.31-20.24-19.18-20.68-19.34-.5-16.53,20.89-20.59,21.3-1.78.18-4.31-2.42-4.25-4.59.43-15.64,12.26-24.44,26.29-24.27,13.24.15,23.89,14.5,22.65,25.93-.19,1.75-4.25,3.14-4.91,2.31Z"/>
            <g>
              <path d="M315.8,227.09c-9.5,1.67-30.22-3.6-29.79,10.35-12.04-3.77-20.02-13.76-20.56-25.54-.59-12.96,6.37-24.23,19.49-29.29-1-5.82-6.94-10.08-3.17-17.33,5.78,20.78,23.08,33.86,44.46,28.75-.2,4.19-2.87,4.23-6.26,4.7,3.36,8.23,3.8,21.37-4.16,28.36ZM292.69,201.93c0-5.22-4.24-9.46-9.46-9.46s-9.46,4.24-9.46,9.46,4.24,9.46,9.46,9.46,9.46-4.24,9.46-9.46ZM297.61,213.89c0-2.06-1.67-3.74-3.74-3.74s-3.74,1.67-3.74,3.74,1.67,3.74,3.74,3.74,3.74-1.67,3.74-3.74Z"/>
              <circle class="cls-6" cx="283.23" cy="201.93" r="9.46"/>
              <circle class="cls-6" cx="293.87" cy="213.89" r="3.74"/>
            </g>
            <g>
              <path d="M172.96,233.06c.76-6.43-26.03-5.36-28.75-6.34-8.91-3.2-7.69-19.24-5.53-26.74-2.68-2.02-4.38-3.02-6.49-5.73,22.79,4.93,39-8.5,45.74-29.42,2.99,7.14-2.06,12-3.58,17.68,11.37,4.56,20.18,15.84,19.5,27.76-.73,12.83-7.92,23.81-21.44,27.51l.56-4.72ZM185.36,201.89c0-5.21-4.22-9.43-9.43-9.43s-9.43,4.22-9.43,9.43,4.22,9.43,9.43,9.43,9.43-4.22,9.43-9.43ZM169.08,214.05c0-2.08-1.69-3.76-3.76-3.76s-3.76,1.69-3.76,3.76,1.69,3.76,3.76,3.76,3.76-1.69,3.76-3.76Z"/>
              <circle class="cls-6" cx="175.93" cy="201.89" r="9.43"/>
              <circle class="cls-6" cx="165.31" cy="214.05" r="3.76"/>
            </g>
            <ellipse class="cls-5" cx="153.37" cy="234.6" rx="21.19" ry="8.07"/>
            <ellipse class="cls-5" cx="305.03" cy="234.6" rx="20.48" ry="8.07"/>
          </g>
        </g>
        <circle class="cls-2" cx="230.85" cy="231.28" r="223.85"/>
      </g>
    </g>
  </g>
</svg>