<?xml version="1.0" encoding="UTF-8"?>
<svg id="Capa_2" data-name="Capa 2" xmlns="http://www.w3.org/2000/svg" xmlns:xlink="http://www.w3.org/1999/xlink" viewBox="0 0 461.71 462.14">
  <defs>
    <style>
      .cls-1, .cls-2 {
        fill: none;
      }

      .cls-3 {
        stroke: #fff;
        stroke-width: 2px;
      }

      .cls-3, .cls-4 {
        fill: #96c5e9;
      }

      .cls-3, .cls-2 {
        stroke-miterlimit: 10;
      }

      .cls-5 {
        fill: #fff;
      }

      .cls-2 {
        stroke: #023059;
        stroke-width: 14px;
      }

      .cls-6 {
        clip-path: url(#clippath);
      }
    </style>
    <clipPath id="clippath">
      <circle class="cls-1" cx="230.61" cy="226.54" r="226.54"/>
    </clipPath>
  </defs>
  <g id="Capa_2-2" data-name="Capa 2">
    <g id="Layer_1" data-name="Layer 1">
      <g>
        <circle class="cls-5" cx="230.61" cy="231.04" r="226.54"/>
        <g class="cls-6">
          <g>
            <ellipse class="cls-4" cx="59.09" cy="199.32" rx="87.14" ry="80.87"/>
            <path class="cls-4" d="M142.28,307.79c-22.64,22.64-53.14,67.16-56.96,101.17-2.21,19.67,12.5,37.83,32.29,37.33,17.69-.45,42.05-12.35,68.07-58.75l27.87-46.99-71.28-32.75Z"/>
            <path class="cls-4" d="M304.88,307.79c22.64,22.64,53.14,67.16,56.96,101.17,2.21,19.67-12.5,37.83-32.29,37.33-17.69-.45-42.05-12.35-68.07-58.75l-22.73-35.38,66.14-44.36Z"/>
            <path class="cls-4" d="M166.52,413.15c-.3,112.6,2.12,127.28,31.03,127.28,39.55,0,22.5-127.28,22.5-127.28"/>
            <path class="cls-4" d="M238.61,413.15c.64,117.15-3.73,127.28,29.3,127.28,35.07,0,17.84-127.28,17.84-127.28"/>
            <path class="cls-3" d="M159.47,325.03s-87.55,141.9,71.27,142.24c150.86.32,58.21-137.69,58.21-137.69"/>
            <path class="cls-4" d="M214.99,220.2s3.87,12.67,13.06,12.67c11.54,0,13.71-12.67,13.71-12.67"/>
            <ellipse class="cls-4" cx="400.4" cy="199.32" rx="87.14" ry="80.87"/>
            <ellipse class="cls-3" cx="228.38" cy="196.46" rx="166.06" ry="140.84"/>
            <path d="M248.71,252.21c-1.02-10.83-8.21-16.33-18.09-16.99-9.16-.61-18.39,2.82-21.42,11.89l-1.53,4.58c-.41,1.24-4.87-.1-5.08-1.54-.73-5.04,2.97-12.68,7.66-15.85,11.58-7.81,25.09-7.36,36.72.27,4.61,3.02,7.78,10.66,7.12,15.75-.15,1.14-3.11,1.81-5.39,1.89Z"/>
            <g>
              <path d="M171.92,214.31c20.35-.36,19.54-21.53,22.09-22.92.96-.53,4.39.28,4.46,1.6.79,15.3-11.34,27.73-26.41,27.9-15.09.17-27.32-13.18-26.53-27.44.1-1.74,3.75-2.63,4.51-1.89.95.93,1.85,3.22,2.05,5.32.95,9.89,10.45,17.59,19.83,17.43Z"/>
              <path d="M154.81,175.84l1.89-2.43c6.6,4.34,12.79-.33,15.19-5.63.23-.51,1.11-1.77,1.33-2.12s1.77,1.92,1.69,2.45c-.96,6.54-11.54,14.38-20.1,7.73Z"/>
            </g>
            <g>
              <path d="M305.16,193.11c.05-2.05,5.9-1.88,6.02-.3,1.23,15.61-10.74,27.2-24.99,27.84-14.42.64-27.38-9.82-27.89-25.18-.05-1.41,1.43-3.94,2.53-4.14,1.38-.26,3.85,2.22,3.94,3.76.62,11.36,10.05,19.55,20.43,19.27,10.68-.28,19.65-8.54,19.95-21.24Z"/>
              <path d="M302.21,174.93c-4.05,5.65-9.37,3.68-13.49,1.55-3.47-1.79-8.32-5.59-5.76-11.58,4.27,8.06,9.16,11.66,19.25,10.02Z"/>
            </g>
          </g>
        </g>
        <circle class="cls-2" cx="230.85" cy="231.28" r="223.85"/>
      </g>
    </g>
  </g>
</svg>